NunitoSans-CondensedExtraLight.ufo
<glyph name="numbersign" format="2">
  <advance width="518"/>
  <unicode hex="0023"/>
  <outline>
    <contour>
      <point x="82" y="0" type="line"/>
      <point x="119" y="0" type="line"/>
      <point x="149" y="192" type="line"/>
      <point x="317" y="192" type="line"/>
      <point x="287" y="0" type="line"/>
      <point x="324" y="0" type="line"/>
      <point x="354" y="192" type="line"/>
      <point x="474" y="192" type="line"/>
      <point x="474" y="230" type="line"/>
      <point x="360" y="230" type="line"/>
      <point x="400" y="483" type="line"/>
      <point x="489" y="483" type="line"/>
      <point x="489" y="521" type="line"/>
      <point x="406" y="521" type="line"/>
      <point x="435" y="705" type="line"/>
      <point x="398" y="705" type="line"/>
      <point x="369" y="521" type="line"/>
      <point x="201" y="521" type="line"/>
      <point x="230" y="705" type="line"/>
      <point x="193" y="705" type="line"/>
      <point x="164" y="521" type="line"/>
      <point x="44" y="521" type="line"/>
      <point x="44" y="483" type="line"/>
      <point x="158" y="483" type="line"/>
      <point x="118" y="230" type="line"/>
      <point x="29" y="230" type="line"/>
      <point x="29" y="192" type="line"/>
      <point x="112" y="192" type="line"/>
    </contour>
    <contour>
      <point x="155" y="230" type="line"/>
      <point x="195" y="483" type="line"/>
      <point x="363" y="483" type="line"/>
      <point x="323" y="230" type="line"/>
    </contour>
  </outline>
</glyph>
<glyph name="ampersand" format="2">
  <advance width="553"/>
  <unicode hex="0026"/>
  <outline>
    <contour>
      <point x="227" y="-8" type="curve" smooth="yes"/>
      <point x="311" y="-8"/>
      <point x="375" y="31"/>
      <point x="418" y="106" type="curve"/>
      <point x="407" y="106" type="line"/>
      <point x="481" y="0" type="line"/>
      <point x="525" y="0" type="line"/>
      <point x="426" y="140" type="line"/>
      <point x="428" y="125" type="line"/>
      <point x="460" y="192"/>
      <point x="479" y="285"/>
      <point x="482" y="403" type="curve"/>
      <point x="446" y="403" type="line"/>
      <point x="444" y="296"/>
      <point x="430" y="213"/>
      <point x="405" y="152" type="curve"/>
      <point x="416" y="154" type="line"/>
      <point x="247" y="393" type="line"/>
      <point x="247" y="384" type="line"/>
      <point x="337" y="457"/>
      <point x="371" y="513"/>
      <point x="371" y="588" type="curve" smooth="yes"/>
      <point x="371" y="666"/>
      <point x="327" y="713"/>
      <point x="252" y="713" type="curve" smooth="yes"/>
      <point x="179" y="713"/>
      <point x="129" y="659"/>
      <point x="129" y="579" type="curve" smooth="yes"/>
      <point x="129" y="526"/>
      <point x="153" y="468"/>
      <point x="208" y="390" type="curve"/>
      <point x="210" y="395" type="line"/>
      <point x="199" y="386" type="line" smooth="yes"/>
      <point x="93" y="299"/>
      <point x="59" y="242"/>
      <point x="59" y="158" type="curve" smooth="yes"/>
      <point x="59" y="53"/>
      <point x="121" y="-8"/>
    </contour>
    <contour>
      <point x="229" y="24" type="curve" smooth="yes"/>
      <point x="143" y="24"/>
      <point x="95" y="73"/>
      <point x="95" y="159" type="curve" smooth="yes"/>
      <point x="95" y="230"/>
      <point x="123" y="280"/>
      <point x="215" y="358" type="curve" smooth="yes"/>
      <point x="231" y="371" type="line"/>
      <point x="222" y="370" type="line"/>
      <point x="399" y="117" type="line"/>
      <point x="398" y="136" type="line"/>
      <point x="362" y="61"/>
      <point x="307" y="24"/>
    </contour>
    <contour>
      <point x="253" y="681" type="curve" smooth="yes"/>
      <point x="304" y="681"/>
      <point x="335" y="645"/>
      <point x="335" y="584" type="curve" smooth="yes"/>
      <point x="335" y="518"/>
      <point x="309" y="475"/>
      <point x="229" y="410" type="curve"/>
      <point x="235" y="410" type="line"/>
      <point x="184" y="481"/>
      <point x="165" y="526"/>
      <point x="165" y="575" type="curve" smooth="yes"/>
      <point x="165" y="640"/>
      <point x="199" y="681"/>
    </contour>
  </outline>
</glyph>
<glyph name="parenleft" format="2">
  <advance width="243"/>
  <unicode hex="0028"/>
  <outline>
    <contour>
      <point x="178" y="-190" type="curve"/>
      <point x="209" y="-180" type="line"/>
      <point x="157" y="-37"/>
      <point x="130" y="113"/>
      <point x="130" y="263" type="curve" smooth="yes"/>
      <point x="130" y="413"/>
      <point x="157" y="563"/>
      <point x="209" y="706" type="curve"/>
      <point x="178" y="716" type="line"/>
      <point x="118" y="564"/>
      <point x="90" y="418"/>
      <point x="90" y="263" type="curve" smooth="yes"/>
      <point x="90" y="108"/>
      <point x="118" y="-38"/>
    </contour>
  </outline>
</glyph>
<glyph name="asterisk" format="2">
  <advance width="424"/>
  <unicode hex="002A"/>
  <outline>
    <contour>
      <point x="139" y="387" type="line"/>
      <point x="215" y="524" type="line"/>
      <point x="209" y="524" type="line"/>
      <point x="285" y="388" type="line"/>
      <point x="316" y="406" type="line"/>
      <point x="234" y="541" type="line"/>
      <point x="228" y="535" type="line"/>
      <point x="389" y="531" type="line"/>
      <point x="389" y="568" type="line"/>
      <point x="228" y="564" type="line"/>
      <point x="234" y="558" type="line"/>
      <point x="316" y="694" type="line"/>
      <point x="285" y="712" type="line"/>
      <point x="209" y="574" type="line"/>
      <point x="215" y="574" type="line"/>
      <point x="139" y="712" type="line"/>
      <point x="108" y="694" type="line"/>
      <point x="190" y="558" type="line"/>
      <point x="195" y="564" type="line"/>
      <point x="35" y="568" type="line"/>
      <point x="35" y="531" type="line"/>
      <point x="195" y="535" type="line"/>
      <point x="190" y="541" type="line"/>
      <point x="108" y="406" type="line"/>
    </contour>
  </outline>
</glyph>
<glyph name="hyphen" format="2">
  <advance width="350"/>
  <unicode hex="002D"/>
  <outline>
    <contour>
      <point x="67" y="248" type="line"/>
      <point x="283" y="248" type="line"/>
      <point x="283" y="282" type="line"/>
      <point x="67" y="282" type="line"/>
    </contour>
  </outline>
</glyph>
<glyph name="period" format="2">
  <advance width="185"/>
  <unicode hex="002E"/>
  <outline>
    <contour>
      <point x="62" y="0" type="line"/>
      <point x="123" y="0" type="line"/>
      <point x="123" y="63" type="line"/>
      <point x="62" y="63" type="line"/>
    </contour>
  </outline>
</glyph>
<glyph name="two" format="2">
  <advance width="498"/>
  <unicode hex="0032"/>
  <outline>
    <contour>
      <point x="85" y="0" type="line"/>
      <point x="437" y="0" type="line"/>
      <point x="437" y="34" type="line"/>
      <point x="123" y="34" type="line"/>
      <point x="123" y="21" type="line"/>
      <point x="311" y="279" type="line" smooth="yes"/>
      <point x="370" y="360"/>
      <point x="414" y="447"/>
      <point x="414" y="531" type="curve" smooth="yes"/>
      <point x="414" y="645"/>
      <point x="354" y="713"/>
      <point x="247" y="713" type="curve" smooth="yes"/>
      <point x="175" y="713"/>
      <point x="104" y="682"/>
      <point x="64" y="632" type="curve"/>
      <point x="82" y="601" type="line"/>
      <point x="128" y="652"/>
      <point x="180" y="677"/>
      <point x="242" y="677" type="curve" smooth="yes"/>
      <point x="330" y="677"/>
      <point x="373" y="627"/>
      <point x="373" y="532" type="curve" smooth="yes"/>
      <point x="373" y="454"/>
      <point x="335" y="375"/>
      <point x="286" y="307" type="curve" smooth="yes"/>
      <point x="85" y="28" type="line"/>
    </contour>
  </outline>
</glyph>
<glyph name="three" format="2">
  <advance width="498"/>
  <unicode hex="0033"/>
  <outline>
    <contour>
      <point x="232" y="-8" type="curve" smooth="yes"/>
      <point x="352" y="-8"/>
      <point x="428" y="69"/>
      <point x="428" y="188" type="curve" smooth="yes"/>
      <point x="428" y="285"/>
      <point x="382" y="350"/>
      <point x="301" y="368" type="curve"/>
      <point x="301" y="358" type="line"/>
      <point x="370" y="380"/>
      <point x="412" y="448"/>
      <point x="412" y="536" type="curve" smooth="yes"/>
      <point x="412" y="644"/>
      <point x="346" y="713"/>
      <point x="243" y="713" type="curve" smooth="yes"/>
      <point x="172" y="713"/>
      <point x="105" y="682"/>
      <point x="64" y="630" type="curve"/>
      <point x="82" y="597" type="line"/>
      <point x="129" y="651"/>
      <point x="178" y="676"/>
      <point x="237" y="676" type="curve" smooth="yes"/>
      <point x="325" y="676"/>
      <point x="372" y="628"/>
      <point x="372" y="537" type="curve" smooth="yes"/>
      <point x="372" y="438"/>
      <point x="319" y="376"/>
      <point x="235" y="376" type="curve" smooth="yes"/>
      <point x="161" y="376" type="line"/>
      <point x="161" y="341" type="line"/>
      <point x="237" y="341" type="line" smooth="yes"/>
      <point x="335" y="341"/>
      <point x="387" y="288"/>
      <point x="387" y="187" type="curve" smooth="yes"/>
      <point x="387" y="87"/>
      <point x="331" y="29"/>
      <point x="232" y="29" type="curve" smooth="yes"/>
      <point x="173" y="29"/>
      <point x="123" y="52"/>
      <point x="73" y="102" type="curve"/>
      <point x="55" y="70" type="line"/>
      <point x="100" y="20"/>
      <point x="163" y="-8"/>
    </contour>
  </outline>
</glyph>
<glyph name="four" format="2">
  <advance width="498"/>
  <unicode hex="0034"/>
  <outline>
    <contour>
      <point x="329" y="0" type="line"/>
      <point x="367" y="0" type="line"/>
      <point x="367" y="168" type="line"/>
      <point x="456" y="168" type="line"/>
      <point x="456" y="202" type="line"/>
      <point x="367" y="202" type="line"/>
      <point x="367" y="705" type="line"/>
      <point x="335" y="705" type="line"/>
      <point x="48" y="197" type="line"/>
      <point x="48" y="168" type="line"/>
      <point x="329" y="168" type="line"/>
    </contour>
    <contour>
      <point x="329" y="202" type="line"/>
      <point x="86" y="202" type="line"/>
      <point x="86" y="193" type="line"/>
      <point x="346" y="660" type="line"/>
      <point x="329" y="660" type="line"/>
    </contour>
  </outline>
</glyph>
<glyph name="five" format="2">
  <advance width="498"/>
  <unicode hex="0035"/>
  <outline>
    <contour>
      <point x="264" y="-8" type="curve" smooth="yes"/>
      <point x="383" y="-8"/>
      <point x="454" y="77"/>
      <point x="454" y="220" type="curve" smooth="yes"/>
      <point x="454" y="355"/>
      <point x="388" y="434"/>
      <point x="274" y="434" type="curve" smooth="yes"/>
      <point x="205" y="434"/>
      <point x="153" y="402"/>
      <point x="123" y="339" type="curve"/>
      <point x="135" y="339" type="line"/>
      <point x="135" y="670" type="line"/>
      <point x="415" y="670" type="line"/>
      <point x="415" y="705" type="line"/>
      <point x="97" y="705" type="line"/>
      <point x="97" y="301" type="line"/>
      <point x="130" y="301" type="line"/>
      <point x="162" y="369"/>
      <point x="205" y="398"/>
      <point x="266" y="398" type="curve" smooth="yes"/>
      <point x="362" y="398"/>
      <point x="415" y="333"/>
      <point x="415" y="216" type="curve" smooth="yes"/>
      <point x="415" y="95"/>
      <point x="361" y="29"/>
      <point x="261" y="29" type="curve" smooth="yes"/>
      <point x="200" y="29"/>
      <point x="149" y="52"/>
      <point x="97" y="102" type="curve"/>
      <point x="80" y="70" type="line"/>
      <point x="127" y="20"/>
      <point x="193" y="-8"/>
    </contour>
  </outline>
</glyph>
<glyph name="six" format="2">
  <advance width="498"/>
  <unicode hex="0036"/>
  <outline>
    <contour>
      <point x="261" y="-8" type="curve" smooth="yes"/>
      <point x="375" y="-8"/>
      <point x="444" y="77"/>
      <point x="444" y="215" type="curve" smooth="yes"/>
      <point x="444" y="349"/>
      <point x="378" y="433"/>
      <point x="271" y="433" type="curve" smooth="yes"/>
      <point x="165" y="433"/>
      <point x="100" y="352"/>
      <point x="98" y="226" type="curve"/>
      <point x="101" y="226" type="line"/>
      <point x="101" y="331" type="line" smooth="yes"/>
      <point x="101" y="559"/>
      <point x="164" y="676"/>
      <point x="284" y="676" type="curve" smooth="yes"/>
      <point x="339" y="676"/>
      <point x="386" y="650"/>
      <point x="425" y="599" type="curve"/>
      <point x="441" y="632" type="line"/>
      <point x="404" y="683"/>
      <point x="346" y="713"/>
      <point x="281" y="713" type="curve" smooth="yes"/>
      <point x="142" y="713"/>
      <point x="65" y="578"/>
      <point x="65" y="335" type="curve" smooth="yes"/>
      <point x="65" y="106"/>
      <point x="130" y="-8"/>
    </contour>
    <contour>
      <point x="264" y="29" type="curve" smooth="yes"/>
      <point x="176" y="29"/>
      <point x="124" y="97"/>
      <point x="124" y="212" type="curve" smooth="yes"/>
      <point x="124" y="327"/>
      <point x="178" y="396"/>
      <point x="266" y="396" type="curve" smooth="yes"/>
      <point x="353" y="396"/>
      <point x="404" y="329"/>
      <point x="404" y="214" type="curve" smooth="yes"/>
      <point x="404" y="97"/>
      <point x="352" y="29"/>
    </contour>
  </outline>
</glyph>
<glyph name="seven" format="2">
  <advance width="498"/>
  <unicode hex="0037"/>
  <outline>
    <contour>
      <point x="113" y="0" type="line"/>
      <point x="156" y="0" type="line"/>
      <point x="429" y="678" type="line"/>
      <point x="429" y="705" type="line"/>
      <point x="68" y="705" type="line"/>
      <point x="68" y="670" type="line"/>
      <point x="397" y="670" type="line"/>
      <point x="397" y="698" type="line"/>
    </contour>
  </outline>
</glyph>
<glyph name="colon" format="2">
  <advance width="185"/>
  <unicode hex="003A"/>
  <outline>
    <contour>
      <point x="62" y="420" type="line"/>
      <point x="123" y="420" type="line"/>
      <point x="123" y="484" type="line"/>
      <point x="62" y="484" type="line"/>
    </contour>
    <contour>
      <point x="62" y="0" type="line"/>
      <point x="123" y="0" type="line"/>
      <point x="123" y="64" type="line"/>
      <point x="62" y="64" type="line"/>
    </contour>
  </outline>
</glyph>
<glyph name="equal" format="2">
  <advance width="498"/>
  <unicode hex="003D"/>
  <outline>
    <contour>
      <point x="32" y="369" type="line"/>
      <point x="466" y="369" type="line"/>
      <point x="466" y="404" type="line"/>
      <point x="32" y="404" type="line"/>
    </contour>
    <contour>
      <point x="32" y="170" type="line"/>
      <point x="466" y="170" type="line"/>
      <point x="466" y="205" type="line"/>
      <point x="32" y="205" type="line"/>
    </contour>
  </outline>
</glyph>
<glyph name="greater" format="2">
  <advance width="498"/>
  <unicode hex="003E"/>
  <outline>
    <contour>
      <point x="32" y="47" type="line"/>
      <point x="466" y="271" type="line"/>
      <point x="466" y="303" type="line"/>
      <point x="32" y="527" type="line"/>
      <point x="32" y="485" type="line"/>
      <point x="441" y="277" type="line"/>
      <point x="441" y="297" type="line"/>
      <point x="32" y="89" type="line"/>
    </contour>
  </outline>
</glyph>
<glyph name="B" format="2">
  <advance width="553"/>
  <unicode hex="0042"/>
  <anchor x="279" y="0" name="bottom"/>
  <anchor x="279" y="705" name="top"/>
  <outline>
    <contour>
      <point x="83" y="0" type="line"/>
      <point x="298" y="0" type="line" smooth="yes"/>
      <point x="421" y="0"/>
      <point x="490" y="68"/>
      <point x="490" y="187" type="curve" smooth="yes"/>
      <point x="490" y="293"/>
      <point x="445" y="353"/>
      <point x="357" y="365" type="curve"/>
      <point x="357" y="351" type="line"/>
      <point x="437" y="372"/>
      <point x="477" y="430"/>
      <point x="477" y="525" type="curve" smooth="yes"/>
      <point x="477" y="640"/>
      <point x="409" y="705"/>
      <point x="288" y="705" type="curve" smooth="yes"/>
      <point x="83" y="705" type="line"/>
    </contour>
    <contour>
      <point x="121" y="35" type="line"/>
      <point x="121" y="339" type="line"/>
      <point x="300" y="339" type="line" smooth="yes"/>
      <point x="404" y="339"/>
      <point x="450" y="293"/>
      <point x="450" y="187" type="curve" smooth="yes"/>
      <point x="450" y="84"/>
      <point x="400" y="35"/>
      <point x="296" y="35" type="curve" smooth="yes"/>
    </contour>
    <contour>
      <point x="121" y="374" type="line"/>
      <point x="121" y="670" type="line"/>
      <point x="285" y="670" type="line" smooth="yes"/>
      <point x="386" y="670"/>
      <point x="437" y="621"/>
      <point x="437" y="525" type="curve" smooth="yes"/>
      <point x="437" y="429"/>
      <point x="383" y="374"/>
      <point x="288" y="374" type="curve" smooth="yes"/>
    </contour>
  </outline>
</glyph>
<glyph name="D" format="2">
  <advance width="601"/>
  <unicode hex="0044"/>
  <anchor x="301" y="0" name="bottom"/>
  <anchor x="147" y="358" name="center"/>
  <anchor x="301" y="705" name="top"/>
  <outline>
    <contour>
      <point x="83" y="0" type="line"/>
      <point x="269" y="0" type="line" smooth="yes"/>
      <point x="451" y="0"/>
      <point x="541" y="117"/>
      <point x="541" y="353" type="curve" smooth="yes"/>
      <point x="541" y="589"/>
      <point x="451" y="705"/>
      <point x="269" y="705" type="curve" smooth="yes"/>
      <point x="83" y="705" type="line"/>
    </contour>
    <contour>
      <point x="121" y="35" type="line"/>
      <point x="121" y="670" type="line"/>
      <point x="265" y="670" type="line" smooth="yes"/>
      <point x="429" y="670"/>
      <point x="501" y="573"/>
      <point x="501" y="353" type="curve" smooth="yes"/>
      <point x="501" y="133"/>
      <point x="429" y="35"/>
      <point x="265" y="35" type="curve" smooth="yes"/>
    </contour>
  </outline>
</glyph>
<glyph name="E" format="2">
  <advance width="475"/>
  <unicode hex="0045"/>
  <anchor x="266" y="0" name="bottom"/>
  <anchor x="404" y="0" name="ogonek"/>
  <anchor x="266" y="705" name="top"/>
  <anchor x="28" y="705" name="topleft"/>
  <outline>
    <contour>
      <point x="83" y="0" type="line"/>
      <point x="428" y="0" type="line"/>
      <point x="428" y="35" type="line"/>
      <point x="121" y="35" type="line"/>
      <point x="121" y="340" type="line"/>
      <point x="404" y="340" type="line"/>
      <point x="404" y="375" type="line"/>
      <point x="121" y="375" type="line"/>
      <point x="121" y="670" type="line"/>
      <point x="428" y="670" type="line"/>
      <point x="428" y="705" type="line"/>
      <point x="83" y="705" type="line"/>
    </contour>
  </outline>
</glyph>
<glyph name="G" format="2">
  <advance width="594"/>
  <unicode hex="0047"/>
  <anchor x="323" y="0" name="bottom"/>
  <anchor x="317" y="705" name="top"/>
  <outline>
    <contour>
      <point x="328" y="-8" type="curve" smooth="yes"/>
      <point x="396" y="-8"/>
      <point x="474" y="10"/>
      <point x="516" y="34" type="curve"/>
      <point x="516" y="353" type="line"/>
      <point x="325" y="353" type="line"/>
      <point x="325" y="318" type="line"/>
      <point x="478" y="318" type="line"/>
      <point x="478" y="32" type="line"/>
      <point x="493" y="62" type="line"/>
      <point x="443" y="40"/>
      <point x="388" y="28"/>
      <point x="332" y="28" type="curve" smooth="yes"/>
      <point x="171" y="28"/>
      <point x="100" y="127"/>
      <point x="100" y="351" type="curve" smooth="yes"/>
      <point x="100" y="572"/>
      <point x="170" y="677"/>
      <point x="319" y="677" type="curve" smooth="yes"/>
      <point x="389" y="677"/>
      <point x="444" y="653"/>
      <point x="495" y="600" type="curve"/>
      <point x="513" y="630" type="line"/>
      <point x="464" y="685"/>
      <point x="397" y="713"/>
      <point x="317" y="713" type="curve" smooth="yes"/>
      <point x="149" y="713"/>
      <point x="60" y="588"/>
      <point x="60" y="351" type="curve" smooth="yes"/>
      <point x="60" y="112"/>
      <point x="149" y="-8"/>
    </contour>
  </outline>
</glyph>
<glyph name="J" format="2">
  <advance width="255"/>
  <unicode hex="004A"/>
  <anchor x="153" y="0" name="bottom"/>
  <anchor x="153" y="705" name="top"/>
  <outline>
    <contour>
      <point x="1" y="-6" type="line"/>
      <point x="43" y="-2" type="line" smooth="yes"/>
      <point x="131" y="6"/>
      <point x="172" y="59"/>
      <point x="172" y="159" type="curve" smooth="yes"/>
      <point x="172" y="705" type="line"/>
      <point x="134" y="705" type="line"/>
      <point x="134" y="162" type="line" smooth="yes"/>
      <point x="134" y="82"/>
      <point x="103" y="38"/>
      <point x="39" y="32" type="curve" smooth="yes"/>
      <point x="-3" y="28" type="line"/>
    </contour>
  </outline>
</glyph>
<glyph name="K" format="2">
  <advance width="493"/>
  <unicode hex="004B"/>
  <anchor x="252" y="0" name="bottom"/>
  <anchor x="252" y="705" name="top"/>
  <anchor x="28" y="705" name="topleft"/>
  <outline>
    <contour>
      <point x="83" y="0" type="line"/>
      <point x="121" y="0" type="line"/>
      <point x="121" y="339" type="line"/>
      <point x="123" y="339" type="line"/>
      <point x="438" y="0" type="line"/>
      <point x="492" y="0" type="line"/>
      <point x="142" y="373" type="line"/>
      <point x="141" y="342" type="line"/>
      <point x="471" y="705" type="line"/>
      <point x="421" y="705" type="line"/>
      <point x="123" y="376" type="line"/>
      <point x="121" y="376" type="line"/>
      <point x="121" y="705" type="line"/>
      <point x="83" y="705" type="line"/>
    </contour>
  </outline>
</glyph>
<glyph name="L" format="2">
  <advance width="441"/>
  <unicode hex="004C"/>
  <anchor x="253" y="0" name="bottom"/>
  <anchor x="138" y="387" name="center"/>
  <anchor x="319" y="385" name="dot"/>
  <anchor x="102" y="705" name="top"/>
  <anchor x="219" y="705" name="topright"/>
  <outline>
    <contour>
      <point x="83" y="0" type="line"/>
      <point x="424" y="0" type="line"/>
      <point x="424" y="35" type="line"/>
      <point x="121" y="35" type="line"/>
      <point x="121" y="705" type="line"/>
      <point x="83" y="705" type="line"/>
    </contour>
  </outline>
</glyph>
<glyph name="M" format="2">
  <advance width="698"/>
  <unicode hex="004D"/>
  <anchor x="349" y="0" name="bottom"/>
  <anchor x="349" y="705" name="top"/>
  <outline>
    <contour>
      <point x="85" y="0" type="line"/>
      <point x="121" y="0" type="line"/>
      <point x="121" y="654" type="line"/>
      <point x="104" y="654" type="line"/>
      <point x="335" y="110" type="line"/>
      <point x="363" y="110" type="line"/>
      <point x="594" y="653" type="line"/>
      <point x="577" y="653" type="line"/>
      <point x="577" y="0" type="line"/>
      <point x="613" y="0" type="line"/>
      <point x="613" y="705" type="line"/>
      <point x="580" y="705" type="line"/>
      <point x="341" y="139" type="line"/>
      <point x="360" y="139" type="line"/>
      <point x="119" y="705" type="line"/>
      <point x="85" y="705" type="line"/>
    </contour>
  </outline>
</glyph>
<glyph name="P" format="2">
  <advance width="513"/>
  <unicode hex="0050"/>
  <anchor x="263" y="0" name="bottom"/>
  <anchor x="263" y="705" name="top"/>
  <outline>
    <contour>
      <point x="83" y="0" type="line"/>
      <point x="121" y="0" type="line"/>
      <point x="121" y="299" type="line"/>
      <point x="287" y="299" type="line" smooth="yes"/>
      <point x="408" y="299"/>
      <point x="478" y="373"/>
      <point x="478" y="502" type="curve" smooth="yes"/>
      <point x="478" y="631"/>
      <point x="409" y="705"/>
      <point x="287" y="705" type="curve" smooth="yes"/>
      <point x="83" y="705" type="line"/>
    </contour>
    <contour>
      <point x="121" y="334" type="line"/>
      <point x="121" y="670" type="line"/>
      <point x="285" y="670" type="line" smooth="yes"/>
      <point x="385" y="670"/>
      <point x="438" y="611"/>
      <point x="438" y="502" type="curve" smooth="yes"/>
      <point x="438" y="393"/>
      <point x="385" y="334"/>
      <point x="285" y="334" type="curve" smooth="yes"/>
    </contour>
  </outline>
</glyph>
<glyph name="R" format="2">
  <advance width="543"/>
  <unicode hex="0052"/>
  <anchor x="277" y="0" name="bottom"/>
  <anchor x="277" y="705" name="top"/>
  <outline>
    <contour>
      <point x="83" y="0" type="line"/>
      <point x="121" y="0" type="line"/>
      <point x="121" y="314" type="line"/>
      <point x="241" y="314" type="line" smooth="yes"/>
      <point x="308" y="314"/>
      <point x="340" y="292"/>
      <point x="369" y="226" type="curve" smooth="yes"/>
      <point x="467" y="0" type="line"/>
      <point x="509" y="0" type="line"/>
      <point x="403" y="244" type="line" smooth="yes"/>
      <point x="378" y="302"/>
      <point x="346" y="329"/>
      <point x="304" y="329" type="curve" smooth="yes"/>
      <point x="297" y="329" type="line"/>
      <point x="292" y="317" type="line"/>
      <point x="408" y="317"/>
      <point x="478" y="390"/>
      <point x="478" y="511" type="curve" smooth="yes"/>
      <point x="478" y="635"/>
      <point x="409" y="705"/>
      <point x="288" y="705" type="curve" smooth="yes"/>
      <point x="83" y="705" type="line"/>
    </contour>
    <contour>
      <point x="121" y="349" type="line"/>
      <point x="121" y="670" type="line"/>
      <point x="284" y="670" type="line" smooth="yes"/>
      <point x="384" y="670"/>
      <point x="438" y="615"/>
      <point x="438" y="512" type="curve" smooth="yes"/>
      <point x="438" y="407"/>
      <point x="383" y="349"/>
      <point x="284" y="349" type="curve" smooth="yes"/>
    </contour>
  </outline>
</glyph>
<glyph name="S" format="2">
  <advance width="499"/>
  <unicode hex="0053"/>
  <anchor x="258" y="0" name="bottom"/>
  <anchor x="253" y="705" name="top"/>
  <outline>
    <contour>
      <point x="252" y="-8" type="curve" smooth="yes"/>
      <point x="380" y="-8"/>
      <point x="458" y="60"/>
      <point x="458" y="171" type="curve" smooth="yes"/>
      <point x="458" y="261"/>
      <point x="407" y="317"/>
      <point x="296" y="349" type="curve" smooth="yes"/>
      <point x="214" y="373" type="line" smooth="yes"/>
      <point x="138" y="395"/>
      <point x="100" y="445"/>
      <point x="100" y="520" type="curve" smooth="yes"/>
      <point x="100" y="618"/>
      <point x="161" y="676"/>
      <point x="262" y="676" type="curve" smooth="yes"/>
      <point x="327" y="676"/>
      <point x="379" y="652"/>
      <point x="428" y="599" type="curve"/>
      <point x="444" y="631" type="line"/>
      <point x="399" y="684"/>
      <point x="334" y="713"/>
      <point x="260" y="713" type="curve" smooth="yes"/>
      <point x="138" y="713"/>
      <point x="60" y="637"/>
      <point x="60" y="518" type="curve" smooth="yes"/>
      <point x="60" y="422"/>
      <point x="110" y="365"/>
      <point x="211" y="335" type="curve" smooth="yes"/>
      <point x="292" y="311" type="line" smooth="yes"/>
      <point x="380" y="285"/>
      <point x="418" y="243"/>
      <point x="418" y="170" type="curve" smooth="yes"/>
      <point x="418" y="78"/>
      <point x="361" y="29"/>
      <point x="254" y="29" type="curve" smooth="yes"/>
      <point x="177" y="29"/>
      <point x="120" y="51"/>
      <point x="64" y="102" type="curve"/>
      <point x="48" y="70" type="line"/>
      <point x="98" y="20"/>
      <point x="172" y="-8"/>
    </contour>
  </outline>
</glyph>
<glyph name="U" format="2">
  <advance width="596"/>
  <unicode hex="0055"/>
  <anchor x="298" y="0" name="bottom"/>
  <anchor x="344" y="0" name="ogonek"/>
  <anchor x="298" y="705" name="top"/>
  <anchor x="481" y="705" name="topright"/>
  <outline>
    <contour>
      <point x="298" y="-8" type="curve" smooth="yes"/>
      <point x="446" y="-8"/>
      <point x="517" y="74"/>
      <point x="517" y="248" type="curve" smooth="yes"/>
      <point x="517" y="705" type="line"/>
      <point x="479" y="705" type="line"/>
      <point x="479" y="254" type="line" smooth="yes"/>
      <point x="479" y="96"/>
      <point x="424" y="28"/>
      <point x="298" y="28" type="curve" smooth="yes"/>
      <point x="172" y="28"/>
      <point x="117" y="96"/>
      <point x="117" y="254" type="curve" smooth="yes"/>
      <point x="117" y="705" type="line"/>
      <point x="79" y="705" type="line"/>
      <point x="79" y="248" type="line" smooth="yes"/>
      <point x="79" y="74"/>
      <point x="150" y="-8"/>
    </contour>
  </outline>
</glyph>
<glyph name="Y" format="2">
  <advance width="480"/>
  <unicode hex="0059"/>
  <anchor x="240" y="0" name="bottom"/>
  <anchor x="240" y="705" name="top"/>
  <anchor x="20" y="705" name="topleft"/>
  <outline>
    <contour>
      <point x="221" y="0" type="line"/>
      <point x="259" y="0" type="line"/>
      <point x="259" y="367" type="line"/>
      <point x="249" y="331" type="line"/>
      <point x="477" y="705" type="line"/>
      <point x="437" y="705" type="line"/>
      <point x="235" y="367" type="line"/>
      <point x="247" y="367" type="line"/>
      <point x="45" y="705" type="line"/>
      <point x="3" y="705" type="line"/>
      <point x="231" y="331" type="line"/>
      <point x="221" y="367" type="line"/>
    </contour>
  </outline>
</glyph>
<glyph name="bracketleft" format="2">
  <advance width="243"/>
  <unicode hex="005B"/>
  <outline>
    <contour>
      <point x="96" y="-180" type="line"/>
      <point x="233" y="-180" type="line"/>
      <point x="233" y="-147" type="line"/>
      <point x="134" y="-147" type="line"/>
      <point x="134" y="672" type="line"/>
      <point x="233" y="672" type="line"/>
      <point x="233" y="705" type="line"/>
      <point x="96" y="705" type="line"/>
    </contour>
  </outline>
</glyph>
<glyph name="bracketright" format="2">
  <advance width="243"/>
  <unicode hex="005D"/>
  <outline>
    <contour>
      <point x="10" y="-180" type="line"/>
      <point x="147" y="-180" type="line"/>
      <point x="147" y="705" type="line"/>
      <point x="10" y="705" type="line"/>
      <point x="10" y="672" type="line"/>
      <point x="109" y="672" type="line"/>
      <point x="109" y="-147" type="line"/>
      <point x="10" y="-147" type="line"/>
    </contour>
  </outline>
</glyph>
<glyph name="e" format="2">
  <advance width="437"/>
  <unicode hex="0065"/>
  <anchor x="231" y="0" name="bottom"/>
  <anchor x="300" y="0" name="ogonek"/>
  <anchor x="231" y="484" name="top"/>
  <outline>
    <contour>
      <point x="241" y="-8" type="curve" smooth="yes"/>
      <point x="298" y="-8"/>
      <point x="351" y="13"/>
      <point x="388" y="52" type="curve"/>
      <point x="367" y="82" type="line"/>
      <point x="330" y="43"/>
      <point x="287" y="28"/>
      <point x="241" y="28" type="curve" smooth="yes"/>
      <point x="145" y="28"/>
      <point x="87" y="88"/>
      <point x="87" y="239" type="curve" smooth="yes"/>
      <point x="87" y="244" type="line" smooth="yes"/>
      <point x="87" y="383"/>
      <point x="142" y="457"/>
      <point x="231" y="457" type="curve" smooth="yes"/>
      <point x="317" y="457"/>
      <point x="358" y="399"/>
      <point x="358" y="258" type="curve"/>
      <point x="371" y="270" type="line"/>
      <point x="74" y="270" type="line"/>
      <point x="74" y="236" type="line"/>
      <point x="393" y="236" type="line"/>
      <point x="393" y="264" type="line" smooth="yes"/>
      <point x="393" y="414"/>
      <point x="338" y="492"/>
      <point x="232" y="492" type="curve" smooth="yes"/>
      <point x="119" y="492"/>
      <point x="48" y="397"/>
      <point x="48" y="240" type="curve" smooth="yes"/>
      <point x="48" y="66"/>
      <point x="125" y="-8"/>
    </contour>
  </outline>
</glyph>
<glyph name="f" format="2">
  <advance width="263"/>
  <unicode hex="0066"/>
  <anchor x="110" y="0" name="bottom"/>
  <anchor x="110" y="705" name="top"/>
  <outline>
    <contour>
      <point x="91" y="0" type="line"/>
      <point x="129" y="0" type="line"/>
      <point x="129" y="452" type="line"/>
      <point x="246" y="452" type="line"/>
      <point x="246" y="484" type="line"/>
      <point x="119" y="484" type="line"/>
      <point x="129" y="474" type="line"/>
      <point x="129" y="531" type="line" smooth="yes"/>
      <point x="129" y="625"/>
      <point x="157" y="665"/>
      <point x="228" y="671" type="curve" smooth="yes"/>
      <point x="265" y="674" type="line"/>
      <point x="261" y="707" type="line"/>
      <point x="235" y="705" type="line" smooth="yes"/>
      <point x="132" y="697"/>
      <point x="91" y="646"/>
      <point x="91" y="531" type="curve" smooth="yes"/>
      <point x="91" y="474" type="line"/>
      <point x="101" y="484" type="line"/>
      <point x="13" y="484" type="line"/>
      <point x="13" y="452" type="line"/>
      <point x="91" y="452" type="line"/>
    </contour>
  </outline>
</glyph>
<glyph name="j" format="2">
  <advance width="188"/>
  <unicode hex="006A"/>
  <outline>
    <contour>
      <point x="67" y="621" type="line"/>
      <point x="122" y="621" type="line"/>
      <point x="122" y="680" type="line"/>
      <point x="67" y="680" type="line"/>
    </contour>
    <contour>
      <point x="-38" y="-193" type="line"/>
      <point x="-3" y="-190" type="line" smooth="yes"/>
      <point x="78" y="-183"/>
      <point x="114" y="-135"/>
      <point x="114" y="-40" type="curve" smooth="yes"/>
      <point x="114" y="484" type="line"/>
      <point x="76" y="484" type="line"/>
      <point x="76" y="-40" type="line" smooth="yes"/>
      <point x="76" y="-125"/>
      <point x="45" y="-151"/>
      <point x="-7" y="-156" type="curve" smooth="yes"/>
      <point x="-41" y="-159" type="line"/>
    </contour>
  </outline>
</glyph>
<glyph name="k" format="2">
  <advance width="388"/>
  <unicode hex="006B"/>
  <anchor x="197" y="0" name="bottom"/>
  <anchor x="232" y="705" name="top"/>
  <outline>
    <contour>
      <point x="74" y="0" type="line"/>
      <point x="112" y="0" type="line"/>
      <point x="112" y="238" type="line"/>
      <point x="114" y="238" type="line"/>
      <point x="334" y="0" type="line"/>
      <point x="388" y="0" type="line"/>
      <point x="139" y="268" type="line"/>
      <point x="139" y="233" type="line"/>
      <point x="368" y="484" type="line"/>
      <point x="316" y="484" type="line"/>
      <point x="114" y="259" type="line"/>
      <point x="112" y="259" type="line"/>
      <point x="112" y="705" type="line"/>
      <point x="74" y="705" type="line"/>
    </contour>
  </outline>
</glyph>
<glyph name="l" format="2">
  <advance width="237"/>
  <unicode hex="006C"/>
  <anchor x="153" y="0" name="bottom"/>
  <anchor x="103" y="357" name="center"/>
  <anchor x="210" y="357" name="dot"/>
  <anchor x="93" y="705" name="top"/>
  <anchor x="152" y="705" name="topright"/>
  <outline>
    <contour>
      <point x="183" y="-8" type="curve" smooth="yes"/>
      <point x="192" y="-8"/>
      <point x="202" y="-7"/>
      <point x="223" y="-3" type="curve"/>
      <point x="225" y="32" type="line"/>
      <point x="218" y="29"/>
      <point x="201" y="27"/>
      <point x="187" y="27" type="curve" smooth="yes"/>
      <point x="122" y="27"/>
      <point x="112" y="76"/>
      <point x="112" y="130" type="curve" smooth="yes"/>
      <point x="112" y="705" type="line"/>
      <point x="74" y="705" type="line"/>
      <point x="74" y="128" type="line" smooth="yes"/>
      <point x="74" y="36"/>
      <point x="110" y="-8"/>
    </contour>
  </outline>
</glyph>
<glyph name="o" format="2">
  <advance width="450"/>
  <unicode hex="006F"/>
  <anchor x="225" y="0" name="bottom"/>
  <anchor x="225" y="242" name="center"/>
  <anchor x="260" y="0" name="ogonek"/>
  <anchor x="225" y="484" name="top"/>
  <anchor x="263" y="484" name="topright"/>
  <outline>
    <contour>
      <point x="225" y="-8" type="curve" smooth="yes"/>
      <point x="335" y="-8"/>
      <point x="402" y="74"/>
      <point x="402" y="242" type="curve" smooth="yes"/>
      <point x="402" y="410"/>
      <point x="335" y="492"/>
      <point x="225" y="492" type="curve" smooth="yes"/>
      <point x="115" y="492"/>
      <point x="48" y="410"/>
      <point x="48" y="242" type="curve" smooth="yes"/>
      <point x="48" y="74"/>
      <point x="115" y="-8"/>
    </contour>
    <contour>
      <point x="225" y="28" type="curve" smooth="yes"/>
      <point x="139" y="28"/>
      <point x="87" y="91"/>
      <point x="87" y="242" type="curve" smooth="yes"/>
      <point x="87" y="393"/>
      <point x="139" y="456"/>
      <point x="225" y="456" type="curve" smooth="yes"/>
      <point x="311" y="456"/>
      <point x="363" y="393"/>
      <point x="363" y="242" type="curve" smooth="yes"/>
      <point x="363" y="91"/>
      <point x="311" y="28"/>
    </contour>
  </outline>
</glyph>
<glyph name="p" format="2">
  <advance width="474"/>
  <unicode hex="0070"/>
  <anchor x="240" y="0" name="bottom"/>
  <anchor x="240" y="484" name="top"/>
  <outline>
    <contour>
      <point x="74" y="-180" type="line"/>
      <point x="112" y="-180" type="line"/>
      <point x="112" y="121" type="line"/>
      <point x="103" y="121" type="line"/>
      <point x="121" y="36"/>
      <point x="172" y="-8"/>
      <point x="251" y="-8" type="curve" smooth="yes"/>
      <point x="362" y="-8"/>
      <point x="426" y="83"/>
      <point x="426" y="242" type="curve" smooth="yes"/>
      <point x="426" y="401"/>
      <point x="362" y="492"/>
      <point x="251" y="492" type="curve" smooth="yes"/>
      <point x="172" y="492"/>
      <point x="121" y="448"/>
      <point x="103" y="363" type="curve"/>
      <point x="112" y="363" type="line"/>
      <point x="112" y="484" type="line"/>
      <point x="74" y="484" type="line"/>
    </contour>
    <contour>
      <point x="249" y="28" type="curve" smooth="yes"/>
      <point x="158" y="28"/>
      <point x="111" y="101"/>
      <point x="111" y="242" type="curve" smooth="yes"/>
      <point x="111" y="383"/>
      <point x="158" y="456"/>
      <point x="249" y="456" type="curve" smooth="yes"/>
      <point x="340" y="456"/>
      <point x="387" y="383"/>
      <point x="387" y="242" type="curve" smooth="yes"/>
      <point x="387" y="101"/>
      <point x="340" y="28"/>
    </contour>
  </outline>
</glyph>
<glyph name="r" format="2">
  <advance width="280"/>
  <unicode hex="0072"/>
  <anchor x="93" y="0" name="bottom"/>
  <anchor x="172" y="484" name="top"/>
  <outline>
    <contour>
      <point x="74" y="0" type="line"/>
      <point x="112" y="0" type="line"/>
      <point x="112" y="300" type="line" smooth="yes"/>
      <point x="112" y="392"/>
      <point x="158" y="451"/>
      <point x="237" y="459" type="curve" smooth="yes"/>
      <point x="267" y="462" type="line"/>
      <point x="263" y="496" type="line"/>
      <point x="245" y="494" type="line" smooth="yes"/>
      <point x="163" y="485"/>
      <point x="123" y="450"/>
      <point x="103" y="379" type="curve"/>
      <point x="111" y="379" type="line"/>
      <point x="111" y="484" type="line"/>
      <point x="74" y="484" type="line"/>
    </contour>
  </outline>
</glyph>
<glyph name="s" format="2">
  <advance width="397"/>
  <unicode hex="0073"/>
  <anchor x="198" y="0" name="bottom"/>
  <anchor x="206" y="484" name="top"/>
  <outline>
    <contour>
      <point x="203" y="-8" type="curve" smooth="yes"/>
      <point x="291" y="-8"/>
      <point x="347" y="45"/>
      <point x="347" y="123" type="curve" smooth="yes"/>
      <point x="347" y="185"/>
      <point x="313" y="230"/>
      <point x="238" y="249" type="curve" smooth="yes"/>
      <point x="174" y="265" type="line" smooth="yes"/>
      <point x="125" y="277"/>
      <point x="104" y="309"/>
      <point x="104" y="354" type="curve" smooth="yes"/>
      <point x="104" y="419"/>
      <point x="146" y="456"/>
      <point x="210" y="456" type="curve" smooth="yes"/>
      <point x="249" y="456"/>
      <point x="285" y="441"/>
      <point x="321" y="404" type="curve"/>
      <point x="341" y="434" type="line"/>
      <point x="307" y="472"/>
      <point x="259" y="492"/>
      <point x="209" y="492" type="curve" smooth="yes"/>
      <point x="124" y="492"/>
      <point x="65" y="437"/>
      <point x="65" y="352" type="curve" smooth="yes"/>
      <point x="65" y="290"/>
      <point x="100" y="245"/>
      <point x="168" y="228" type="curve" smooth="yes"/>
      <point x="232" y="212" type="line" smooth="yes"/>
      <point x="281" y="200"/>
      <point x="308" y="170"/>
      <point x="308" y="120" type="curve" smooth="yes"/>
      <point x="308" y="62"/>
      <point x="269" y="28"/>
      <point x="205" y="28" type="curve" smooth="yes"/>
      <point x="154" y="28"/>
      <point x="114" y="41"/>
      <point x="69" y="78" type="curve"/>
      <point x="50" y="47" type="line"/>
      <point x="89" y="12"/>
      <point x="142" y="-8"/>
    </contour>
  </outline>
</glyph>
<glyph name="t" format="2">
  <advance width="274"/>
  <unicode hex="0074"/>
  <anchor x="172" y="0" name="bottom"/>
  <anchor x="130" y="273" name="center"/>
  <anchor x="108" y="635" name="top"/>
  <anchor x="191" y="705" name="topright"/>
  <outline>
    <contour>
      <point x="214" y="-8" type="curve" smooth="yes"/>
      <point x="236" y="-8"/>
      <point x="266" y="0"/>
      <point x="276" y="7" type="curve"/>
      <point x="267" y="38" type="line"/>
      <point x="254" y="33"/>
      <point x="236" y="27"/>
      <point x="217" y="27" type="curve" smooth="yes"/>
      <point x="153" y="27"/>
      <point x="127" y="59"/>
      <point x="127" y="147" type="curve" smooth="yes"/>
      <point x="127" y="452" type="line"/>
      <point x="255" y="452" type="line"/>
      <point x="255" y="484" type="line"/>
      <point x="127" y="484" type="line"/>
      <point x="127" y="635" type="line"/>
      <point x="89" y="635" type="line"/>
      <point x="89" y="484" type="line"/>
      <point x="11" y="484" type="line"/>
      <point x="11" y="452" type="line"/>
      <point x="89" y="452" type="line"/>
      <point x="89" y="138" type="line" smooth="yes"/>
      <point x="89" y="36"/>
      <point x="131" y="-8"/>
    </contour>
  </outline>
</glyph>
<glyph name="x" format="2">
  <advance width="424"/>
  <unicode hex="0078"/>
  <anchor x="212" y="0" name="bottom"/>
  <anchor x="212" y="484" name="top"/>
  <outline>
    <contour>
      <point x="28" y="0" type="line"/>
      <point x="74" y="0" type="line"/>
      <point x="219" y="229" type="line"/>
      <point x="205" y="229" type="line"/>
      <point x="349" y="0" type="line"/>
      <point x="397" y="0" type="line"/>
      <point x="228" y="258" type="line"/>
      <point x="228" y="241" type="line"/>
      <point x="389" y="484" type="line"/>
      <point x="343" y="484" type="line"/>
      <point x="206" y="267" type="line"/>
      <point x="222" y="267" type="line"/>
      <point x="84" y="484" type="line"/>
      <point x="36" y="484" type="line"/>
      <point x="198" y="238" type="line"/>
      <point x="198" y="262" type="line"/>
    </contour>
  </outline>
</glyph>
<glyph name="braceleft" format="2">
  <advance width="273"/>
  <unicode hex="007B"/>
  <outline>
    <contour>
      <point x="197" y="-180" type="curve" smooth="yes"/>
      <point x="263" y="-180" type="line"/>
      <point x="263" y="-147" type="line"/>
      <point x="203" y="-147" type="line" smooth="yes"/>
      <point x="178" y="-147"/>
      <point x="164" y="-130"/>
      <point x="164" y="-99" type="curve" smooth="yes"/>
      <point x="164" y="166" type="line" smooth="yes"/>
      <point x="164" y="225"/>
      <point x="136" y="265"/>
      <point x="94" y="265" type="curve"/>
      <point x="94" y="261" type="line"/>
      <point x="136" y="261"/>
      <point x="164" y="301"/>
      <point x="164" y="360" type="curve" smooth="yes"/>
      <point x="164" y="624" type="line" smooth="yes"/>
      <point x="164" y="655"/>
      <point x="178" y="672"/>
      <point x="203" y="672" type="curve" smooth="yes"/>
      <point x="263" y="672" type="line"/>
      <point x="263" y="705" type="line"/>
      <point x="197" y="705" type="line" smooth="yes"/>
      <point x="152" y="705"/>
      <point x="126" y="675"/>
      <point x="126" y="621" type="curve" smooth="yes"/>
      <point x="126" y="362" type="line" smooth="yes"/>
      <point x="126" y="306"/>
      <point x="110" y="283"/>
      <point x="65" y="280" type="curve" smooth="yes"/>
      <point x="49" y="279" type="line"/>
      <point x="49" y="247" type="line"/>
      <point x="65" y="246" type="line" smooth="yes"/>
      <point x="110" y="243"/>
      <point x="126" y="220"/>
      <point x="126" y="164" type="curve" smooth="yes"/>
      <point x="126" y="-96" type="line" smooth="yes"/>
      <point x="126" y="-150"/>
      <point x="152" y="-180"/>
    </contour>
  </outline>
</glyph>
<glyph name="braceright" format="2">
  <advance width="273"/>
  <unicode hex="007D"/>
  <outline>
    <contour>
      <point x="10" y="-180" type="line"/>
      <point x="76" y="-180" type="line" smooth="yes"/>
      <point x="121" y="-180"/>
      <point x="147" y="-150"/>
      <point x="147" y="-96" type="curve" smooth="yes"/>
      <point x="147" y="164" type="line" smooth="yes"/>
      <point x="147" y="220"/>
      <point x="163" y="243"/>
      <point x="208" y="246" type="curve" smooth="yes"/>
      <point x="224" y="247" type="line"/>
      <point x="224" y="279" type="line"/>
      <point x="208" y="280" type="line" smooth="yes"/>
      <point x="163" y="283"/>
      <point x="147" y="306"/>
      <point x="147" y="362" type="curve" smooth="yes"/>
      <point x="147" y="621" type="line" smooth="yes"/>
      <point x="147" y="675"/>
      <point x="121" y="705"/>
      <point x="76" y="705" type="curve" smooth="yes"/>
      <point x="10" y="705" type="line"/>
      <point x="10" y="672" type="line"/>
      <point x="70" y="672" type="line" smooth="yes"/>
      <point x="95" y="672"/>
      <point x="109" y="655"/>
      <point x="109" y="624" type="curve" smooth="yes"/>
      <point x="109" y="360" type="line" smooth="yes"/>
      <point x="109" y="301"/>
      <point x="137" y="261"/>
      <point x="179" y="261" type="curve"/>
      <point x="179" y="265" type="line"/>
      <point x="137" y="265"/>
      <point x="109" y="225"/>
      <point x="109" y="166" type="curve" smooth="yes"/>
      <point x="109" y="-99" type="line" smooth="yes"/>
      <point x="109" y="-130"/>
      <point x="95" y="-147"/>
      <point x="70" y="-147" type="curve" smooth="yes"/>
      <point x="10" y="-147" type="line"/>
    </contour>
  </outline>
</glyph>
<glyph name="sterling" format="2">
  <advance width="498"/>
  <unicode hex="00A3"/>
  <outline>
    <contour>
      <point x="41" y="0" type="line"/>
      <point x="442" y="0" type="line"/>
      <point x="442" y="35" type="line"/>
      <point x="168" y="35" type="line"/>
      <point x="168" y="336" type="line"/>
      <point x="322" y="336" type="line"/>
      <point x="322" y="369" type="line"/>
      <point x="168" y="369" type="line"/>
      <point x="168" y="538" type="line"/>
      <point x="168" y="637"/>
      <point x="208" y="677"/>
      <point x="287" y="677" type="curve" smooth="yes"/>
      <point x="349" y="677"/>
      <point x="395" y="656"/>
      <point x="434" y="609" type="curve"/>
      <point x="453" y="641" type="line"/>
      <point x="414" y="687"/>
      <point x="352" y="713"/>
      <point x="292" y="713" type="curve" smooth="yes"/>
      <point x="184" y="713"/>
      <point x="130" y="659"/>
      <point x="130" y="536" type="curve"/>
      <point x="130" y="369" type="line"/>
      <point x="41" y="369" type="line"/>
      <point x="41" y="336" type="line"/>
      <point x="130" y="336" type="line"/>
      <point x="130" y="35" type="line"/>
      <point x="41" y="35" type="line"/>
    </contour>
  </outline>
</glyph>
<glyph name="yen" format="2">
  <advance width="498"/>
  <unicode hex="00A5"/>
  <outline>
    <contour>
      <point x="230" y="0" type="line"/>
      <point x="268" y="0" type="line"/>
      <point x="268" y="192" type="line"/>
      <point x="431" y="192" type="line"/>
      <point x="431" y="224" type="line"/>
      <point x="268" y="224" type="line"/>
      <point x="268" y="341" type="line"/>
      <point x="431" y="341" type="line"/>
      <point x="431" y="374" type="line"/>
      <point x="288" y="374" type="line"/>
      <point x="288" y="367" type="line"/>
      <point x="489" y="705" type="line"/>
      <point x="447" y="705" type="line"/>
      <point x="243" y="358" type="line"/>
      <point x="256" y="358" type="line"/>
      <point x="51" y="705" type="line"/>
      <point x="9" y="705" type="line"/>
      <point x="210" y="367" type="line"/>
      <point x="210" y="374" type="line"/>
      <point x="67" y="374" type="line"/>
      <point x="67" y="341" type="line"/>
      <point x="230" y="341" type="line"/>
      <point x="230" y="224" type="line"/>
      <point x="67" y="224" type="line"/>
      <point x="67" y="192" type="line"/>
      <point x="230" y="192" type="line"/>
    </contour>
  </outline>
</glyph>
<glyph name="brokenbar" format="2">
  <advance width="214"/>
  <unicode hex="00A6"/>
  <outline>
    <contour>
      <point x="88" y="372" type="line"/>
      <point x="126" y="372" type="line"/>
      <point x="126" y="705" type="line"/>
      <point x="88" y="705" type="line"/>
    </contour>
    <contour>
      <point x="88" y="-180" type="line"/>
      <point x="126" y="-180" type="line"/>
      <point x="126" y="153" type="line"/>
      <point x="88" y="153" type="line"/>
    </contour>
  </outline>
</glyph>
<glyph name="section" format="2">
  <advance width="438"/>
  <unicode hex="00A7"/>
  <outline>
    <contour>
      <point x="199" y="-188" type="curve" smooth="yes"/>
      <point x="298" y="-188"/>
      <point x="361" y="-121"/>
      <point x="361" y="-15" type="curve" smooth="yes"/>
      <point x="361" y="16"/>
      <point x="355" y="46"/>
      <point x="346" y="62" type="curve"/>
      <point x="342" y="49" type="line"/>
      <point x="374" y="80"/>
      <point x="394" y="132"/>
      <point x="394" y="184" type="curve" smooth="yes"/>
      <point x="394" y="252"/>
      <point x="359" y="302"/>
      <point x="277" y="351" type="curve" smooth="yes"/>
      <point x="199" y="398" type="line" smooth="yes"/>
      <point x="151" y="427"/>
      <point x="116" y="466"/>
      <point x="116" y="540" type="curve" smooth="yes"/>
      <point x="116" y="625"/>
      <point x="160" y="676"/>
      <point x="234" y="676" type="curve" smooth="yes"/>
      <point x="286" y="676"/>
      <point x="337" y="655"/>
      <point x="368" y="621" type="curve"/>
      <point x="384" y="653" type="line"/>
      <point x="353" y="689"/>
      <point x="297" y="712"/>
      <point x="239" y="712" type="curve" smooth="yes"/>
      <point x="140" y="712"/>
      <point x="77" y="645"/>
      <point x="77" y="539" type="curve" smooth="yes"/>
      <point x="77" y="508"/>
      <point x="83" y="478"/>
      <point x="92" y="462" type="curve"/>
      <point x="96" y="475" type="line"/>
      <point x="64" y="444"/>
      <point x="44" y="392"/>
      <point x="44" y="340" type="curve" smooth="yes"/>
      <point x="44" y="266"/>
      <point x="86" y="218"/>
      <point x="161" y="173" type="curve" smooth="yes"/>
      <point x="239" y="126" type="line" smooth="yes"/>
      <point x="296" y="92"/>
      <point x="322" y="48"/>
      <point x="322" y="-16" type="curve" smooth="yes"/>
      <point x="322" y="-101"/>
      <point x="278" y="-152"/>
      <point x="204" y="-152" type="curve" smooth="yes"/>
      <point x="152" y="-152"/>
      <point x="101" y="-131"/>
      <point x="70" y="-97" type="curve"/>
      <point x="54" y="-129" type="line"/>
      <point x="85" y="-165"/>
      <point x="141" y="-188"/>
    </contour>
    <contour>
      <point x="81" y="347" type="curve" smooth="yes"/>
      <point x="81" y="387"/>
      <point x="93" y="421"/>
      <point x="117" y="447" type="curve"/>
      <point x="99" y="448" type="line"/>
      <point x="117" y="415"/>
      <point x="151" y="383"/>
      <point x="194" y="357" type="curve" smooth="yes"/>
      <point x="261" y="317" type="line" smooth="yes"/>
      <point x="330" y="276"/>
      <point x="357" y="236"/>
      <point x="357" y="177" type="curve" smooth="yes"/>
      <point x="357" y="137"/>
      <point x="345" y="103"/>
      <point x="321" y="77" type="curve"/>
      <point x="339" y="76" type="line"/>
      <point x="321" y="109"/>
      <point x="287" y="141"/>
      <point x="244" y="167" type="curve" smooth="yes"/>
      <point x="177" y="207" type="line" smooth="yes"/>
      <point x="110" y="247"/>
      <point x="81" y="285"/>
    </contour>
  </outline>
</glyph>
<glyph name="copyright" format="2">
  <advance width="672"/>
  <unicode hex="00A9"/>
  <outline>
    <contour>
      <point x="336" y="-8" type="curve" smooth="yes"/>
      <point x="512" y="-8"/>
      <point x="630" y="136"/>
      <point x="630" y="353" type="curve" smooth="yes"/>
      <point x="630" y="569"/>
      <point x="513" y="713"/>
      <point x="336" y="713" type="curve" smooth="yes"/>
      <point x="160" y="713"/>
      <point x="42" y="569"/>
      <point x="42" y="352" type="curve" smooth="yes"/>
      <point x="42" y="136"/>
      <point x="159" y="-8"/>
    </contour>
    <contour>
      <point x="339" y="137" type="curve" smooth="yes"/>
      <point x="390" y="137"/>
      <point x="434" y="155"/>
      <point x="459" y="186" type="curve"/>
      <point x="441" y="212" type="line"/>
      <point x="414" y="184"/>
      <point x="383" y="171"/>
      <point x="343" y="171" type="curve" smooth="yes"/>
      <point x="259" y="171"/>
      <point x="220" y="228"/>
      <point x="220" y="352" type="curve" smooth="yes"/>
      <point x="220" y="477"/>
      <point x="260" y="534"/>
      <point x="346" y="534" type="curve" smooth="yes"/>
      <point x="385" y="534"/>
      <point x="413" y="522"/>
      <point x="441" y="493" type="curve"/>
      <point x="459" y="519" type="line"/>
      <point x="434" y="550"/>
      <point x="391" y="568"/>
      <point x="341" y="568" type="curve" smooth="yes"/>
      <point x="236" y="568"/>
      <point x="181" y="494"/>
      <point x="181" y="352" type="curve" smooth="yes"/>
      <point x="181" y="211"/>
      <point x="235" y="137"/>
    </contour>
    <contour>
      <point x="336" y="27" type="curve" smooth="yes"/>
      <point x="181" y="27"/>
      <point x="78" y="156"/>
      <point x="78" y="352" type="curve" smooth="yes"/>
      <point x="78" y="548"/>
      <point x="181" y="678"/>
      <point x="336" y="678" type="curve" smooth="yes"/>
      <point x="491" y="678"/>
      <point x="594" y="549"/>
      <point x="594" y="353" type="curve" smooth="yes"/>
      <point x="594" y="157"/>
      <point x="491" y="27"/>
    </contour>
  </outline>
</glyph>
<glyph name="registered" format="2">
  <advance width="672"/>
  <unicode hex="00AE"/>
  <outline>
    <contour>
      <point x="336" y="-8" type="curve" smooth="yes"/>
      <point x="513" y="-8"/>
      <point x="630" y="137"/>
      <point x="630" y="353" type="curve" smooth="yes"/>
      <point x="630" y="569"/>
      <point x="513" y="713"/>
      <point x="336" y="713" type="curve" smooth="yes"/>
      <point x="159" y="713"/>
      <point x="42" y="568"/>
      <point x="42" y="352" type="curve" smooth="yes"/>
      <point x="42" y="136"/>
      <point x="159" y="-8"/>
    </contour>
    <contour>
      <point x="336" y="27" type="curve" smooth="yes"/>
      <point x="181" y="27"/>
      <point x="78" y="156"/>
      <point x="78" y="352" type="curve" smooth="yes"/>
      <point x="78" y="548"/>
      <point x="181" y="678"/>
      <point x="336" y="678" type="curve" smooth="yes"/>
      <point x="491" y="678"/>
      <point x="594" y="549"/>
      <point x="594" y="353" type="curve" smooth="yes"/>
      <point x="594" y="157"/>
      <point x="491" y="27"/>
    </contour>
    <contour>
      <point x="225" y="142" type="line"/>
      <point x="263" y="142" type="line"/>
      <point x="263" y="330" type="line"/>
      <point x="258" y="325" type="line"/>
      <point x="321" y="325" type="line" smooth="yes"/>
      <point x="357" y="325"/>
      <point x="373" y="312"/>
      <point x="389" y="271" type="curve" smooth="yes"/>
      <point x="439" y="142" type="line"/>
      <point x="481" y="142" type="line"/>
      <point x="423" y="282" type="line" smooth="yes"/>
      <point x="408" y="318"/>
      <point x="393" y="334"/>
      <point x="374" y="334" type="curve" smooth="yes"/>
      <point x="350" y="328" type="line"/>
      <point x="421" y="328"/>
      <point x="468" y="372"/>
      <point x="468" y="445" type="curve" smooth="yes"/>
      <point x="468" y="520"/>
      <point x="425" y="563"/>
      <point x="350" y="563" type="curve" smooth="yes"/>
      <point x="225" y="563" type="line"/>
    </contour>
    <contour>
      <point x="263" y="356" type="line"/>
      <point x="263" y="532" type="line"/>
      <point x="348" y="532" type="line" smooth="yes"/>
      <point x="400" y="532"/>
      <point x="430" y="501"/>
      <point x="430" y="446" type="curve" smooth="yes"/>
      <point x="430" y="389"/>
      <point x="400" y="356"/>
      <point x="348" y="356" type="curve" smooth="yes"/>
    </contour>
  </outline>
</glyph>
<glyph name="paragraph" format="2">
  <advance width="466"/>
  <unicode hex="00B6"/>
  <outline>
    <contour>
      <point x="197" y="-180" type="line"/>
      <point x="235" y="-180" type="line"/>
      <point x="235" y="671" type="line"/>
      <point x="345" y="671" type="line"/>
      <point x="345" y="-180" type="line"/>
      <point x="383" y="-180" type="line"/>
      <point x="383" y="705" type="line"/>
      <point x="198" y="705" type="line" smooth="yes"/>
      <point x="107" y="705"/>
      <point x="38" y="630"/>
      <point x="38" y="522" type="curve" smooth="yes"/>
      <point x="38" y="414"/>
      <point x="107" y="339"/>
      <point x="197" y="339" type="curve"/>
    </contour>
  </outline>
</glyph>
<glyph name="periodcentered" format="2">
  <advance width="185"/>
  <unicode hex="00B7"/>
  <outline>
    <contour>
      <point x="62" y="233" type="line"/>
      <point x="123" y="233" type="line"/>
      <point x="123" y="296" type="line"/>
      <point x="62" y="296" type="line"/>
    </contour>
  </outline>
</glyph>
<glyph name="ordmasculine" format="2">
  <advance width="272"/>
  <unicode hex="00BA"/>
  <outline>
    <contour>
      <point x="136" y="413" type="curve" smooth="yes"/>
      <point x="206" y="413"/>
      <point x="248" y="462"/>
      <point x="248" y="563" type="curve" smooth="yes"/>
      <point x="248" y="664"/>
      <point x="206" y="713"/>
      <point x="136" y="713" type="curve" smooth="yes"/>
      <point x="66" y="713"/>
      <point x="24" y="664"/>
      <point x="24" y="563" type="curve" smooth="yes"/>
      <point x="24" y="462"/>
      <point x="66" y="413"/>
    </contour>
    <contour>
      <point x="136" y="441" type="curve" smooth="yes"/>
      <point x="86.229" y="441"/>
      <point x="55" y="477"/>
      <point x="55" y="563" type="curve" smooth="yes"/>
      <point x="55" y="648"/>
      <point x="86.229" y="684"/>
      <point x="136" y="684" type="curve" smooth="yes"/>
      <point x="185.771" y="684"/>
      <point x="217" y="648"/>
      <point x="217" y="563" type="curve" smooth="yes"/>
      <point x="217" y="477"/>
      <point x="185.771" y="441"/>
    </contour>
  </outline>
</glyph>
<glyph name="germandbls" format="2">
  <advance width="486"/>
  <unicode hex="00DF"/>
  <outline>
    <contour>
      <point x="309" y="-8" type="curve" smooth="yes"/>
      <point x="393" y="-8"/>
      <point x="452" y="42"/>
      <point x="452" y="128" type="curve" smooth="yes"/>
      <point x="452" y="194.511"/>
      <point x="417.939" y="236.02"/>
      <point x="333" y="264" type="curve" smooth="yes"/>
      <point x="267.936" y="285.021"/>
      <point x="238" y="312.495"/>
      <point x="238" y="362" type="curve" smooth="yes"/>
      <point x="238" y="395"/>
      <point x="251.042" y="418.017"/>
      <point x="291" y="459" type="curve" smooth="yes"/>
      <point x="322.877" y="491.873"/>
      <point x="359" y="523.515"/>
      <point x="359" y="592" type="curve" smooth="yes"/>
      <point x="359" y="668"/>
      <point x="316" y="713"/>
      <point x="232" y="713" type="curve" smooth="yes"/>
      <point x="132" y="713"/>
      <point x="74" y="648"/>
      <point x="74" y="522" type="curve" smooth="yes"/>
      <point x="74" y="0" type="line"/>
      <point x="112" y="0" type="line"/>
      <point x="112" y="522" type="line" smooth="yes"/>
      <point x="112" y="625"/>
      <point x="152" y="677"/>
      <point x="233" y="677" type="curve" smooth="yes"/>
      <point x="293.356" y="677"/>
      <point x="322" y="649"/>
      <point x="322" y="592" type="curve" smooth="yes"/>
      <point x="322" y="542.538"/>
      <point x="300.156" y="518.161"/>
      <point x="268" y="485" type="curve" smooth="yes"/>
      <point x="228.155" y="444.159"/>
      <point x="201" y="415"/>
      <point x="201" y="358" type="curve" smooth="yes"/>
      <point x="201" y="294.492"/>
      <point x="235.068" y="257.977"/>
      <point x="320" y="229" type="curve" smooth="yes"/>
      <point x="388.725" y="205.755"/>
      <point x="414" y="178"/>
      <point x="414" y="125" type="curve" smooth="yes"/>
      <point x="414" y="63"/>
      <point x="374" y="27"/>
      <point x="309" y="27" type="curve" smooth="yes"/>
      <point x="264" y="27"/>
      <point x="221" y="46"/>
      <point x="186" y="79" type="curve"/>
      <point x="170" y="49" type="line"/>
      <point x="201" y="14"/>
      <point x="253" y="-8"/>
    </contour>
  </outline>
</glyph>
<glyph name="ae" format="2">
  <advance width="706"/>
  <unicode hex="00E6"/>
  <anchor x="349" y="0" name="bottom"/>
  <anchor x="349" y="484" name="top"/>
  <outline>
    <contour>
      <point x="197" y="-8" type="curve" smooth="yes"/>
      <point x="276" y="-8"/>
      <point x="333" y="52"/>
      <point x="350" y="154" type="curve"/>
      <point x="335" y="154" type="line"/>
      <point x="355" y="48"/>
      <point x="415" y="-8"/>
      <point x="510" y="-8" type="curve" smooth="yes"/>
      <point x="567" y="-8"/>
      <point x="619" y="13"/>
      <point x="657" y="52" type="curve"/>
      <point x="636" y="82" type="line"/>
      <point x="602" y="46"/>
      <point x="560" y="28"/>
      <point x="510" y="28" type="curve" smooth="yes"/>
      <point x="411" y="28"/>
      <point x="362" y="98"/>
      <point x="362" y="239" type="curve" smooth="yes"/>
      <point x="362" y="244" type="line" smooth="yes"/>
      <point x="362" y="378"/>
      <point x="410" y="457"/>
      <point x="504" y="457" type="curve" smooth="yes"/>
      <point x="588" y="457"/>
      <point x="627" y="394"/>
      <point x="627" y="258" type="curve"/>
      <point x="640" y="273" type="line"/>
      <point x="352" y="273" type="line"/>
      <point x="352" y="239" type="line"/>
      <point x="662" y="239" type="line"/>
      <point x="662" y="264" type="line" smooth="yes"/>
      <point x="662" y="414"/>
      <point x="606" y="492"/>
      <point x="504" y="492" type="curve" smooth="yes"/>
      <point x="421" y="492"/>
      <point x="365" y="440"/>
      <point x="341" y="338" type="curve"/>
      <point x="356" y="338" type="line"/>
      <point x="356" y="444"/>
      <point x="317" y="492"/>
      <point x="229" y="492" type="curve" smooth="yes"/>
      <point x="173" y="492"/>
      <point x="116" y="472"/>
      <point x="72" y="439" type="curve"/>
      <point x="90" y="406" type="line"/>
      <point x="135" y="440"/>
      <point x="180" y="456"/>
      <point x="225" y="456" type="curve" smooth="yes"/>
      <point x="301" y="456"/>
      <point x="324" y="412"/>
      <point x="324" y="345" type="curve" smooth="yes"/>
      <point x="324" y="193" type="line" smooth="yes"/>
      <point x="324" y="101"/>
      <point x="270" y="27"/>
      <point x="196" y="27" type="curve" smooth="yes"/>
      <point x="139" y="27"/>
      <point x="98" y="71"/>
      <point x="98" y="137" type="curve" smooth="yes"/>
      <point x="98" y="216"/>
      <point x="154" y="239"/>
      <point x="273" y="239" type="curve" smooth="yes"/>
      <point x="334" y="239" type="line"/>
      <point x="334" y="273" type="line"/>
      <point x="275" y="273" type="line" smooth="yes"/>
      <point x="138" y="273"/>
      <point x="57" y="244"/>
      <point x="57" y="140" type="curve" smooth="yes"/>
      <point x="57" y="53"/>
      <point x="118" y="-8"/>
    </contour>
  </outline>
</glyph>
<glyph name="divide" format="2">
  <advance width="498"/>
  <unicode hex="00F7"/>
  <outline>
    <contour>
      <point x="32" y="267" type="line"/>
      <point x="466" y="267" type="line"/>
      <point x="466" y="302" type="line"/>
      <point x="32" y="302" type="line"/>
    </contour>
    <contour>
      <point x="219" y="54" type="line"/>
      <point x="280" y="54" type="line"/>
      <point x="280" y="117" type="line"/>
      <point x="219" y="117" type="line"/>
    </contour>
    <contour>
      <point x="219" y="452" type="line"/>
      <point x="280" y="452" type="line"/>
      <point x="280" y="515" type="line"/>
      <point x="219" y="515" type="line"/>
    </contour>
  </outline>
</glyph>
<glyph name="idotless" format="2">
  <advance width="186"/>
  <unicode hex="0131"/>
  <anchor x="93" y="0" name="bottom"/>
  <anchor x="111" y="0" name="ogonek"/>
  <anchor x="93" y="484" name="top"/>
  <outline>
    <contour>
      <point x="74" y="0" type="line"/>
      <point x="112" y="0" type="line"/>
      <point x="112" y="484" type="line"/>
      <point x="74" y="484" type="line"/>
    </contour>
  </outline>
</glyph>
<glyph name="Eng" format="2">
  <advance width="606"/>
  <unicode hex="014A"/>
  <anchor x="303" y="0" name="bottom"/>
  <anchor x="303" y="705" name="top"/>
  <outline>
    <contour>
      <point x="370" y="-193" type="line"/>
      <point x="405" y="-190" type="line" smooth="yes"/>
      <point x="486" y="-183"/>
      <point x="523" y="-135"/>
      <point x="523" y="-40" type="curve" smooth="yes"/>
      <point x="523" y="705" type="line"/>
      <point x="487" y="705" type="line"/>
      <point x="487" y="37" type="line"/>
      <point x="507" y="37" type="line"/>
      <point x="117" y="705" type="line"/>
      <point x="83" y="705" type="line"/>
      <point x="83" y="0" type="line"/>
      <point x="119" y="0" type="line"/>
      <point x="119" y="668" type="line"/>
      <point x="98" y="668" type="line"/>
      <point x="489" y="0" type="line"/>
      <point x="487" y="24" type="line"/>
      <point x="487" y="-40" type="line" smooth="yes"/>
      <point x="487" y="-125"/>
      <point x="455" y="-151"/>
      <point x="401" y="-156" type="curve" smooth="yes"/>
      <point x="367" y="-159" type="line"/>
    </contour>
  </outline>
</glyph>
<glyph name="Schwa" format="2">
  <advance width="622"/>
  <unicode hex="018F"/>
  <anchor x="308" y="0" name="bottom"/>
  <anchor x="308" y="705" name="top"/>
  <outline>
    <contour>
      <point x="307" y="-8" type="curve" smooth="yes"/>
      <point x="470" y="-8"/>
      <point x="562" y="123"/>
      <point x="562" y="358" type="curve" smooth="yes"/>
      <point x="562" y="594"/>
      <point x="471" y="713"/>
      <point x="291" y="713" type="curve" smooth="yes"/>
      <point x="206" y="713"/>
      <point x="135" y="685"/>
      <point x="81" y="630" type="curve"/>
      <point x="98" y="600" type="line"/>
      <point x="151" y="653"/>
      <point x="211" y="677"/>
      <point x="288" y="677" type="curve" smooth="yes"/>
      <point x="447" y="677"/>
      <point x="522" y="574"/>
      <point x="522" y="356" type="curve" smooth="yes"/>
      <point x="522" y="143"/>
      <point x="446" y="28"/>
      <point x="307" y="28" type="curve" smooth="yes"/>
      <point x="170" y="28"/>
      <point x="99" y="139"/>
      <point x="99" y="353" type="curve"/>
      <point x="89" y="339" type="line"/>
      <point x="527" y="339" type="line"/>
      <point x="527" y="374" type="line"/>
      <point x="60" y="374" type="line"/>
      <point x="60" y="347" type="line" smooth="yes"/>
      <point x="60" y="117"/>
      <point x="147" y="-8"/>
    </contour>
  </outline>
</glyph>
<glyph name="florin" format="2">
  <advance width="498"/>
  <unicode hex="0192"/>
  <outline>
    <contour>
      <point x="45" y="-188" type="line"/>
      <point x="70" y="-188" type="line" smooth="yes"/>
      <point x="160" y="-188"/>
      <point x="198" y="-141"/>
      <point x="213" y="-54" type="curve" smooth="yes"/>
      <point x="302" y="460" type="line"/>
      <point x="288" y="452" type="line"/>
      <point x="412" y="452" type="line"/>
      <point x="412" y="484" type="line"/>
      <point x="297" y="484" type="line"/>
      <point x="304" y="472" type="line"/>
      <point x="322" y="575" type="line" smooth="yes"/>
      <point x="337" y="660"/>
      <point x="368" y="679"/>
      <point x="427" y="679" type="curve" smooth="yes"/>
      <point x="452" y="679" type="line"/>
      <point x="452" y="713" type="line"/>
      <point x="427" y="713" type="line" smooth="yes"/>
      <point x="333" y="713"/>
      <point x="298" y="661"/>
      <point x="284" y="579" type="curve" smooth="yes"/>
      <point x="266" y="474" type="line"/>
      <point x="275" y="484" type="line"/>
      <point x="156" y="484" type="line"/>
      <point x="156" y="452" type="line"/>
      <point x="270" y="452" type="line"/>
      <point x="263" y="457" type="line"/>
      <point x="175" y="-50" type="line" smooth="yes"/>
      <point x="160" y="-136"/>
      <point x="128" y="-154"/>
      <point x="70" y="-154" type="curve" smooth="yes"/>
      <point x="45" y="-154" type="line"/>
    </contour>
  </outline>
</glyph>
<glyph name="Yhook" format="2">
  <advance width="480"/>
  <unicode hex="01B3"/>
  <outline>
    <contour>
      <point x="221" y="0" type="line"/>
      <point x="259" y="0" type="line"/>
      <point x="259" y="367" type="line"/>
      <point x="249" y="331" type="line"/>
      <point x="421" y="627" type="line" smooth="yes"/>
      <point x="444" y="667"/>
      <point x="464" y="680"/>
      <point x="493" y="680" type="curve" smooth="yes"/>
      <point x="506" y="680"/>
      <point x="519" y="677"/>
      <point x="530" y="672" type="curve"/>
      <point x="530" y="705" type="line"/>
      <point x="514" y="711"/>
      <point x="505" y="713"/>
      <point x="492" y="713" type="curve" smooth="yes"/>
      <point x="451" y="713"/>
      <point x="420" y="692"/>
      <point x="394" y="646" type="curve" smooth="yes"/>
      <point x="235" y="367" type="line"/>
      <point x="247" y="367" type="line"/>
      <point x="45" y="705" type="line"/>
      <point x="3" y="705" type="line"/>
      <point x="231" y="331" type="line"/>
      <point x="221" y="367" type="line"/>
    </contour>
  </outline>
</glyph>
<glyph name="yhook" format="2">
  <advance width="481"/>
  <unicode hex="01B4"/>
  <outline>
    <contour>
      <point x="322" y="377" type="curve" smooth="yes"/>
      <point x="201" y="18" type="line"/>
      <point x="221" y="18" type="line"/>
      <point x="64" y="484" type="line"/>
      <point x="22" y="484" type="line"/>
      <point x="194" y="-13" type="line"/>
      <point x="195" y="4" type="line"/>
      <point x="126" y="-180" type="line"/>
      <point x="168" y="-180" type="line"/>
      <point x="358" y="368" type="line" smooth="yes"/>
      <point x="377" y="424"/>
      <point x="391" y="458"/>
      <point x="434" y="458" type="curve" smooth="yes"/>
      <point x="444" y="458"/>
      <point x="457" y="456"/>
      <point x="465" y="453" type="curve"/>
      <point x="470" y="486" type="line"/>
      <point x="460" y="490"/>
      <point x="447" y="492"/>
      <point x="432" y="492" type="curve" smooth="yes"/>
      <point x="364" y="492"/>
      <point x="347" y="452"/>
    </contour>
  </outline>
</glyph>
<glyph name="bhook" format="2">
  <advance width="474"/>
  <unicode hex="0253"/>
  <outline>
    <contour>
      <point x="251" y="-8" type="curve" smooth="yes"/>
      <point x="362" y="-8"/>
      <point x="426" y="83"/>
      <point x="426" y="242" type="curve" smooth="yes"/>
      <point x="426" y="401"/>
      <point x="362" y="492"/>
      <point x="251" y="492" type="curve" smooth="yes"/>
      <point x="172" y="492"/>
      <point x="121" y="448"/>
      <point x="103" y="363" type="curve"/>
      <point x="112" y="363" type="line"/>
      <point x="112" y="589" type="line" smooth="yes"/>
      <point x="112" y="649"/>
      <point x="138" y="679"/>
      <point x="189" y="679" type="curve" smooth="yes"/>
      <point x="201" y="679"/>
      <point x="213" y="677"/>
      <point x="221" y="674" type="curve"/>
      <point x="226" y="707" type="line"/>
      <point x="216" y="711"/>
      <point x="203" y="713"/>
      <point x="188" y="713" type="curve" smooth="yes"/>
      <point x="112" y="713"/>
      <point x="74" y="671"/>
      <point x="74" y="587" type="curve" smooth="yes"/>
      <point x="74" y="0" type="line"/>
      <point x="112" y="0" type="line"/>
      <point x="112" y="121" type="line"/>
      <point x="103" y="121" type="line"/>
      <point x="121" y="36"/>
      <point x="172" y="-8"/>
    </contour>
    <contour>
      <point x="249" y="28" type="curve" smooth="yes"/>
      <point x="158" y="28"/>
      <point x="111" y="101"/>
      <point x="111" y="242" type="curve" smooth="yes"/>
      <point x="111" y="383"/>
      <point x="158" y="456"/>
      <point x="249" y="456" type="curve" smooth="yes"/>
      <point x="340" y="456"/>
      <point x="387" y="383"/>
      <point x="387" y="242" type="curve" smooth="yes"/>
      <point x="387" y="101"/>
      <point x="340" y="28"/>
    </contour>
  </outline>
</glyph>
<glyph name="dhook" format="2">
  <advance width="474"/>
  <unicode hex="0257"/>
  <outline>
    <contour>
      <point x="223" y="-8" type="curve" smooth="yes"/>
      <point x="302" y="-8"/>
      <point x="353" y="36"/>
      <point x="371" y="121" type="curve"/>
      <point x="362" y="121" type="line"/>
      <point x="362" y="0" type="line"/>
      <point x="400" y="0" type="line"/>
      <point x="400" y="589" type="line" smooth="yes"/>
      <point x="400" y="649"/>
      <point x="426" y="679"/>
      <point x="477" y="679" type="curve" smooth="yes"/>
      <point x="489" y="679"/>
      <point x="501" y="677"/>
      <point x="509" y="674" type="curve"/>
      <point x="514" y="707" type="line"/>
      <point x="504" y="711"/>
      <point x="491" y="713"/>
      <point x="476" y="713" type="curve" smooth="yes"/>
      <point x="400" y="713"/>
      <point x="362" y="671"/>
      <point x="362" y="587" type="curve" smooth="yes"/>
      <point x="362" y="363" type="line"/>
      <point x="371" y="363" type="line"/>
      <point x="353" y="448"/>
      <point x="302" y="492"/>
      <point x="223" y="492" type="curve" smooth="yes"/>
      <point x="112" y="492"/>
      <point x="48" y="401"/>
      <point x="48" y="242" type="curve" smooth="yes"/>
      <point x="48" y="83"/>
      <point x="112" y="-8"/>
    </contour>
    <contour>
      <point x="225" y="28" type="curve" smooth="yes"/>
      <point x="134" y="28"/>
      <point x="87" y="101"/>
      <point x="87" y="242" type="curve" smooth="yes"/>
      <point x="87" y="383"/>
      <point x="134" y="456"/>
      <point x="225" y="456" type="curve" smooth="yes"/>
      <point x="316" y="456"/>
      <point x="363" y="383"/>
      <point x="363" y="242" type="curve" smooth="yes"/>
      <point x="363" y="101"/>
      <point x="316" y="28"/>
    </contour>
  </outline>
</glyph>
<glyph name="commaturnedmod" format="2">
  <advance width="500"/>
  <unicode hex="02BB"/>
  <anchor x="250" y="484" name="_top"/>
  <anchor x="250" y="685" name="top"/>
  <outline>
    <contour>
      <point x="219" y="577" type="line"/>
      <point x="280" y="577" type="line"/>
      <point x="280" y="640" type="line"/>
      <point x="243" y="640" type="line"/>
      <point x="252" y="632" type="line"/>
      <point x="252" y="671"/>
      <point x="259" y="694"/>
      <point x="280" y="720" type="curve"/>
      <point x="257" y="738" type="line"/>
      <point x="231" y="708"/>
      <point x="219" y="672"/>
      <point x="219" y="629" type="curve" smooth="yes"/>
    </contour>
  </outline>
</glyph>
<glyph name="ringhalfright" format="2">
  <advance width="500"/>
  <unicode hex="02BE"/>
  <anchor x="250" y="484" name="_top"/>
  <anchor x="250" y="685" name="top"/>
  <outline>
    <contour>
      <point x="250" y="559" type="line"/>
      <point x="298" y="559"/>
      <point x="338" y="600"/>
      <point x="338" y="650" type="curve" smooth="yes"/>
      <point x="338" y="700"/>
      <point x="298" y="741"/>
      <point x="250" y="741" type="curve"/>
      <point x="250" y="706" type="line"/>
      <point x="280" y="706"/>
      <point x="301" y="681"/>
      <point x="301" y="650" type="curve" smooth="yes"/>
      <point x="301" y="619"/>
      <point x="280" y="594"/>
      <point x="250" y="594" type="curve"/>
    </contour>
  </outline>
</glyph>
<glyph name="secondtonechinese" format="2">
  <advance width="500"/>
  <unicode hex="02CA"/>
  <anchor x="250" y="484" name="_top"/>
  <anchor x="250" y="685" name="top"/>
  <outline>
    <contour>
      <point x="233" y="549" type="line"/>
      <point x="264" y="549" type="line"/>
      <point x="365" y="733" type="line"/>
      <point x="318" y="733" type="line"/>
    </contour>
  </outline>
</glyph>
<glyph name="gravecomb" format="2">
  <unicode hex="0300"/>
  <anchor x="0" y="484" name="_top"/>
  <anchor x="0" y="685" name="top"/>
  <outline>
    <contour>
      <point x="-14" y="549" type="line"/>
      <point x="17" y="549" type="line"/>
      <point x="-68" y="733" type="line"/>
      <point x="-115" y="733" type="line"/>
    </contour>
  </outline>
</glyph>
<glyph name="tildecomb" format="2">
  <unicode hex="0303"/>
  <anchor x="0" y="484" name="_top"/>
  <anchor x="0" y="685" name="top"/>
  <outline>
    <contour>
      <point x="-110" y="593" type="line"/>
      <point x="-109" y="643"/>
      <point x="-94" y="670"/>
      <point x="-67" y="670" type="curve" smooth="yes"/>
      <point x="-46" y="670"/>
      <point x="-29" y="654"/>
      <point x="-11" y="637" type="curve" smooth="yes"/>
      <point x="10" y="617"/>
      <point x="34" y="595"/>
      <point x="67" y="595" type="curve" smooth="yes"/>
      <point x="113" y="595"/>
      <point x="140" y="635"/>
      <point x="138" y="700" type="curve"/>
      <point x="109" y="702" type="line"/>
      <point x="109" y="653"/>
      <point x="94" y="625"/>
      <point x="68" y="625" type="curve" smooth="yes"/>
      <point x="48" y="625"/>
      <point x="31" y="641"/>
      <point x="12" y="658" type="curve" smooth="yes"/>
      <point x="-9" y="678"/>
      <point x="-33" y="700"/>
      <point x="-66" y="700" type="curve" smooth="yes"/>
      <point x="-111" y="700"/>
      <point x="-140" y="658"/>
      <point x="-138" y="595" type="curve"/>
    </contour>
  </outline>
</glyph>
<glyph name="macroncomb" format="2">
  <unicode hex="0304"/>
  <anchor x="0" y="484" name="_top"/>
  <anchor x="0" y="685" name="top"/>
  <outline>
    <contour>
      <point x="-114" y="632" type="line"/>
      <point x="114" y="632" type="line"/>
      <point x="114" y="669" type="line"/>
      <point x="-114" y="669" type="line"/>
    </contour>
  </outline>
</glyph>
<glyph name="brevecomb" format="2">
  <unicode hex="0306"/>
  <anchor x="0" y="484" name="_top"/>
  <anchor x="0" y="685" name="top"/>
  <outline>
    <contour>
      <point x="0" y="547" type="curve" smooth="yes"/>
      <point x="74" y="547"/>
      <point x="114" y="606"/>
      <point x="118" y="720" type="curve"/>
      <point x="89" y="723" type="line"/>
      <point x="85" y="624"/>
      <point x="58" y="580"/>
      <point x="0" y="580" type="curve" smooth="yes"/>
      <point x="-58" y="580"/>
      <point x="-85" y="624"/>
      <point x="-89" y="723" type="curve"/>
      <point x="-118" y="720" type="line"/>
      <point x="-114" y="606"/>
      <point x="-74" y="547"/>
    </contour>
  </outline>
</glyph>
<glyph name="dotaccentcomb" format="2">
  <unicode hex="0307"/>
  <anchor x="0" y="484" name="_top"/>
  <anchor x="0" y="685" name="top"/>
  <outline>
    <contour>
      <point x="-30" y="621" type="line"/>
      <point x="30" y="621" type="line"/>
      <point x="30" y="680" type="line"/>
      <point x="-30" y="680" type="line"/>
    </contour>
  </outline>
</glyph>
<glyph name="ringcomb" format="2">
  <unicode hex="030A"/>
  <anchor x="0" y="484" name="_top"/>
  <anchor x="0" y="685" name="top"/>
  <outline>
    <contour>
      <point x="0" y="547" type="curve" smooth="yes"/>
      <point x="59" y="547"/>
      <point x="107" y="596"/>
      <point x="107" y="657" type="curve" smooth="yes"/>
      <point x="107" y="718"/>
      <point x="59" y="767"/>
      <point x="0" y="767" type="curve" smooth="yes"/>
      <point x="-59" y="767"/>
      <point x="-107" y="718"/>
      <point x="-107" y="657" type="curve" smooth="yes"/>
      <point x="-107" y="596"/>
      <point x="-59" y="547"/>
    </contour>
    <contour>
      <point x="0" y="577" type="curve" smooth="yes"/>
      <point x="-44" y="577"/>
      <point x="-75" y="611"/>
      <point x="-75" y="657" type="curve" smooth="yes"/>
      <point x="-75" y="703"/>
      <point x="-44" y="737"/>
      <point x="0" y="737" type="curve" smooth="yes"/>
      <point x="44" y="737"/>
      <point x="75" y="703"/>
      <point x="75" y="657" type="curve" smooth="yes"/>
      <point x="75" y="611"/>
      <point x="44" y="577"/>
    </contour>
  </outline>
</glyph>
<glyph name="brevebelowcomb" format="2">
  <unicode hex="032E"/>
  <anchor x="0" y="0" name="_bottom"/>
  <anchor x="0" y="-170" name="bottom"/>
  <outline>
    <contour>
      <point x="0" y="-199" type="curve" smooth="yes"/>
      <point x="71" y="-199"/>
      <point x="115" y="-150"/>
      <point x="118" y="-67" type="curve"/>
      <point x="89" y="-64" type="line"/>
      <point x="88" y="-130"/>
      <point x="56" y="-166"/>
      <point x="0" y="-166" type="curve" smooth="yes"/>
      <point x="-56" y="-166"/>
      <point x="-88" y="-130"/>
      <point x="-89" y="-64" type="curve"/>
      <point x="-118" y="-67" type="line"/>
      <point x="-115" y="-150"/>
      <point x="-71" y="-199"/>
    </contour>
  </outline>
</glyph>
<glyph name="Sigma" format="2">
  <advance width="498"/>
  <unicode hex="03A3"/>
  <outline>
    <contour>
      <point x="50" y="-180" type="line"/>
      <point x="448" y="-180" type="line"/>
      <point x="448" y="-145" type="line"/>
      <point x="85" y="-145" type="line"/>
      <point x="85" y="-160" type="line"/>
      <point x="313" y="249" type="line"/>
      <point x="313" y="276" type="line"/>
      <point x="85" y="685" type="line"/>
      <point x="85" y="670" type="line"/>
      <point x="448" y="670" type="line"/>
      <point x="448" y="705" type="line"/>
      <point x="50" y="705" type="line"/>
      <point x="50" y="678" type="line"/>
      <point x="287" y="253" type="line"/>
      <point x="287" y="272" type="line"/>
      <point x="50" y="-153" type="line"/>
    </contour>
  </outline>
</glyph>
<glyph name="Dje-cy" format="2">
  <advance width="676"/>
  <unicode hex="0402"/>
  <outline>
    <contour>
      <point x="470" y="-188" type="curve" smooth="yes"/>
      <point x="572" y="-188"/>
      <point x="621" y="-120"/>
      <point x="621" y="20" type="curve" smooth="yes"/>
      <point x="621" y="177" type="line" smooth="yes"/>
      <point x="621" y="349"/>
      <point x="558" y="427"/>
      <point x="419" y="427" type="curve" smooth="yes"/>
      <point x="357" y="427"/>
      <point x="300" y="411"/>
      <point x="263" y="383" type="curve"/>
      <point x="263" y="670" type="line"/>
      <point x="479" y="670" type="line"/>
      <point x="479" y="705" type="line"/>
      <point x="9" y="705" type="line"/>
      <point x="9" y="670" type="line"/>
      <point x="225" y="670" type="line"/>
      <point x="225" y="0" type="line"/>
      <point x="263" y="0" type="line"/>
      <point x="263" y="343" type="line"/>
      <point x="304" y="375"/>
      <point x="354" y="391"/>
      <point x="411" y="391" type="curve" smooth="yes"/>
      <point x="536" y="391"/>
      <point x="584" y="329"/>
      <point x="583" y="171" type="curve" smooth="yes"/>
      <point x="582" y="18" type="line" smooth="yes"/>
      <point x="581" y="-103"/>
      <point x="547" y="-153"/>
      <point x="465" y="-153" type="curve" smooth="yes"/>
      <point x="443" y="-153"/>
      <point x="416" y="-148"/>
      <point x="388" y="-136" type="curve"/>
      <point x="377" y="-169" type="line"/>
      <point x="403" y="-181"/>
      <point x="437" y="-188"/>
    </contour>
  </outline>
</glyph>
<glyph name="E-cy" format="2">
  <advance width="553"/>
  <unicode hex="0404"/>
  <anchor x="314" y="0" name="bottom"/>
  <anchor x="316" y="705" name="top"/>
  <outline>
    <contour>
      <point x="316" y="-8" type="curve" smooth="yes"/>
      <point x="396" y="-8"/>
      <point x="463" y="21"/>
      <point x="509" y="75" type="curve"/>
      <point x="491" y="105" type="line"/>
      <point x="442" y="52"/>
      <point x="388" y="28"/>
      <point x="319" y="28" type="curve" smooth="yes"/>
      <point x="173" y="28"/>
      <point x="101" y="132"/>
      <point x="100" y="348" type="curve"/>
      <point x="83" y="340" type="line"/>
      <point x="408" y="340" type="line"/>
      <point x="408" y="375" type="line"/>
      <point x="84" y="375" type="line"/>
      <point x="100" y="363" type="line"/>
      <point x="102" y="574"/>
      <point x="173" y="677"/>
      <point x="318" y="677" type="curve" smooth="yes"/>
      <point x="388" y="677"/>
      <point x="442" y="653"/>
      <point x="491" y="600" type="curve"/>
      <point x="509" y="630" type="line"/>
      <point x="463" y="684"/>
      <point x="396" y="713"/>
      <point x="316" y="713" type="curve" smooth="yes"/>
      <point x="149" y="713"/>
      <point x="60" y="588"/>
      <point x="60" y="352" type="curve" smooth="yes"/>
      <point x="60" y="117"/>
      <point x="149" y="-8"/>
    </contour>
  </outline>
</glyph>
<glyph name="Zhe-cy" format="2">
  <advance width="770"/>
  <unicode hex="0416"/>
  <anchor x="708" y="0" name="bottomright"/>
  <anchor x="385" y="705" name="top"/>
  <outline>
    <contour>
      <point x="20" y="0" type="line"/>
      <point x="61" y="0" type="line"/>
      <point x="142" y="211" type="line" smooth="yes"/>
      <point x="181" y="312"/>
      <point x="221" y="342"/>
      <point x="284" y="342" type="curve" smooth="yes"/>
      <point x="366" y="342" type="line"/>
      <point x="366" y="0" type="line"/>
      <point x="404" y="0" type="line"/>
      <point x="404" y="342" type="line"/>
      <point x="486" y="342" type="line" smooth="yes"/>
      <point x="553" y="342"/>
      <point x="591" y="307"/>
      <point x="628" y="211" type="curve" smooth="yes"/>
      <point x="709" y="0" type="line"/>
      <point x="750" y="0" type="line"/>
      <point x="656" y="238" type="line" smooth="yes"/>
      <point x="626" y="314"/>
      <point x="586" y="368"/>
      <point x="516" y="374" type="curve"/>
      <point x="528" y="359" type="line"/>
      <point x="718" y="705" type="line"/>
      <point x="674" y="705" type="line"/>
      <point x="487" y="361" type="line"/>
      <point x="504" y="376" type="line"/>
      <point x="404" y="376" type="line"/>
      <point x="404" y="705" type="line"/>
      <point x="366" y="705" type="line"/>
      <point x="366" y="376" type="line"/>
      <point x="266" y="376" type="line"/>
      <point x="283" y="361" type="line"/>
      <point x="96" y="705" type="line"/>
      <point x="52" y="705" type="line"/>
      <point x="242" y="359" type="line"/>
      <point x="254" y="374" type="line"/>
      <point x="191" y="369"/>
      <point x="149" y="326"/>
      <point x="114" y="238" type="curve" smooth="yes"/>
    </contour>
  </outline>
</glyph>
<glyph name="Ef-cy" format="2">
  <advance width="672"/>
  <unicode hex="0424"/>
  <outline>
    <contour>
      <point x="317" y="-20" type="line"/>
      <point x="355" y="-20" type="line"/>
      <point x="355" y="70" type="line"/>
      <point x="343" y="57" type="line"/>
      <point x="365" y="57" type="line" smooth="yes"/>
      <point x="520" y="57"/>
      <point x="612" y="168"/>
      <point x="612" y="360" type="curve" smooth="yes"/>
      <point x="612" y="549"/>
      <point x="523" y="658"/>
      <point x="365" y="658" type="curve" smooth="yes"/>
      <point x="343" y="658" type="line"/>
      <point x="355" y="644" type="line"/>
      <point x="355" y="730" type="line"/>
      <point x="317" y="730" type="line"/>
      <point x="317" y="644" type="line"/>
      <point x="329" y="658" type="line"/>
      <point x="307" y="658" type="line" smooth="yes"/>
      <point x="149" y="658"/>
      <point x="60" y="549"/>
      <point x="60" y="360" type="curve" smooth="yes"/>
      <point x="60" y="168"/>
      <point x="152" y="57"/>
      <point x="307" y="57" type="curve" smooth="yes"/>
      <point x="329" y="57" type="line"/>
      <point x="317" y="70" type="line"/>
    </contour>
    <contour>
      <point x="317" y="79" type="line"/>
      <point x="329" y="92" type="line"/>
      <point x="299" y="92" type="line" smooth="yes"/>
      <point x="175" y="92"/>
      <point x="100" y="193"/>
      <point x="100" y="361" type="curve" smooth="yes"/>
      <point x="100" y="528"/>
      <point x="172" y="623"/>
      <point x="299" y="623" type="curve" smooth="yes"/>
      <point x="329" y="623" type="line"/>
      <point x="317" y="636" type="line"/>
    </contour>
    <contour>
      <point x="356" y="79" type="line"/>
      <point x="356" y="636" type="line"/>
      <point x="344" y="623" type="line"/>
      <point x="374" y="623" type="line" smooth="yes"/>
      <point x="501" y="623"/>
      <point x="572" y="528"/>
      <point x="572" y="361" type="curve" smooth="yes"/>
      <point x="572" y="193"/>
      <point x="498" y="92"/>
      <point x="374" y="92" type="curve" smooth="yes"/>
      <point x="344" y="92" type="line"/>
    </contour>
  </outline>
</glyph>
<glyph name="Sha-cy" format="2">
  <advance width="854"/>
  <unicode hex="0428"/>
  <outline>
    <contour>
      <point x="83" y="0" type="line"/>
      <point x="771" y="0" type="line"/>
      <point x="771" y="705" type="line"/>
      <point x="733" y="705" type="line"/>
      <point x="733" y="35" type="line"/>
      <point x="446" y="35" type="line"/>
      <point x="446" y="705" type="line"/>
      <point x="408" y="705" type="line"/>
      <point x="408" y="35" type="line"/>
      <point x="121" y="35" type="line"/>
      <point x="121" y="705" type="line"/>
      <point x="83" y="705" type="line"/>
    </contour>
  </outline>
</glyph>
<glyph name="Ereversed-cy" format="2">
  <advance width="553"/>
  <unicode hex="042D"/>
  <anchor x="243" y="0" name="bottom"/>
  <anchor x="243" y="705" name="top"/>
  <outline>
    <contour>
      <point x="237" y="-8" type="curve" smooth="yes"/>
      <point x="404" y="-8"/>
      <point x="493" y="117"/>
      <point x="493" y="351" type="curve" smooth="yes"/>
      <point x="493" y="588"/>
      <point x="402" y="713"/>
      <point x="242" y="713" type="curve" smooth="yes"/>
      <point x="163" y="713"/>
      <point x="93" y="682"/>
      <point x="44" y="630" type="curve"/>
      <point x="62" y="600" type="line"/>
      <point x="114" y="651"/>
      <point x="171" y="677"/>
      <point x="240" y="677" type="curve" smooth="yes"/>
      <point x="383" y="677"/>
      <point x="452" y="565"/>
      <point x="453" y="363" type="curve"/>
      <point x="469" y="375" type="line"/>
      <point x="145" y="375" type="line"/>
      <point x="145" y="340" type="line"/>
      <point x="470" y="340" type="line"/>
      <point x="453" y="348" type="line"/>
      <point x="452" y="133"/>
      <point x="380" y="28"/>
      <point x="234" y="28" type="curve" smooth="yes"/>
      <point x="165" y="28"/>
      <point x="111" y="52"/>
      <point x="62" y="105" type="curve"/>
      <point x="44" y="75" type="line"/>
      <point x="90" y="21"/>
      <point x="157" y="-8"/>
    </contour>
  </outline>
</glyph>
<glyph name="Iu-cy" format="2">
  <advance width="813"/>
  <unicode hex="042E"/>
  <outline>
    <contour>
      <point x="508" y="-8" type="curve" smooth="yes"/>
      <point x="666" y="-8"/>
      <point x="753" y="120"/>
      <point x="753" y="353" type="curve" smooth="yes"/>
      <point x="753" y="586"/>
      <point x="666" y="713"/>
      <point x="508" y="713" type="curve" smooth="yes"/>
      <point x="355" y="713"/>
      <point x="269" y="593"/>
      <point x="263" y="375" type="curve"/>
      <point x="121" y="375" type="line"/>
      <point x="121" y="705" type="line"/>
      <point x="83" y="705" type="line"/>
      <point x="83" y="0" type="line"/>
      <point x="121" y="0" type="line"/>
      <point x="121" y="340" type="line"/>
      <point x="263" y="340" type="line"/>
      <point x="266" y="115"/>
      <point x="353" y="-8"/>
    </contour>
    <contour>
      <point x="508" y="28" type="curve" smooth="yes"/>
      <point x="373" y="28"/>
      <point x="303" y="139"/>
      <point x="303" y="352" type="curve" smooth="yes"/>
      <point x="303" y="566"/>
      <point x="373" y="677"/>
      <point x="508" y="677" type="curve" smooth="yes"/>
      <point x="643" y="677"/>
      <point x="713" y="566"/>
      <point x="713" y="353" type="curve" smooth="yes"/>
      <point x="713" y="139"/>
      <point x="643" y="28"/>
    </contour>
  </outline>
</glyph>
<glyph name="be-cy" format="2">
  <advance width="454"/>
  <unicode hex="0431"/>
  <outline>
    <contour>
      <point x="227" y="-8" type="curve" smooth="yes"/>
      <point x="341" y="-8"/>
      <point x="404" y="80"/>
      <point x="404" y="242" type="curve" smooth="yes"/>
      <point x="404" y="404"/>
      <point x="341" y="492"/>
      <point x="227" y="492" type="curve" smooth="yes"/>
      <point x="148" y="492"/>
      <point x="99" y="448"/>
      <point x="81" y="363" type="curve"/>
      <point x="89" y="363" type="line"/>
      <point x="89" y="381" type="line" smooth="yes"/>
      <point x="89" y="509"/>
      <point x="131" y="589"/>
      <point x="215" y="621" type="curve" smooth="yes"/>
      <point x="380" y="683" type="line"/>
      <point x="366" y="717" type="line"/>
      <point x="212" y="658" type="line" smooth="yes"/>
      <point x="94" y="613"/>
      <point x="50" y="526"/>
      <point x="50" y="338" type="curve"/>
      <point x="50" y="242" type="line" smooth="yes"/>
      <point x="50" y="80"/>
      <point x="113" y="-8"/>
    </contour>
    <contour>
      <point x="227" y="28" type="curve" smooth="yes"/>
      <point x="135" y="28"/>
      <point x="89" y="100"/>
      <point x="89" y="242" type="curve" smooth="yes"/>
      <point x="89" y="383"/>
      <point x="136" y="456"/>
      <point x="227" y="456" type="curve" smooth="yes"/>
      <point x="319" y="456"/>
      <point x="365" y="384"/>
      <point x="365" y="242" type="curve" smooth="yes"/>
      <point x="365" y="100"/>
      <point x="319" y="28"/>
    </contour>
  </outline>
</glyph>
<glyph name="ge-cy" format="2">
  <advance width="350"/>
  <unicode hex="0433"/>
  <anchor x="77" y="0" name="bottomright"/>
  <anchor x="117" y="243" name="center"/>
  <anchor x="194" y="484" name="top"/>
  <outline>
    <contour>
      <point x="76" y="0" type="line"/>
      <point x="114" y="0" type="line"/>
      <point x="114" y="451" type="line"/>
      <point x="334" y="451" type="line"/>
      <point x="334" y="484" type="line"/>
      <point x="76" y="484" type="line"/>
    </contour>
  </outline>
</glyph>
<glyph name="de-cy" format="2">
  <advance width="475"/>
  <unicode hex="0434"/>
  <outline>
    <contour>
      <point x="28" y="-130" type="line"/>
      <point x="62" y="-130" type="line"/>
      <point x="62" y="0" type="line"/>
      <point x="408" y="0" type="line"/>
      <point x="408" y="-130" type="line"/>
      <point x="442" y="-130" type="line"/>
      <point x="442" y="32" type="line"/>
      <point x="382" y="32" type="line"/>
      <point x="382" y="484" type="line"/>
      <point x="125" y="484" type="line"/>
      <point x="125" y="335" type="line" smooth="yes"/>
      <point x="125" y="204"/>
      <point x="109" y="106"/>
      <point x="66" y="32" type="curve"/>
      <point x="28" y="32" type="line"/>
    </contour>
    <contour>
      <point x="108" y="32" type="line"/>
      <point x="143" y="107"/>
      <point x="163" y="220"/>
      <point x="163" y="337" type="curve" smooth="yes"/>
      <point x="163" y="452" type="line"/>
      <point x="344" y="452" type="line"/>
      <point x="344" y="32" type="line"/>
    </contour>
  </outline>
</glyph>
<glyph name="ii-cy" format="2">
  <advance width="471"/>
  <unicode hex="0438"/>
  <anchor x="361" y="0" name="bottomright"/>
  <anchor x="236" y="484" name="top"/>
  <outline>
    <contour>
      <point x="76" y="0" type="line"/>
      <point x="110" y="0" type="line"/>
      <point x="386" y="459" type="line"/>
      <point x="360" y="459" type="line"/>
      <point x="359" y="0" type="line"/>
      <point x="395" y="0" type="line"/>
      <point x="395" y="484" type="line"/>
      <point x="361" y="484" type="line"/>
      <point x="85" y="25" type="line"/>
      <point x="112" y="25" type="line"/>
      <point x="112" y="484" type="line"/>
      <point x="76" y="484" type="line"/>
    </contour>
  </outline>
</glyph>
<glyph name="pe-cy" format="2">
  <advance width="471"/>
  <unicode hex="043F"/>
  <anchor x="357" y="0" name="bottomright"/>
  <outline>
    <contour>
      <point x="76" y="0" type="line"/>
      <point x="114" y="0" type="line"/>
      <point x="114" y="452" type="line"/>
      <point x="357" y="452" type="line"/>
      <point x="357" y="0" type="line"/>
      <point x="395" y="0" type="line"/>
      <point x="395" y="484" type="line"/>
      <point x="76" y="484" type="line"/>
    </contour>
  </outline>
</glyph>
<glyph name="te-cy" format="2">
  <advance width="353"/>
  <unicode hex="0442"/>
  <anchor x="158" y="0" name="bottomright"/>
  <outline>
    <contour>
      <point x="158" y="0" type="line"/>
      <point x="196" y="0" type="line"/>
      <point x="196" y="451" type="line"/>
      <point x="345" y="451" type="line"/>
      <point x="345" y="484" type="line"/>
      <point x="9" y="484" type="line"/>
      <point x="9" y="451" type="line"/>
      <point x="158" y="451" type="line"/>
    </contour>
  </outline>
</glyph>
<glyph name="ef-cy" format="2">
  <advance width="626"/>
  <unicode hex="0444"/>
  <outline>
    <contour>
      <point x="294" y="-180" type="line"/>
      <point x="332" y="-180" type="line"/>
      <point x="332" y="121" type="line"/>
      <point x="323" y="121" type="line"/>
      <point x="342" y="36"/>
      <point x="382" y="-8"/>
      <point x="442" y="-8" type="curve" smooth="yes"/>
      <point x="528" y="-8"/>
      <point x="576" y="81"/>
      <point x="576" y="242" type="curve" smooth="yes"/>
      <point x="576" y="403"/>
      <point x="528" y="492"/>
      <point x="442" y="492" type="curve" smooth="yes"/>
      <point x="382" y="492"/>
      <point x="342" y="448"/>
      <point x="323" y="363" type="curve"/>
      <point x="332" y="363" type="line"/>
      <point x="332" y="705" type="line"/>
      <point x="294" y="705" type="line"/>
      <point x="294" y="363" type="line"/>
      <point x="303" y="363" type="line"/>
      <point x="284" y="448"/>
      <point x="244" y="492"/>
      <point x="184" y="492" type="curve" smooth="yes"/>
      <point x="98" y="492"/>
      <point x="50" y="403"/>
      <point x="50" y="242" type="curve" smooth="yes"/>
      <point x="50" y="81"/>
      <point x="98" y="-8"/>
      <point x="184" y="-8" type="curve" smooth="yes"/>
      <point x="244" y="-8"/>
      <point x="284" y="36"/>
      <point x="303" y="121" type="curve"/>
      <point x="294" y="121" type="line"/>
    </contour>
    <contour>
      <point x="191" y="28" type="curve" smooth="yes"/>
      <point x="125" y="28"/>
      <point x="89" y="100"/>
      <point x="89" y="242" type="curve" smooth="yes"/>
      <point x="89" y="383"/>
      <point x="124" y="456"/>
      <point x="190" y="456" type="curve" smooth="yes"/>
      <point x="259" y="456"/>
      <point x="295" y="378"/>
      <point x="295" y="242" type="curve" smooth="yes"/>
      <point x="295" y="106"/>
      <point x="259" y="28"/>
    </contour>
    <contour>
      <point x="435" y="28" type="curve" smooth="yes"/>
      <point x="367" y="28"/>
      <point x="331" y="106"/>
      <point x="331" y="242" type="curve" smooth="yes"/>
      <point x="331" y="378"/>
      <point x="367" y="456"/>
      <point x="436" y="456" type="curve" smooth="yes"/>
      <point x="502" y="456"/>
      <point x="537" y="383"/>
      <point x="537" y="242" type="curve" smooth="yes"/>
      <point x="537" y="100"/>
      <point x="501" y="28"/>
    </contour>
  </outline>
</glyph>
<glyph name="tse-cy" format="2">
  <advance width="480"/>
  <unicode hex="0446"/>
  <outline>
    <contour>
      <point x="413" y="-130" type="line"/>
      <point x="447" y="-130" type="line"/>
      <point x="447" y="32" type="line"/>
      <point x="387" y="32" type="line"/>
      <point x="387" y="484" type="line"/>
      <point x="349" y="484" type="line"/>
      <point x="349" y="32" type="line"/>
      <point x="114" y="32" type="line"/>
      <point x="114" y="484" type="line"/>
      <point x="76" y="484" type="line"/>
      <point x="76" y="0" type="line"/>
      <point x="413" y="0" type="line"/>
    </contour>
  </outline>
</glyph>
<glyph name="sha-cy" format="2">
  <advance width="638"/>
  <unicode hex="0448"/>
  <outline>
    <contour>
      <point x="76" y="0" type="line"/>
      <point x="562" y="0" type="line"/>
      <point x="562" y="484" type="line"/>
      <point x="524" y="484" type="line"/>
      <point x="524" y="32" type="line"/>
      <point x="338" y="32" type="line"/>
      <point x="338" y="484" type="line"/>
      <point x="300" y="484" type="line"/>
      <point x="300" y="32" type="line"/>
      <point x="114" y="32" type="line"/>
      <point x="114" y="484" type="line"/>
      <point x="76" y="484" type="line"/>
    </contour>
  </outline>
</glyph>
<glyph name="shcha-cy" format="2">
  <advance width="655"/>
  <unicode hex="0449"/>
  <outline>
    <contour>
      <point x="588" y="-130" type="line"/>
      <point x="622" y="-130" type="line"/>
      <point x="622" y="32" type="line"/>
      <point x="562" y="32" type="line"/>
      <point x="562" y="484" type="line"/>
      <point x="524" y="484" type="line"/>
      <point x="524" y="32" type="line"/>
      <point x="338" y="32" type="line"/>
      <point x="338" y="484" type="line"/>
      <point x="300" y="484" type="line"/>
      <point x="300" y="32" type="line"/>
      <point x="114" y="32" type="line"/>
      <point x="114" y="484" type="line"/>
      <point x="76" y="484" type="line"/>
      <point x="76" y="0" type="line"/>
      <point x="588" y="0" type="line"/>
    </contour>
  </outline>
</glyph>
<glyph name="hardsign-cy" format="2">
  <advance width="498"/>
  <unicode hex="044A"/>
  <outline>
    <contour>
      <point x="137" y="0" type="line"/>
      <point x="303" y="0" type="line" smooth="yes"/>
      <point x="400" y="0"/>
      <point x="454" y="55"/>
      <point x="454" y="151" type="curve" smooth="yes"/>
      <point x="454" y="246"/>
      <point x="401" y="298"/>
      <point x="305" y="298" type="curve" smooth="yes"/>
      <point x="175" y="298" type="line"/>
      <point x="175" y="484" type="line"/>
      <point x="9" y="484" type="line"/>
      <point x="9" y="451" type="line"/>
      <point x="137" y="451" type="line"/>
    </contour>
    <contour>
      <point x="175" y="33" type="line"/>
      <point x="175" y="265" type="line"/>
      <point x="305" y="265" type="line" smooth="yes"/>
      <point x="378" y="265"/>
      <point x="415" y="227"/>
      <point x="415" y="150" type="curve" smooth="yes"/>
      <point x="415" y="72"/>
      <point x="378" y="33"/>
      <point x="303" y="33" type="curve" smooth="yes"/>
    </contour>
  </outline>
</glyph>
<glyph name="softsign-cy" format="2">
  <advance width="437"/>
  <unicode hex="044C"/>
  <outline>
    <contour>
      <point x="76" y="0" type="line"/>
      <point x="242" y="0" type="line" smooth="yes"/>
      <point x="339" y="0"/>
      <point x="393" y="55"/>
      <point x="393" y="151" type="curve" smooth="yes"/>
      <point x="393" y="246"/>
      <point x="340" y="298"/>
      <point x="244" y="298" type="curve" smooth="yes"/>
      <point x="114" y="298" type="line"/>
      <point x="114" y="484" type="line"/>
      <point x="76" y="484" type="line"/>
    </contour>
    <contour>
      <point x="114" y="33" type="line"/>
      <point x="114" y="265" type="line"/>
      <point x="244" y="265" type="line" smooth="yes"/>
      <point x="317" y="265"/>
      <point x="354" y="227"/>
      <point x="354" y="150" type="curve" smooth="yes"/>
      <point x="354" y="72"/>
      <point x="317" y="33"/>
      <point x="242" y="33" type="curve" smooth="yes"/>
    </contour>
  </outline>
</glyph>
<glyph name="ia-cy" format="2">
  <advance width="435"/>
  <unicode hex="044F"/>
  <outline>
    <contour>
      <point x="46" y="0" type="line"/>
      <point x="90" y="0" type="line"/>
      <point x="158" y="145" type="line" smooth="yes"/>
      <point x="179" y="189"/>
      <point x="201" y="203"/>
      <point x="248" y="203" type="curve" smooth="yes"/>
      <point x="321" y="203" type="line"/>
      <point x="321" y="0" type="line"/>
      <point x="359" y="0" type="line"/>
      <point x="359" y="484" type="line"/>
      <point x="205" y="484" type="line" smooth="yes"/>
      <point x="113" y="484"/>
      <point x="61" y="434"/>
      <point x="61" y="344" type="curve" smooth="yes"/>
      <point x="61" y="258"/>
      <point x="114" y="205"/>
      <point x="202" y="205" type="curve"/>
      <point x="205" y="214" type="line"/>
      <point x="200" y="214" type="line" smooth="yes"/>
      <point x="166" y="214"/>
      <point x="144" y="198"/>
      <point x="125" y="159" type="curve" smooth="yes"/>
    </contour>
    <contour>
      <point x="208" y="236" type="line" smooth="yes"/>
      <point x="139" y="236"/>
      <point x="100" y="275"/>
      <point x="100" y="345" type="curve" smooth="yes"/>
      <point x="100" y="414"/>
      <point x="138" y="451"/>
      <point x="208" y="451" type="curve" smooth="yes"/>
      <point x="321" y="451" type="line"/>
      <point x="321" y="236" type="line"/>
    </contour>
  </outline>
</glyph>
<glyph name="dje-cy" format="2">
  <advance width="463"/>
  <unicode hex="0452"/>
  <outline>
    <contour>
      <point x="252" y="-185" type="line"/>
      <point x="359" y="-159"/>
      <point x="391" y="-108"/>
      <point x="391" y="34" type="curve" smooth="yes"/>
      <point x="391" y="327" type="line" smooth="yes"/>
      <point x="391" y="448"/>
      <point x="335" y="492"/>
      <point x="254" y="492" type="curve" smooth="yes"/>
      <point x="178" y="492"/>
      <point x="125" y="448"/>
      <point x="105" y="385" type="curve"/>
      <point x="114" y="385" type="line"/>
      <point x="114" y="562" type="line"/>
      <point x="272" y="562" type="line"/>
      <point x="272" y="595" type="line"/>
      <point x="114" y="595" type="line"/>
      <point x="114" y="705" type="line"/>
      <point x="76" y="705" type="line"/>
      <point x="76" y="595" type="line"/>
      <point x="-1" y="595" type="line"/>
      <point x="-1" y="562" type="line"/>
      <point x="76" y="562" type="line"/>
      <point x="76" y="0" type="line"/>
      <point x="114" y="0" type="line"/>
      <point x="114" y="305" type="line" smooth="yes"/>
      <point x="114" y="401"/>
      <point x="176" y="456"/>
      <point x="253" y="456" type="curve" smooth="yes"/>
      <point x="313" y="456"/>
      <point x="353" y="428"/>
      <point x="353" y="324" type="curve" smooth="yes"/>
      <point x="353" y="31" type="line" smooth="yes"/>
      <point x="353" y="-89"/>
      <point x="330" y="-127"/>
      <point x="244" y="-151" type="curve"/>
    </contour>
  </outline>
</glyph>
<glyph name="nje-cy" format="2">
  <advance width="721"/>
  <unicode hex="045A"/>
  <outline>
    <contour>
      <point x="76" y="0" type="line"/>
      <point x="114" y="0" type="line"/>
      <point x="114" y="234" type="line"/>
      <point x="360" y="234" type="line"/>
      <point x="360" y="0" type="line"/>
      <point x="526" y="0" type="line" smooth="yes"/>
      <point x="623" y="0"/>
      <point x="677" y="55"/>
      <point x="677" y="151" type="curve" smooth="yes"/>
      <point x="677" y="246"/>
      <point x="624" y="298"/>
      <point x="528" y="298" type="curve" smooth="yes"/>
      <point x="398" y="298" type="line"/>
      <point x="398" y="484" type="line"/>
      <point x="360" y="484" type="line"/>
      <point x="360" y="267" type="line"/>
      <point x="114" y="267" type="line"/>
      <point x="114" y="484" type="line"/>
      <point x="76" y="484" type="line"/>
    </contour>
    <contour>
      <point x="398" y="33" type="line"/>
      <point x="398" y="265" type="line"/>
      <point x="528" y="265" type="line" smooth="yes"/>
      <point x="601" y="265"/>
      <point x="638" y="227"/>
      <point x="638" y="150" type="curve" smooth="yes"/>
      <point x="638" y="72"/>
      <point x="601" y="33"/>
      <point x="526" y="33" type="curve" smooth="yes"/>
    </contour>
  </outline>
</glyph>
<glyph name="dzhe-cy" format="2">
  <advance width="471"/>
  <unicode hex="045F"/>
  <outline>
    <contour>
      <point x="218" y="-130" type="line"/>
      <point x="252" y="-130" type="line"/>
      <point x="252" y="0" type="line"/>
      <point x="395" y="0" type="line"/>
      <point x="395" y="484" type="line"/>
      <point x="357" y="484" type="line"/>
      <point x="357" y="32" type="line"/>
      <point x="114" y="32" type="line"/>
      <point x="114" y="484" type="line"/>
      <point x="76" y="484" type="line"/>
      <point x="76" y="0" type="line"/>
      <point x="218" y="0" type="line"/>
    </contour>
  </outline>
</glyph>
<glyph name="Yat-cy" format="2">
  <advance width="587"/>
  <unicode hex="0462"/>
  <outline>
    <contour>
      <point x="131" y="0" type="line"/>
      <point x="347" y="0" type="line" smooth="yes"/>
      <point x="469" y="0"/>
      <point x="538" y="68"/>
      <point x="538" y="190" type="curve" smooth="yes"/>
      <point x="538" y="311"/>
      <point x="471" y="377"/>
      <point x="349" y="377" type="curve" smooth="yes"/>
      <point x="169" y="377" type="line"/>
      <point x="169" y="550" type="line"/>
      <point x="363" y="550" type="line"/>
      <point x="363" y="585" type="line"/>
      <point x="169" y="585" type="line"/>
      <point x="169" y="705" type="line"/>
      <point x="131" y="705" type="line"/>
      <point x="131" y="585" type="line"/>
      <point x="-10" y="585" type="line"/>
      <point x="-10" y="550" type="line"/>
      <point x="131" y="550" type="line"/>
    </contour>
    <contour>
      <point x="169" y="35" type="line"/>
      <point x="169" y="342" type="line"/>
      <point x="349" y="342" type="line" smooth="yes"/>
      <point x="449" y="342"/>
      <point x="498" y="291"/>
      <point x="498" y="189" type="curve" smooth="yes"/>
      <point x="498" y="87"/>
      <point x="447" y="35"/>
      <point x="347" y="35" type="curve" smooth="yes"/>
    </contour>
  </outline>
</glyph>
<glyph name="yusbig-cy" format="2">
  <advance width="628"/>
  <unicode hex="046B"/>
  <outline>
    <contour>
      <point x="12" y="0" type="line"/>
      <point x="56" y="0" type="line"/>
      <point x="135" y="158" type="line" smooth="yes"/>
      <point x="164" y="215"/>
      <point x="175" y="235"/>
      <point x="227" y="235" type="curve" smooth="yes"/>
      <point x="295" y="235" type="line"/>
      <point x="295" y="0" type="line"/>
      <point x="333" y="0" type="line"/>
      <point x="333" y="235" type="line"/>
      <point x="401" y="235" type="line" smooth="yes"/>
      <point x="453" y="235"/>
      <point x="464" y="215"/>
      <point x="493" y="158" type="curve" smooth="yes"/>
      <point x="572" y="0" type="line"/>
      <point x="616" y="0" type="line"/>
      <point x="529" y="166" type="line" smooth="yes"/>
      <point x="488" y="245"/>
      <point x="476" y="267"/>
      <point x="398" y="267" type="curve" smooth="yes"/>
      <point x="341" y="267" type="line"/>
      <point x="342" y="261" type="line"/>
      <point x="500" y="484" type="line"/>
      <point x="128" y="484" type="line"/>
      <point x="286" y="261" type="line"/>
      <point x="287" y="267" type="line"/>
      <point x="230" y="267" type="line" smooth="yes"/>
      <point x="152" y="267"/>
      <point x="140" y="245"/>
      <point x="99" y="166" type="curve" smooth="yes"/>
    </contour>
    <contour>
      <point x="313" y="278" type="line"/>
      <point x="183" y="464" type="line"/>
      <point x="183" y="453" type="line"/>
      <point x="444" y="453" type="line"/>
      <point x="444" y="464" type="line"/>
      <point x="315" y="278" type="line"/>
    </contour>
  </outline>
</glyph>
<glyph name="Izhitsa-cy" format="2">
  <advance width="597"/>
  <unicode hex="0474"/>
  <outline>
    <contour>
      <point x="258" y="0" type="line"/>
      <point x="296" y="0" type="line"/>
      <point x="477" y="544" type="line" smooth="yes"/>
      <point x="513" y="652"/>
      <point x="543" y="681"/>
      <point x="619" y="681" type="curve"/>
      <point x="615" y="713" type="line"/>
      <point x="520" y="713"/>
      <point x="481" y="675"/>
      <point x="438" y="542" type="curve" smooth="yes"/>
      <point x="267" y="18" type="line"/>
      <point x="288" y="18" type="line"/>
      <point x="52" y="705" type="line"/>
      <point x="12" y="705" type="line"/>
    </contour>
  </outline>
</glyph>
<glyph name="izhitsa-cy" format="2">
  <advance width="443"/>
  <unicode hex="0475"/>
  <outline>
    <contour>
      <point x="192" y="0" type="line"/>
      <point x="232" y="0" type="line"/>
      <point x="359" y="372" type="line" smooth="yes"/>
      <point x="383" y="442"/>
      <point x="401" y="459"/>
      <point x="453" y="461" type="curve"/>
      <point x="449" y="492" type="line"/>
      <point x="384" y="492"/>
      <point x="354" y="473"/>
      <point x="327" y="392" type="curve" smooth="yes"/>
      <point x="198" y="4" type="line"/>
      <point x="228" y="4" type="line"/>
      <point x="66" y="484" type="line"/>
      <point x="24" y="484" type="line"/>
    </contour>
  </outline>
</glyph>
<glyph name="Semisoftsign-cy" format="2">
  <advance width="578"/>
  <unicode hex="048C"/>
  <outline>
    <contour>
      <point x="123" y="0" type="line"/>
      <point x="344" y="0" type="line" smooth="yes"/>
      <point x="463" y="0"/>
      <point x="529" y="63"/>
      <point x="529" y="190" type="curve" smooth="yes"/>
      <point x="529" y="316"/>
      <point x="463" y="377"/>
      <point x="344" y="377" type="curve" smooth="yes"/>
      <point x="160" y="377" type="line"/>
      <point x="160" y="550" type="line"/>
      <point x="277" y="550" type="line"/>
      <point x="277" y="585" type="line"/>
      <point x="160" y="585" type="line"/>
      <point x="160" y="705" type="line"/>
      <point x="123" y="705" type="line"/>
      <point x="123" y="585" type="line"/>
      <point x="6" y="585" type="line"/>
      <point x="6" y="550" type="line"/>
      <point x="123" y="550" type="line"/>
    </contour>
    <contour>
      <point x="160" y="35" type="line"/>
      <point x="160" y="342" type="line"/>
      <point x="343" y="342" type="line" smooth="yes"/>
      <point x="441" y="342"/>
      <point x="490" y="293"/>
      <point x="490" y="189" type="curve" smooth="yes"/>
      <point x="490" y="85"/>
      <point x="441" y="35"/>
      <point x="343" y="35" type="curve" smooth="yes"/>
    </contour>
  </outline>
</glyph>
<glyph name="ertick-cy" format="2">
  <advance width="478"/>
  <unicode hex="048F"/>
  <outline>
    <contour>
      <point x="76" y="-180" type="line"/>
      <point x="114" y="-180" type="line"/>
      <point x="114" y="121" type="line"/>
      <point x="105" y="121" type="line"/>
      <point x="123" y="36"/>
      <point x="174" y="-8"/>
      <point x="253" y="-8" type="curve" smooth="yes"/>
      <point x="290" y="-8"/>
      <point x="322" y="2"/>
      <point x="348" y="22" type="curve"/>
      <point x="339" y="26" type="line"/>
      <point x="381" y="-35" type="line"/>
      <point x="403" y="-17" type="line"/>
      <point x="362" y="44" type="line"/>
      <point x="362" y="34" type="line"/>
      <point x="405" y="75"/>
      <point x="428" y="146"/>
      <point x="428" y="242" type="curve" smooth="yes"/>
      <point x="428" y="401"/>
      <point x="364" y="492"/>
      <point x="253" y="492" type="curve" smooth="yes"/>
      <point x="174" y="492"/>
      <point x="123" y="448"/>
      <point x="105" y="363" type="curve"/>
      <point x="114" y="363" type="line"/>
      <point x="114" y="484" type="line"/>
      <point x="76" y="484" type="line"/>
    </contour>
    <contour>
      <point x="251" y="28" type="curve" smooth="yes"/>
      <point x="160" y="28"/>
      <point x="113" y="101"/>
      <point x="113" y="242" type="curve" smooth="yes"/>
      <point x="113" y="383"/>
      <point x="160" y="456"/>
      <point x="251" y="456" type="curve" smooth="yes"/>
      <point x="342" y="456"/>
      <point x="389" y="383"/>
      <point x="389" y="242" type="curve" smooth="yes"/>
      <point x="389" y="160"/>
      <point x="373" y="101"/>
      <point x="342" y="66" type="curve"/>
      <point x="348" y="65" type="line"/>
      <point x="306" y="127" type="line"/>
      <point x="281" y="110" type="line"/>
      <point x="326" y="45" type="line"/>
      <point x="327" y="52" type="line"/>
      <point x="307" y="36"/>
      <point x="281" y="28"/>
    </contour>
  </outline>
</glyph>
<glyph name="Ghestroke-cy" format="2">
  <advance width="465"/>
  <unicode hex="0492"/>
  <outline>
    <contour>
      <point x="109" y="0" type="line"/>
      <point x="147" y="0" type="line"/>
      <point x="147" y="341" type="line"/>
      <point x="300" y="341" type="line"/>
      <point x="300" y="375" type="line"/>
      <point x="147" y="375" type="line"/>
      <point x="147" y="670" type="line"/>
      <point x="449" y="670" type="line"/>
      <point x="449" y="705" type="line"/>
      <point x="109" y="705" type="line"/>
      <point x="109" y="375" type="line"/>
      <point x="28" y="375" type="line"/>
      <point x="28" y="341" type="line"/>
      <point x="109" y="341" type="line"/>
    </contour>
  </outline>
</glyph>
<glyph name="ghestroke-cy" format="2">
  <advance width="365"/>
  <unicode hex="0493"/>
  <outline>
    <contour>
      <point x="91" y="0" type="line"/>
      <point x="129" y="0" type="line"/>
      <point x="129" y="228" type="line"/>
      <point x="250" y="228" type="line"/>
      <point x="250" y="261" type="line"/>
      <point x="129" y="261" type="line"/>
      <point x="129" y="451" type="line"/>
      <point x="349" y="451" type="line"/>
      <point x="349" y="484" type="line"/>
      <point x="91" y="484" type="line"/>
      <point x="91" y="261" type="line"/>
      <point x="10" y="261" type="line"/>
      <point x="10" y="228" type="line"/>
      <point x="91" y="228" type="line"/>
    </contour>
  </outline>
</glyph>
<glyph name="Ghemiddlehook-cy" format="2">
  <advance width="534"/>
  <unicode hex="0494"/>
  <outline>
    <contour>
      <point x="328" y="-188" type="curve" smooth="yes"/>
      <point x="430" y="-188"/>
      <point x="479" y="-120"/>
      <point x="479" y="20" type="curve" smooth="yes"/>
      <point x="479" y="177" type="line" smooth="yes"/>
      <point x="479" y="349"/>
      <point x="416" y="427"/>
      <point x="277" y="427" type="curve" smooth="yes"/>
      <point x="215" y="427"/>
      <point x="158" y="411"/>
      <point x="121" y="383" type="curve"/>
      <point x="121" y="670" type="line"/>
      <point x="337" y="670" type="line"/>
      <point x="337" y="705" type="line"/>
      <point x="83" y="705" type="line"/>
      <point x="83" y="0" type="line"/>
      <point x="121" y="0" type="line"/>
      <point x="121" y="343" type="line"/>
      <point x="162" y="375"/>
      <point x="212" y="391"/>
      <point x="269" y="391" type="curve" smooth="yes"/>
      <point x="394" y="391"/>
      <point x="442" y="329"/>
      <point x="441" y="171" type="curve" smooth="yes"/>
      <point x="440" y="18" type="line" smooth="yes"/>
      <point x="439" y="-103"/>
      <point x="405" y="-153"/>
      <point x="323" y="-153" type="curve" smooth="yes"/>
      <point x="301" y="-153"/>
      <point x="274" y="-148"/>
      <point x="246" y="-136" type="curve"/>
      <point x="235" y="-169" type="line"/>
      <point x="261" y="-181"/>
      <point x="295" y="-188"/>
    </contour>
  </outline>
</glyph>
<glyph name="Zedescender-cy" format="2">
  <advance width="534"/>
  <unicode hex="0498"/>
  <outline>
    <contour>
      <point x="237" y="-150" type="line"/>
      <point x="272" y="-150" type="line"/>
      <point x="272" y="-7" type="line"/>
      <point x="397" y="1"/>
      <point x="471" y="73"/>
      <point x="471" y="189" type="curve" smooth="yes"/>
      <point x="471" y="283"/>
      <point x="427" y="345"/>
      <point x="350" y="365" type="curve"/>
      <point x="351" y="358" type="line"/>
      <point x="416" y="381"/>
      <point x="457" y="450"/>
      <point x="457" y="533" type="curve" smooth="yes"/>
      <point x="457" y="647"/>
      <point x="375" y="713"/>
      <point x="251" y="713" type="curve" smooth="yes"/>
      <point x="166" y="713"/>
      <point x="98" y="681"/>
      <point x="58" y="630" type="curve"/>
      <point x="76" y="597" type="line"/>
      <point x="123" y="650"/>
      <point x="173" y="677"/>
      <point x="249" y="677" type="curve" smooth="yes"/>
      <point x="354" y="677"/>
      <point x="417" y="628"/>
      <point x="417" y="533" type="curve" smooth="yes"/>
      <point x="417" y="437"/>
      <point x="363" y="374"/>
      <point x="280" y="374" type="curve" smooth="yes"/>
      <point x="145" y="374" type="line"/>
      <point x="145" y="339" type="line"/>
      <point x="280" y="339" type="line" smooth="yes"/>
      <point x="377" y="339"/>
      <point x="430" y="287"/>
      <point x="430" y="190" type="curve" smooth="yes"/>
      <point x="430" y="85"/>
      <point x="363" y="28"/>
      <point x="246" y="28" type="curve" smooth="yes"/>
      <point x="169" y="28"/>
      <point x="110" y="54"/>
      <point x="62" y="102" type="curve"/>
      <point x="44" y="70" type="line"/>
      <point x="86" y="23"/>
      <point x="155" y="-6"/>
      <point x="237" y="-8" type="curve"/>
    </contour>
  </outline>
</glyph>
<glyph name="zedescender-cy" format="2">
  <advance width="401"/>
  <unicode hex="0499"/>
  <outline>
    <contour>
      <point x="171" y="-130" type="line"/>
      <point x="206" y="-130" type="line"/>
      <point x="206" y="-7" type="line"/>
      <point x="298" y="-1"/>
      <point x="352" y="49"/>
      <point x="352" y="129" type="curve" smooth="yes"/>
      <point x="352" y="193"/>
      <point x="319" y="239"/>
      <point x="259" y="252" type="curve"/>
      <point x="261" y="245" type="line"/>
      <point x="309" y="261"/>
      <point x="339" y="309"/>
      <point x="339" y="367" type="curve" smooth="yes"/>
      <point x="339" y="445"/>
      <point x="282" y="492"/>
      <point x="189" y="492" type="curve" smooth="yes"/>
      <point x="125" y="492"/>
      <point x="72" y="470"/>
      <point x="41" y="430" type="curve"/>
      <point x="59" y="400" type="line"/>
      <point x="93" y="439"/>
      <point x="132" y="456"/>
      <point x="187" y="456" type="curve" smooth="yes"/>
      <point x="261" y="456"/>
      <point x="300" y="424"/>
      <point x="300" y="363" type="curve" smooth="yes"/>
      <point x="300" y="304"/>
      <point x="263" y="262"/>
      <point x="210" y="262" type="curve" smooth="yes"/>
      <point x="110" y="262" type="line"/>
      <point x="110" y="230" type="line"/>
      <point x="210" y="230" type="line" smooth="yes"/>
      <point x="276" y="230"/>
      <point x="313" y="194"/>
      <point x="313" y="132" type="curve" smooth="yes"/>
      <point x="313" y="65"/>
      <point x="268" y="27"/>
      <point x="187" y="27" type="curve" smooth="yes"/>
      <point x="133" y="27"/>
      <point x="89" y="45"/>
      <point x="52" y="82" type="curve"/>
      <point x="35" y="50" type="line"/>
      <point x="65" y="16"/>
      <point x="114" y="-5"/>
      <point x="171" y="-8" type="curve"/>
    </contour>
  </outline>
</glyph>
<glyph name="kaverticalstroke-cy" format="2">
  <advance width="422"/>
  <unicode hex="049D"/>
  <outline>
    <contour>
      <point x="76" y="0" type="line"/>
      <point x="114" y="0" type="line"/>
      <point x="114" y="235" type="line"/>
      <point x="160" y="235" type="line"/>
      <point x="160" y="112" type="line"/>
      <point x="192" y="112" type="line"/>
      <point x="192" y="245" type="line"/>
      <point x="182" y="235" type="line"/>
      <point x="195" y="235" type="line" smooth="yes"/>
      <point x="247" y="235"/>
      <point x="258" y="215"/>
      <point x="287" y="158" type="curve" smooth="yes"/>
      <point x="366" y="0" type="line"/>
      <point x="410" y="0" type="line"/>
      <point x="323" y="166" type="line" smooth="yes"/>
      <point x="282" y="245"/>
      <point x="271" y="257"/>
      <point x="222" y="266" type="curve"/>
      <point x="236" y="257" type="line"/>
      <point x="385" y="484" type="line"/>
      <point x="341" y="484" type="line"/>
      <point x="201" y="267" type="line"/>
      <point x="192" y="267" type="line"/>
      <point x="192" y="382" type="line"/>
      <point x="160" y="382" type="line"/>
      <point x="160" y="267" type="line"/>
      <point x="114" y="267" type="line"/>
      <point x="114" y="484" type="line"/>
      <point x="76" y="484" type="line"/>
    </contour>
  </outline>
</glyph>
<glyph name="kabashkir-cy" format="2">
  <advance width="479"/>
  <unicode hex="04A1"/>
  <outline>
    <contour>
      <point x="137" y="0" type="line"/>
      <point x="175" y="0" type="line"/>
      <point x="175" y="235" type="line"/>
      <point x="252" y="235" type="line" smooth="yes"/>
      <point x="304" y="235"/>
      <point x="315" y="215"/>
      <point x="344" y="158" type="curve" smooth="yes"/>
      <point x="423" y="0" type="line"/>
      <point x="467" y="0" type="line"/>
      <point x="380" y="166" type="line" smooth="yes"/>
      <point x="339" y="245"/>
      <point x="328" y="257"/>
      <point x="279" y="266" type="curve"/>
      <point x="293" y="257" type="line"/>
      <point x="442" y="484" type="line"/>
      <point x="398" y="484" type="line"/>
      <point x="258" y="267" type="line"/>
      <point x="175" y="267" type="line"/>
      <point x="175" y="484" type="line"/>
      <point x="9" y="484" type="line"/>
      <point x="9" y="451" type="line"/>
      <point x="137" y="451" type="line"/>
    </contour>
  </outline>
</glyph>
<glyph name="endescender-cy" format="2">
  <advance width="486"/>
  <unicode hex="04A3"/>
  <outline>
    <contour>
      <point x="422" y="-130" type="line"/>
      <point x="456" y="-130" type="line"/>
      <point x="456" y="33" type="line"/>
      <point x="398" y="33" type="line"/>
      <point x="398" y="484" type="line"/>
      <point x="360" y="484" type="line"/>
      <point x="360" y="267" type="line"/>
      <point x="114" y="267" type="line"/>
      <point x="114" y="484" type="line"/>
      <point x="76" y="484" type="line"/>
      <point x="76" y="0" type="line"/>
      <point x="114" y="0" type="line"/>
      <point x="114" y="234" type="line"/>
      <point x="360" y="234" type="line"/>
      <point x="360" y="0" type="line"/>
      <point x="422" y="0" type="line"/>
    </contour>
  </outline>
</glyph>
<glyph name="ustraightstroke-cy" format="2">
  <advance width="420"/>
  <unicode hex="04B1"/>
  <outline>
    <contour>
      <point x="191" y="-180" type="line"/>
      <point x="229" y="-180" type="line"/>
      <point x="229" y="-32" type="line"/>
      <point x="326" y="-32" type="line"/>
      <point x="326" y="0" type="line"/>
      <point x="226" y="0" type="line"/>
      <point x="226" y="-11" type="line"/>
      <point x="398" y="484" type="line"/>
      <point x="358" y="484" type="line"/>
      <point x="196" y="4" type="line"/>
      <point x="226" y="4" type="line"/>
      <point x="64" y="484" type="line"/>
      <point x="22" y="484" type="line"/>
      <point x="194" y="-11" type="line"/>
      <point x="194" y="0" type="line"/>
      <point x="94" y="0" type="line"/>
      <point x="94" y="-32" type="line"/>
      <point x="191" y="-32" type="line"/>
    </contour>
  </outline>
</glyph>
<glyph name="Tetse-cy" format="2">
  <advance width="742"/>
  <unicode hex="04B4"/>
  <outline>
    <contour>
      <point x="682" y="-149" type="line"/>
      <point x="718" y="-149" type="line"/>
      <point x="718" y="35" type="line"/>
      <point x="637" y="35" type="line"/>
      <point x="637" y="705" type="line"/>
      <point x="599" y="705" type="line"/>
      <point x="599" y="35" type="line"/>
      <point x="224" y="35" type="line"/>
      <point x="224" y="670" type="line"/>
      <point x="401" y="670" type="line"/>
      <point x="401" y="705" type="line"/>
      <point x="9" y="705" type="line"/>
      <point x="9" y="670" type="line"/>
      <point x="186" y="670" type="line"/>
      <point x="186" y="0" type="line"/>
      <point x="682" y="0" type="line"/>
    </contour>
  </outline>
</glyph>
<glyph name="Chedescender-cy" format="2">
  <advance width="586"/>
  <unicode hex="04B6"/>
  <outline>
    <contour>
      <point x="508" y="-150" type="line"/>
      <point x="544" y="-150" type="line"/>
      <point x="544" y="35" type="line"/>
      <point x="463" y="35" type="line"/>
      <point x="463" y="705" type="line"/>
      <point x="425" y="705" type="line"/>
      <point x="425" y="362" type="line"/>
      <point x="384" y="330"/>
      <point x="334" y="314"/>
      <point x="277" y="314" type="curve" smooth="yes"/>
      <point x="144" y="314"/>
      <point x="94" y="375"/>
      <point x="94" y="534" type="curve" smooth="yes"/>
      <point x="94" y="705" type="line"/>
      <point x="56" y="705" type="line"/>
      <point x="56" y="528" type="line" smooth="yes"/>
      <point x="56" y="356"/>
      <point x="122" y="278"/>
      <point x="269" y="278" type="curve" smooth="yes"/>
      <point x="331" y="278"/>
      <point x="388" y="294"/>
      <point x="425" y="322" type="curve"/>
      <point x="425" y="0" type="line"/>
      <point x="508" y="0" type="line"/>
    </contour>
  </outline>
</glyph>
<glyph name="Cheverticalstroke-cy" format="2">
  <advance width="546"/>
  <unicode hex="04B8"/>
  <outline>
    <contour>
      <point x="425" y="0" type="line"/>
      <point x="463" y="0" type="line"/>
      <point x="463" y="705" type="line"/>
      <point x="425" y="705" type="line"/>
      <point x="425" y="362" type="line"/>
      <point x="384" y="330"/>
      <point x="334" y="314"/>
      <point x="277" y="314" type="curve"/>
      <point x="282" y="304" type="line"/>
      <point x="282" y="494" type="line"/>
      <point x="250" y="494" type="line"/>
      <point x="250" y="304" type="line"/>
      <point x="267" y="314" type="line"/>
      <point x="142" y="317"/>
      <point x="94" y="379"/>
      <point x="94" y="534" type="curve" smooth="yes"/>
      <point x="94" y="705" type="line"/>
      <point x="56" y="705" type="line"/>
      <point x="56" y="528" type="line" smooth="yes"/>
      <point x="56" y="358"/>
      <point x="121" y="280"/>
      <point x="264" y="278" type="curve"/>
      <point x="250" y="288" type="line"/>
      <point x="250" y="116" type="line"/>
      <point x="282" y="116" type="line"/>
      <point x="282" y="288" type="line"/>
      <point x="269" y="278" type="line"/>
      <point x="331" y="278"/>
      <point x="388" y="294"/>
      <point x="425" y="322" type="curve"/>
    </contour>
  </outline>
</glyph>
<glyph name="Shha-cy" format="2">
  <advance width="546"/>
  <unicode hex="04BA"/>
  <anchor x="452" y="0" name="bottomright"/>
  <outline>
    <contour>
      <point x="83" y="0" type="line"/>
      <point x="121" y="0" type="line"/>
      <point x="121" y="343" type="line"/>
      <point x="162" y="375"/>
      <point x="212" y="391"/>
      <point x="269" y="391" type="curve" smooth="yes"/>
      <point x="402" y="391"/>
      <point x="452" y="330"/>
      <point x="452" y="171" type="curve" smooth="yes"/>
      <point x="452" y="0" type="line"/>
      <point x="490" y="0" type="line"/>
      <point x="490" y="177" type="line" smooth="yes"/>
      <point x="490" y="349"/>
      <point x="424" y="427"/>
      <point x="277" y="427" type="curve" smooth="yes"/>
      <point x="215" y="427"/>
      <point x="158" y="411"/>
      <point x="121" y="383" type="curve"/>
      <point x="121" y="705" type="line"/>
      <point x="83" y="705" type="line"/>
    </contour>
  </outline>
</glyph>
<glyph name="Cheabkhasian-cy" format="2">
  <advance width="735"/>
  <unicode hex="04BC"/>
  <anchor x="477" y="0" name="ogonek"/>
  <outline>
    <contour>
      <point x="444" y="-8" type="curve" smooth="yes"/>
      <point x="529" y="-8"/>
      <point x="600" y="20"/>
      <point x="654" y="75" type="curve"/>
      <point x="637" y="105" type="line"/>
      <point x="584" y="52"/>
      <point x="524" y="28"/>
      <point x="447" y="28" type="curve" smooth="yes"/>
      <point x="290" y="28"/>
      <point x="215" y="128"/>
      <point x="213" y="337" type="curve"/>
      <point x="206" y="331" type="line"/>
      <point x="675" y="331" type="line"/>
      <point x="675" y="358" type="line" smooth="yes"/>
      <point x="675" y="588"/>
      <point x="588" y="713"/>
      <point x="428" y="713" type="curve" smooth="yes"/>
      <point x="267" y="713"/>
      <point x="175" y="584"/>
      <point x="173" y="356" type="curve"/>
      <point x="182" y="366" type="line"/>
      <point x="160" y="366" type="line" smooth="yes"/>
      <point x="90" y="366"/>
      <point x="63" y="395"/>
      <point x="63" y="472" type="curve" smooth="yes"/>
      <point x="63" y="542" type="line"/>
      <point x="27" y="542" type="line"/>
      <point x="27" y="469" type="line" smooth="yes"/>
      <point x="27" y="373"/>
      <point x="67" y="331"/>
      <point x="160" y="331" type="curve" smooth="yes"/>
      <point x="180" y="331" type="line"/>
      <point x="173" y="337" type="line"/>
      <point x="176" y="108"/>
      <point x="267" y="-8"/>
    </contour>
    <contour>
      <point x="428" y="677" type="curve" smooth="yes"/>
      <point x="565" y="677"/>
      <point x="636" y="566"/>
      <point x="636" y="352" type="curve"/>
      <point x="646" y="366" type="line"/>
      <point x="207" y="366" type="line"/>
      <point x="213" y="355" type="line"/>
      <point x="215" y="566"/>
      <point x="291" y="677"/>
    </contour>
  </outline>
</glyph>
<glyph name="kahook-cy" format="2">
  <advance width="431"/>
  <unicode hex="04C4"/>
  <outline>
    <contour>
      <point x="241" y="-185" type="line"/>
      <point x="348" y="-159"/>
      <point x="383" y="-104"/>
      <point x="383" y="38" type="curve" smooth="yes"/>
      <point x="383" y="83" type="line" smooth="yes"/>
      <point x="383" y="205"/>
      <point x="329" y="267"/>
      <point x="223" y="267" type="curve"/>
      <point x="232" y="257" type="line"/>
      <point x="381" y="484" type="line"/>
      <point x="337" y="484" type="line"/>
      <point x="197" y="267" type="line"/>
      <point x="114" y="267" type="line"/>
      <point x="114" y="484" type="line"/>
      <point x="76" y="484" type="line"/>
      <point x="76" y="0" type="line"/>
      <point x="114" y="0" type="line"/>
      <point x="114" y="235" type="line"/>
      <point x="221" y="235" type="line" smooth="yes"/>
      <point x="307" y="235"/>
      <point x="345" y="188"/>
      <point x="345" y="79" type="curve" smooth="yes"/>
      <point x="345" y="35" type="line" smooth="yes"/>
      <point x="345" y="-86"/>
      <point x="320" y="-128"/>
      <point x="232" y="-152" type="curve"/>
    </contour>
  </outline>
</glyph>
<glyph name="Dzeabkhasian-cy" format="2">
  <advance width="534"/>
  <unicode hex="04E0"/>
  <outline>
    <contour>
      <point x="248" y="-8" type="curve" smooth="yes"/>
      <point x="388" y="-8"/>
      <point x="471" y="66"/>
      <point x="471" y="189" type="curve" smooth="yes"/>
      <point x="471" y="305"/>
      <point x="402" y="374"/>
      <point x="287" y="374" type="curve" smooth="yes"/>
      <point x="225" y="374" type="line"/>
      <point x="225" y="360" type="line"/>
      <point x="448" y="678" type="line"/>
      <point x="448" y="705" type="line"/>
      <point x="56" y="705" type="line"/>
      <point x="56" y="670" type="line"/>
      <point x="413" y="670" type="line"/>
      <point x="413" y="690" type="line"/>
      <point x="191" y="371" type="line"/>
      <point x="191" y="339" type="line"/>
      <point x="280" y="339" type="line" smooth="yes"/>
      <point x="377" y="339"/>
      <point x="430" y="287"/>
      <point x="430" y="190" type="curve" smooth="yes"/>
      <point x="430" y="86"/>
      <point x="365" y="29"/>
      <point x="246" y="29" type="curve" smooth="yes"/>
      <point x="171" y="29"/>
      <point x="111" y="53"/>
      <point x="62" y="102" type="curve"/>
      <point x="44" y="70" type="line"/>
      <point x="89" y="20"/>
      <point x="162" y="-8"/>
    </contour>
  </outline>
</glyph>
<glyph name="Gestrokehook-cy" format="2">
  <advance width="465"/>
  <unicode hex="04FA"/>
  <outline>
    <contour>
      <point x="82" y="-180" type="line"/>
      <point x="110" y="-178" type="line" smooth="yes"/>
      <point x="184" y="-173"/>
      <point x="229" y="-122"/>
      <point x="229" y="-2" type="curve" smooth="yes"/>
      <point x="229" y="34" type="line"/>
      <point x="147" y="34" type="line"/>
      <point x="147" y="341" type="line"/>
      <point x="300" y="341" type="line"/>
      <point x="300" y="375" type="line"/>
      <point x="147" y="375" type="line"/>
      <point x="147" y="670" type="line"/>
      <point x="449" y="670" type="line"/>
      <point x="449" y="705" type="line"/>
      <point x="109" y="705" type="line"/>
      <point x="109" y="375" type="line"/>
      <point x="28" y="375" type="line"/>
      <point x="28" y="341" type="line"/>
      <point x="109" y="341" type="line"/>
      <point x="109" y="0" type="line"/>
      <point x="192" y="0" type="line"/>
      <point x="192" y="-98"/>
      <point x="165" y="-138"/>
      <point x="106" y="-142" type="curve" smooth="yes"/>
      <point x="79" y="-144" type="line"/>
    </contour>
  </outline>
</glyph>
<glyph name="reversedze-cy" format="2">
  <advance width="401"/>
  <unicode hex="0511"/>
  <outline>
    <contour>
      <point x="215" y="-8" type="curve" smooth="yes"/>
      <point x="278" y="-8"/>
      <point x="333" y="13"/>
      <point x="366" y="50" type="curve"/>
      <point x="349" y="82" type="line"/>
      <point x="312" y="45"/>
      <point x="268" y="27"/>
      <point x="214" y="27" type="curve" smooth="yes"/>
      <point x="133" y="27"/>
      <point x="88" y="65"/>
      <point x="88" y="132" type="curve" smooth="yes"/>
      <point x="88" y="194"/>
      <point x="125" y="230"/>
      <point x="191" y="230" type="curve" smooth="yes"/>
      <point x="291" y="230" type="line"/>
      <point x="291" y="262" type="line"/>
      <point x="191" y="262" type="line" smooth="yes"/>
      <point x="138" y="262"/>
      <point x="101" y="304"/>
      <point x="101" y="363" type="curve" smooth="yes"/>
      <point x="101" y="424"/>
      <point x="140" y="456"/>
      <point x="214" y="456" type="curve" smooth="yes"/>
      <point x="269" y="456"/>
      <point x="308" y="439"/>
      <point x="342" y="400" type="curve"/>
      <point x="360" y="430" type="line"/>
      <point x="329" y="470"/>
      <point x="276" y="492"/>
      <point x="212" y="492" type="curve" smooth="yes"/>
      <point x="119" y="492"/>
      <point x="62" y="445"/>
      <point x="62" y="367" type="curve" smooth="yes"/>
      <point x="62" y="308"/>
      <point x="93" y="260"/>
      <point x="142" y="244" type="curve"/>
      <point x="142" y="252" type="line"/>
      <point x="83" y="239"/>
      <point x="49" y="194"/>
      <point x="49" y="129" type="curve" smooth="yes"/>
      <point x="49" y="43"/>
      <point x="111" y="-8"/>
    </contour>
  </outline>
</glyph>
<glyph name="Pedescender-cy" format="2">
  <advance width="657"/>
  <unicode hex="0524"/>
  <outline>
    <contour>
      <point x="579" y="-150" type="line"/>
      <point x="615" y="-150" type="line"/>
      <point x="615" y="35" type="line"/>
      <point x="534" y="35" type="line"/>
      <point x="534" y="705" type="line"/>
      <point x="83" y="705" type="line"/>
      <point x="83" y="0" type="line"/>
      <point x="121" y="0" type="line"/>
      <point x="121" y="671" type="line"/>
      <point x="496" y="671" type="line"/>
      <point x="496" y="0" type="line"/>
      <point x="579" y="0" type="line"/>
    </contour>
  </outline>
</glyph>
<glyph name="pedescender-cy" format="2">
  <advance width="483"/>
  <unicode hex="0525"/>
  <outline>
    <contour>
      <point x="419" y="-130" type="line"/>
      <point x="453" y="-130" type="line"/>
      <point x="453" y="33" type="line"/>
      <point x="395" y="33" type="line"/>
      <point x="395" y="484" type="line"/>
      <point x="76" y="484" type="line"/>
      <point x="76" y="0" type="line"/>
      <point x="114" y="0" type="line"/>
      <point x="114" y="452" type="line"/>
      <point x="357" y="452" type="line"/>
      <point x="357" y="0" type="line"/>
      <point x="419" y="0" type="line"/>
    </contour>
  </outline>
</glyph>
<glyph name="figuredash" format="2">
  <advance width="498"/>
  <unicode hex="2012"/>
  <outline>
    <contour>
      <point x="67" y="250" type="line"/>
      <point x="431" y="250" type="line"/>
      <point x="431" y="280" type="line"/>
      <point x="67" y="280" type="line"/>
    </contour>
  </outline>
</glyph>
<glyph name="quoteleft" format="2">
  <advance width="185"/>
  <unicode hex="2018"/>
  <outline>
    <contour>
      <point x="62" y="549" type="line"/>
      <point x="123" y="549" type="line"/>
      <point x="123" y="612" type="line"/>
      <point x="86" y="612" type="line"/>
      <point x="95" y="604" type="line"/>
      <point x="95" y="643"/>
      <point x="102" y="666"/>
      <point x="123" y="692" type="curve"/>
      <point x="100" y="710" type="line"/>
      <point x="74" y="680"/>
      <point x="62" y="644"/>
      <point x="62" y="601" type="curve" smooth="yes"/>
    </contour>
  </outline>
</glyph>
<glyph name="dagger" format="2">
  <advance width="262"/>
  <unicode hex="2020"/>
  <outline>
    <contour>
      <point x="116" y="157" type="line"/>
      <point x="146" y="157" type="line"/>
      <point x="146" y="557" type="line"/>
      <point x="240" y="557" type="line"/>
      <point x="240" y="585" type="line"/>
      <point x="146" y="585" type="line"/>
      <point x="146" y="705" type="line"/>
      <point x="116" y="705" type="line"/>
      <point x="116" y="585" type="line"/>
      <point x="22" y="585" type="line"/>
      <point x="22" y="557" type="line"/>
      <point x="116" y="557" type="line"/>
    </contour>
  </outline>
</glyph>
<glyph name="daggerdbl" format="2">
  <advance width="262"/>
  <unicode hex="2021"/>
  <outline>
    <contour>
      <point x="116" y="157" type="line"/>
      <point x="146" y="157" type="line"/>
      <point x="146" y="277" type="line"/>
      <point x="240" y="277" type="line"/>
      <point x="240" y="305" type="line"/>
      <point x="146" y="305" type="line"/>
      <point x="146" y="557" type="line"/>
      <point x="240" y="557" type="line"/>
      <point x="240" y="585" type="line"/>
      <point x="146" y="585" type="line"/>
      <point x="146" y="705" type="line"/>
      <point x="116" y="705" type="line"/>
      <point x="116" y="585" type="line"/>
      <point x="22" y="585" type="line"/>
      <point x="22" y="557" type="line"/>
      <point x="116" y="557" type="line"/>
      <point x="116" y="305" type="line"/>
      <point x="22" y="305" type="line"/>
      <point x="22" y="277" type="line"/>
      <point x="116" y="277" type="line"/>
    </contour>
  </outline>
</glyph>
<glyph name="perthousand" format="2">
  <advance width="1075"/>
  <unicode hex="2030"/>
  <outline>
    <contour>
      <point x="886" y="-8" type="curve" smooth="yes"/>
      <point x="974" y="-8"/>
      <point x="1019" y="62"/>
      <point x="1019" y="207" type="curve" smooth="yes"/>
      <point x="1019" y="352"/>
      <point x="974" y="422"/>
      <point x="886" y="422" type="curve" smooth="yes"/>
      <point x="798" y="422"/>
      <point x="753" y="352"/>
      <point x="753" y="207" type="curve" smooth="yes"/>
      <point x="753" y="62"/>
      <point x="798" y="-8"/>
    </contour>
    <contour>
      <point x="886" y="25" type="curve" smooth="yes"/>
      <point x="821" y="25"/>
      <point x="790" y="80"/>
      <point x="790" y="207" type="curve" smooth="yes"/>
      <point x="790" y="334"/>
      <point x="821" y="389"/>
      <point x="886" y="389" type="curve" smooth="yes"/>
      <point x="951" y="389"/>
      <point x="982" y="334"/>
      <point x="982" y="207" type="curve" smooth="yes"/>
      <point x="982" y="80"/>
      <point x="951" y="25"/>
    </contour>
    <contour>
      <point x="224" y="-22" type="line"/>
      <point x="562" y="713" type="line"/>
      <point x="534" y="726" type="line"/>
      <point x="196" y="-9" type="line"/>
    </contour>
    <contour>
      <point x="191" y="282" type="curve" smooth="yes"/>
      <point x="279" y="282"/>
      <point x="324" y="352"/>
      <point x="324" y="497" type="curve" smooth="yes"/>
      <point x="324" y="642"/>
      <point x="279" y="712"/>
      <point x="191" y="712" type="curve" smooth="yes"/>
      <point x="103" y="712"/>
      <point x="58" y="642"/>
      <point x="58" y="497" type="curve" smooth="yes"/>
      <point x="58" y="352"/>
      <point x="103" y="282"/>
    </contour>
    <contour>
      <point x="191" y="315" type="curve" smooth="yes"/>
      <point x="126" y="315"/>
      <point x="95" y="370"/>
      <point x="95" y="497" type="curve" smooth="yes"/>
      <point x="95" y="624"/>
      <point x="126" y="679"/>
      <point x="191" y="679" type="curve" smooth="yes"/>
      <point x="256" y="679"/>
      <point x="287" y="624"/>
      <point x="287" y="497" type="curve" smooth="yes"/>
      <point x="287" y="370"/>
      <point x="256" y="315"/>
    </contour>
    <contour>
      <point x="567" y="-8" type="curve" smooth="yes"/>
      <point x="655" y="-8"/>
      <point x="700" y="62"/>
      <point x="700" y="207" type="curve" smooth="yes"/>
      <point x="700" y="352"/>
      <point x="655" y="422"/>
      <point x="567" y="422" type="curve" smooth="yes"/>
      <point x="479" y="422"/>
      <point x="434" y="352"/>
      <point x="434" y="207" type="curve" smooth="yes"/>
      <point x="434" y="62"/>
      <point x="479" y="-8"/>
    </contour>
    <contour>
      <point x="567" y="25" type="curve" smooth="yes"/>
      <point x="502" y="25"/>
      <point x="471" y="80"/>
      <point x="471" y="207" type="curve" smooth="yes"/>
      <point x="471" y="334"/>
      <point x="502" y="389"/>
      <point x="567" y="389" type="curve" smooth="yes"/>
      <point x="632" y="389"/>
      <point x="663" y="334"/>
      <point x="663" y="207" type="curve" smooth="yes"/>
      <point x="663" y="80"/>
      <point x="632" y="25"/>
    </contour>
  </outline>
</glyph>
<glyph name="guilsinglright" format="2">
  <advance width="205"/>
  <unicode hex="203A"/>
  <outline>
    <contour>
      <point x="75" y="97" type="line"/>
      <point x="151" y="255" type="line"/>
      <point x="151" y="275" type="line"/>
      <point x="75" y="433" type="line"/>
      <point x="46" y="423" type="line"/>
      <point x="113" y="265" type="line"/>
      <point x="46" y="107" type="line"/>
    </contour>
  </outline>
</glyph>
<glyph name="fraction" format="2">
  <advance width="141"/>
  <unicode hex="2044"/>
  <outline>
    <contour>
      <point x="-86" y="-21" type="line"/>
      <point x="257" y="712" type="line"/>
      <point x="227" y="726" type="line"/>
      <point x="-116" y="-7" type="line"/>
    </contour>
  </outline>
</glyph>
<glyph name="won" format="2">
  <advance width="498"/>
  <unicode hex="20A9"/>
  <outline>
    <contour>
      <point x="125" y="0" type="line"/>
      <point x="165" y="0" type="line"/>
      <point x="259" y="678" type="line"/>
      <point x="239" y="678" type="line"/>
      <point x="333" y="0" type="line"/>
      <point x="373" y="0" type="line"/>
      <point x="401" y="261" type="line"/>
      <point x="486" y="261" type="line"/>
      <point x="486" y="293" type="line"/>
      <point x="404" y="293" type="line"/>
      <point x="417" y="411" type="line"/>
      <point x="486" y="411" type="line"/>
      <point x="486" y="443" type="line"/>
      <point x="420" y="443" type="line"/>
      <point x="448" y="705" type="line"/>
      <point x="415" y="705" type="line"/>
      <point x="346" y="10" type="line"/>
      <point x="360" y="10" type="line"/>
      <point x="263" y="705" type="line"/>
      <point x="235" y="705" type="line"/>
      <point x="138" y="10" type="line"/>
      <point x="152" y="10" type="line"/>
      <point x="84" y="705" type="line"/>
      <point x="50" y="705" type="line"/>
      <point x="78" y="443" type="line"/>
      <point x="12" y="443" type="line"/>
      <point x="12" y="411" type="line"/>
      <point x="81" y="411" type="line"/>
      <point x="94" y="293" type="line"/>
      <point x="12" y="293" type="line"/>
      <point x="12" y="261" type="line"/>
      <point x="97" y="261" type="line"/>
    </contour>
  </outline>
</glyph>
<glyph name="euro" format="2">
  <advance width="498"/>
  <unicode hex="20AC"/>
  <outline>
    <contour>
      <point x="312" y="-8" type="curve" smooth="yes"/>
      <point x="376" y="-8"/>
      <point x="430.639" y="10.413"/>
      <point x="474" y="61" type="curve"/>
      <point x="456" y="91" type="line"/>
      <point x="409.042" y="40.43"/>
      <point x="368" y="28"/>
      <point x="316" y="28" type="curve" smooth="yes"/>
      <point x="212" y="28"/>
      <point x="155" y="110"/>
      <point x="141" y="273" type="curve"/>
      <point x="135" y="262" type="line"/>
      <point x="293" y="262" type="line"/>
      <point x="293" y="295" type="line"/>
      <point x="131" y="295" type="line"/>
      <point x="140" y="289" type="line"/>
      <point x="137" y="331"/>
      <point x="137" y="376"/>
      <point x="140" y="418" type="curve"/>
      <point x="130" y="411" type="line"/>
      <point x="293" y="411" type="line"/>
      <point x="293" y="444" type="line"/>
      <point x="129" y="444" type="line"/>
      <point x="141" y="433" type="line"/>
      <point x="155" y="597"/>
      <point x="213" y="677"/>
      <point x="318" y="677" type="curve" smooth="yes"/>
      <point x="367" y="677"/>
      <point x="409.525" y="664.348"/>
      <point x="456" y="614" type="curve"/>
      <point x="474" y="644" type="line"/>
      <point x="430.393" y="694.391"/>
      <point x="376" y="713"/>
      <point x="312" y="713" type="curve" smooth="yes"/>
      <point x="193" y="713"/>
      <point x="119" y="619"/>
      <point x="102" y="440" type="curve"/>
      <point x="113" y="444" type="line"/>
      <point x="12" y="444" type="line"/>
      <point x="12" y="411" type="line"/>
      <point x="108" y="411" type="line"/>
      <point x="100" y="416" type="line"/>
      <point x="97" y="374"/>
      <point x="97" y="331"/>
      <point x="100" y="289" type="curve"/>
      <point x="108" y="295" type="line"/>
      <point x="12" y="295" type="line"/>
      <point x="12" y="262" type="line"/>
      <point x="111" y="262" type="line"/>
      <point x="101" y="274" type="line"/>
      <point x="117" y="89"/>
      <point x="191" y="-8"/>
    </contour>
  </outline>
</glyph>
<glyph name="manat" format="2">
  <advance width="498"/>
  <unicode hex="20BC"/>
  <outline>
    <contour>
      <point x="60" y="0" type="line"/>
      <point x="97" y="0" type="line"/>
      <point x="97" y="220" type="line" smooth="yes"/>
      <point x="97" y="444"/>
      <point x="143" y="554"/>
      <point x="239" y="555" type="curve"/>
      <point x="231" y="564" type="line"/>
      <point x="231" y="160" type="line"/>
      <point x="267" y="160" type="line"/>
      <point x="267" y="564" type="line"/>
      <point x="259" y="555" type="line"/>
      <point x="355" y="554"/>
      <point x="401" y="444"/>
      <point x="401" y="220" type="curve" smooth="yes"/>
      <point x="401" y="0" type="line"/>
      <point x="438" y="0" type="line"/>
      <point x="438" y="220" type="line" smooth="yes"/>
      <point x="438" y="467"/>
      <point x="381" y="582"/>
      <point x="256" y="590" type="curve"/>
      <point x="267" y="576" type="line"/>
      <point x="267" y="705" type="line"/>
      <point x="231" y="705" type="line"/>
      <point x="231" y="576" type="line"/>
      <point x="242" y="590" type="line"/>
      <point x="117" y="582"/>
      <point x="60" y="467"/>
      <point x="60" y="220" type="curve" smooth="yes"/>
    </contour>
  </outline>
</glyph>
<glyph name="ruble" format="2">
  <advance width="498"/>
  <unicode hex="20BD"/>
  <outline>
    <contour>
      <point x="93" y="0" type="line"/>
      <point x="131" y="0" type="line"/>
      <point x="131" y="157" type="line"/>
      <point x="283" y="157" type="line"/>
      <point x="283" y="189" type="line"/>
      <point x="131" y="189" type="line"/>
      <point x="131" y="307" type="line"/>
      <point x="283" y="307" type="line" smooth="yes"/>
      <point x="395" y="307"/>
      <point x="460" y="379"/>
      <point x="460" y="505" type="curve" smooth="yes"/>
      <point x="460" y="632"/>
      <point x="396" y="705"/>
      <point x="283" y="705" type="curve" smooth="yes"/>
      <point x="93" y="705" type="line"/>
      <point x="93" y="339" type="line"/>
      <point x="12" y="339" type="line"/>
      <point x="12" y="307" type="line"/>
      <point x="93" y="307" type="line"/>
      <point x="93" y="189" type="line"/>
      <point x="12" y="189" type="line"/>
      <point x="12" y="157" type="line"/>
      <point x="93" y="157" type="line"/>
    </contour>
    <contour>
      <point x="131" y="339" type="line"/>
      <point x="131" y="670" type="line"/>
      <point x="281" y="670" type="line" smooth="yes"/>
      <point x="373" y="670"/>
      <point x="422" y="612"/>
      <point x="422" y="505" type="curve" smooth="yes"/>
      <point x="422" y="397"/>
      <point x="373" y="339"/>
      <point x="281" y="339" type="curve" smooth="yes"/>
    </contour>
  </outline>
</glyph>
<glyph name="literSign" format="2">
  <advance width="498"/>
  <unicode hex="2113"/>
  <outline>
    <contour>
      <point x="262" y="-8" type="curve" smooth="yes"/>
      <point x="297" y="-8"/>
      <point x="328" y="10"/>
      <point x="352" y="44" type="curve"/>
      <point x="333" y="70" type="line"/>
      <point x="308" y="38"/>
      <point x="289" y="26"/>
      <point x="264" y="26" type="curve" smooth="yes"/>
      <point x="233" y="26"/>
      <point x="217" y="48"/>
      <point x="217" y="88" type="curve" smooth="yes"/>
      <point x="217" y="326" type="line"/>
      <point x="240" y="359" type="line" smooth="yes"/>
      <point x="299" y="444"/>
      <point x="331" y="530"/>
      <point x="331" y="614" type="curve" smooth="yes"/>
      <point x="331" y="682"/>
      <point x="310" y="713"/>
      <point x="262" y="713" type="curve" smooth="yes"/>
      <point x="211" y="713"/>
      <point x="181" y="676"/>
      <point x="181" y="612" type="curve" smooth="yes"/>
      <point x="181" y="327" type="line"/>
      <point x="110" y="215" type="line"/>
      <point x="134" y="196" type="line"/>
      <point x="189" y="284" type="line"/>
      <point x="181" y="285" type="line"/>
      <point x="181" y="81" type="line" smooth="yes"/>
      <point x="181" y="23"/>
      <point x="210" y="-8"/>
    </contour>
    <contour>
      <point x="217" y="381" type="curve"/>
      <point x="217" y="607" type="line" smooth="yes"/>
      <point x="217" y="654"/>
      <point x="233" y="680"/>
      <point x="263" y="680" type="curve" smooth="yes"/>
      <point x="286" y="680"/>
      <point x="295" y="662"/>
      <point x="295" y="613" type="curve" smooth="yes"/>
      <point x="295" y="511"/>
      <point x="253" y="441"/>
      <point x="231" y="403" type="curve" smooth="yes"/>
      <point x="227" y="396"/>
      <point x="221" y="387"/>
    </contour>
  </outline>
</glyph>
<glyph name="numero" format="2">
  <advance width="868"/>
  <unicode hex="2116"/>
  <outline>
    <contour>
      <point x="83" y="0" type="line"/>
      <point x="119" y="0" type="line"/>
      <point x="119" y="668" type="line"/>
      <point x="98" y="668" type="line"/>
      <point x="490" y="0" type="line"/>
      <point x="522" y="0" type="line"/>
      <point x="523" y="705" type="line"/>
      <point x="487" y="705" type="line"/>
      <point x="487" y="37" type="line"/>
      <point x="507" y="37" type="line"/>
      <point x="115" y="705" type="line"/>
      <point x="83" y="705" type="line"/>
    </contour>
    <contour>
      <point x="626" y="289" type="line"/>
      <point x="838" y="289" type="line"/>
      <point x="838" y="321" type="line"/>
      <point x="626" y="321" type="line"/>
    </contour>
    <contour>
      <point x="732" y="413" type="curve" smooth="yes"/>
      <point x="802" y="413"/>
      <point x="844" y="462"/>
      <point x="844" y="563" type="curve" smooth="yes"/>
      <point x="844" y="664"/>
      <point x="802" y="713"/>
      <point x="732" y="713" type="curve" smooth="yes"/>
      <point x="662" y="713"/>
      <point x="620" y="664"/>
      <point x="620" y="563" type="curve" smooth="yes"/>
      <point x="620" y="462"/>
      <point x="662" y="413"/>
    </contour>
    <contour>
      <point x="732" y="441" type="curve" smooth="yes"/>
      <point x="682" y="441"/>
      <point x="651" y="477"/>
      <point x="651" y="563" type="curve" smooth="yes"/>
      <point x="651" y="648"/>
      <point x="682" y="684"/>
      <point x="732" y="684" type="curve" smooth="yes"/>
      <point x="781" y="684"/>
      <point x="813" y="648"/>
      <point x="813" y="563" type="curve" smooth="yes"/>
      <point x="813" y="477"/>
      <point x="781" y="441"/>
    </contour>
  </outline>
</glyph>
<glyph name="Ohm" format="2">
  <advance width="498"/>
  <unicode hex="2126"/>
  <outline>
    <contour>
      <point x="39" y="0" type="line"/>
      <point x="212" y="0" type="line"/>
      <point x="212" y="32" type="line"/>
      <point x="128" y="132"/>
      <point x="89" y="241"/>
      <point x="89" y="400" type="curve" smooth="yes"/>
      <point x="89" y="587"/>
      <point x="141" y="677"/>
      <point x="249" y="677" type="curve" smooth="yes"/>
      <point x="357" y="677"/>
      <point x="409" y="587"/>
      <point x="409" y="400" type="curve" smooth="yes"/>
      <point x="409" y="241"/>
      <point x="370" y="132"/>
      <point x="286" y="32" type="curve"/>
      <point x="286" y="0" type="line"/>
      <point x="459" y="0" type="line"/>
      <point x="459" y="33" type="line"/>
      <point x="308" y="33" type="line"/>
      <point x="308" y="18" type="line"/>
      <point x="400" y="108"/>
      <point x="449" y="232"/>
      <point x="449" y="401" type="curve" smooth="yes"/>
      <point x="449" y="605"/>
      <point x="381" y="713"/>
      <point x="249" y="713" type="curve" smooth="yes"/>
      <point x="117" y="713"/>
      <point x="49" y="605"/>
      <point x="49" y="401" type="curve" smooth="yes"/>
      <point x="49" y="232"/>
      <point x="98" y="108"/>
      <point x="190" y="18" type="curve"/>
      <point x="190" y="33" type="line"/>
      <point x="39" y="33" type="line"/>
    </contour>
  </outline>
</glyph>
<glyph name="emptyset" format="2">
  <advance width="498"/>
  <unicode hex="2205"/>
  <outline>
    <contour>
      <point x="65" y="33" type="line"/>
      <point x="127" y="114" type="line"/>
      <point x="162" y="94"/>
      <point x="204" y="83"/>
      <point x="249" y="83" type="curve" smooth="yes"/>
      <point x="389" y="83"/>
      <point x="493" y="190"/>
      <point x="493" y="316" type="curve" smooth="yes"/>
      <point x="493" y="383"/>
      <point x="463" y="445"/>
      <point x="414" y="488" type="curve"/>
      <point x="476" y="569" type="line"/>
      <point x="442" y="593" type="line"/>
      <point x="381" y="513" type="line"/>
      <point x="343" y="536"/>
      <point x="298" y="549"/>
      <point x="249" y="549" type="curve" smooth="yes"/>
      <point x="109" y="549"/>
      <point x="5" y="442"/>
      <point x="5" y="316" type="curve" smooth="yes"/>
      <point x="5" y="245"/>
      <point x="38" y="180"/>
      <point x="92" y="137" type="curve"/>
      <point x="31" y="57" type="line"/>
    </contour>
    <contour>
      <point x="117" y="169" type="line"/>
      <point x="75" y="203"/>
      <point x="50" y="255"/>
      <point x="50" y="316" type="curve" smooth="yes"/>
      <point x="50" y="429"/>
      <point x="136" y="509"/>
      <point x="249" y="509" type="curve" smooth="yes"/>
      <point x="289" y="509"/>
      <point x="326" y="499"/>
      <point x="356" y="481" type="curve"/>
    </contour>
    <contour>
      <point x="249" y="123" type="curve" smooth="yes"/>
      <point x="213" y="123"/>
      <point x="180" y="131"/>
      <point x="151" y="146" type="curve"/>
      <point x="389" y="456" type="line"/>
      <point x="426" y="422"/>
      <point x="448" y="373"/>
      <point x="448" y="316" type="curve" smooth="yes"/>
      <point x="448" y="203"/>
      <point x="362" y="123"/>
    </contour>
  </outline>
</glyph>
<glyph name="increment" format="2">
  <advance width="498"/>
  <unicode hex="2206"/>
  <outline>
    <contour>
      <point x="20" y="0" type="line"/>
      <point x="478" y="0" type="line"/>
      <point x="478" y="25" type="line"/>
      <point x="267" y="705" type="line"/>
      <point x="231" y="705" type="line"/>
      <point x="20" y="25" type="line"/>
    </contour>
    <contour>
      <point x="51" y="4" type="line"/>
      <point x="248" y="654" type="line"/>
      <point x="250" y="654" type="line"/>
      <point x="447" y="4" type="line"/>
      <point x="447" y="35" type="line"/>
      <point x="51" y="35" type="line"/>
    </contour>
  </outline>
</glyph>
<glyph name="divisionslash" format="2">
  <advance width="498"/>
  <unicode hex="2215"/>
  <outline>
    <contour>
      <point x="163" y="-55" type="line"/>
      <point x="370" y="736" type="line"/>
      <point x="335" y="744" type="line"/>
      <point x="128" y="-47" type="line"/>
    </contour>
  </outline>
</glyph>
<glyph name="infinity" format="2">
  <advance width="498"/>
  <unicode hex="221E"/>
  <outline>
    <contour>
      <point x="140" y="165" type="curve" smooth="yes"/>
      <point x="186" y="165"/>
      <point x="226" y="196"/>
      <point x="249" y="246" type="curve"/>
      <point x="272" y="196"/>
      <point x="312" y="165"/>
      <point x="358" y="165" type="curve" smooth="yes"/>
      <point x="415" y="165"/>
      <point x="458" y="213"/>
      <point x="458" y="284" type="curve" smooth="yes"/>
      <point x="458" y="355"/>
      <point x="415" y="403"/>
      <point x="358" y="403" type="curve" smooth="yes"/>
      <point x="312" y="403"/>
      <point x="272" y="372"/>
      <point x="249" y="322" type="curve"/>
      <point x="226" y="372"/>
      <point x="186" y="403"/>
      <point x="140" y="403" type="curve" smooth="yes"/>
      <point x="83" y="403"/>
      <point x="40" y="355"/>
      <point x="40" y="284" type="curve" smooth="yes"/>
      <point x="40" y="213"/>
      <point x="83" y="165"/>
    </contour>
    <contour>
      <point x="142" y="197" type="curve" smooth="yes"/>
      <point x="101" y="197"/>
      <point x="76" y="230"/>
      <point x="76" y="284" type="curve" smooth="yes"/>
      <point x="76" y="337"/>
      <point x="100" y="371"/>
      <point x="145" y="371" type="curve" smooth="yes"/>
      <point x="184" y="371"/>
      <point x="212" y="345"/>
      <point x="234" y="285" type="curve"/>
      <point x="212" y="225"/>
      <point x="183" y="197"/>
    </contour>
    <contour>
      <point x="354" y="197" type="curve" smooth="yes"/>
      <point x="314" y="197"/>
      <point x="285" y="224"/>
      <point x="264" y="283" type="curve"/>
      <point x="286" y="343"/>
      <point x="315" y="371"/>
      <point x="356" y="371" type="curve" smooth="yes"/>
      <point x="397" y="371"/>
      <point x="422" y="338"/>
      <point x="422" y="284" type="curve" smooth="yes"/>
      <point x="422" y="231"/>
      <point x="398" y="197"/>
    </contour>
  </outline>
</glyph>
<glyph name="approxequal" format="2">
  <advance width="498"/>
  <unicode hex="2248"/>
  <outline>
    <contour>
      <point x="348" y="325" type="curve" smooth="yes"/>
      <point x="401" y="325"/>
      <point x="443" y="358"/>
      <point x="466" y="417" type="curve"/>
      <point x="436" y="430" type="line"/>
      <point x="422" y="389"/>
      <point x="387" y="361"/>
      <point x="350" y="361" type="curve" smooth="yes"/>
      <point x="311" y="361"/>
      <point x="276" y="390"/>
      <point x="256" y="406" type="curve" smooth="yes"/>
      <point x="218" y="436"/>
      <point x="187" y="449"/>
      <point x="152" y="449" type="curve" smooth="yes"/>
      <point x="97" y="449"/>
      <point x="55" y="417"/>
      <point x="32" y="357" type="curve"/>
      <point x="63" y="344" type="line"/>
      <point x="78" y="386"/>
      <point x="111" y="413"/>
      <point x="150" y="413" type="curve" smooth="yes"/>
      <point x="187" y="413"/>
      <point x="217" y="388"/>
      <point x="238" y="372" type="curve" smooth="yes"/>
      <point x="283" y="338"/>
      <point x="313" y="325"/>
    </contour>
    <contour>
      <point x="348" y="125" type="curve" smooth="yes"/>
      <point x="401" y="125"/>
      <point x="443" y="158"/>
      <point x="466" y="217" type="curve"/>
      <point x="436" y="230" type="line"/>
      <point x="422" y="189"/>
      <point x="387" y="161"/>
      <point x="350" y="161" type="curve" smooth="yes"/>
      <point x="311" y="161"/>
      <point x="276" y="190"/>
      <point x="256" y="206" type="curve" smooth="yes"/>
      <point x="218" y="236"/>
      <point x="187" y="249"/>
      <point x="152" y="249" type="curve" smooth="yes"/>
      <point x="97" y="249"/>
      <point x="55" y="217"/>
      <point x="32" y="157" type="curve"/>
      <point x="63" y="144" type="line"/>
      <point x="78" y="186"/>
      <point x="111" y="213"/>
      <point x="150" y="213" type="curve" smooth="yes"/>
      <point x="187" y="213"/>
      <point x="217" y="188"/>
      <point x="238" y="172" type="curve" smooth="yes"/>
      <point x="283" y="138"/>
      <point x="313" y="125"/>
    </contour>
  </outline>
</glyph>
<glyph name="leftanglebracket-math" format="2">
  <advance width="498"/>
  <unicode hex="27E8"/>
  <outline>
    <contour>
      <point x="287" y="-23" type="line"/>
      <point x="314" y="-15" type="line"/>
      <point x="216" y="349" type="line"/>
      <point x="314" y="710" type="line"/>
      <point x="287" y="718" type="line"/>
      <point x="189" y="364" type="line"/>
      <point x="189" y="334" type="line"/>
    </contour>
  </outline>
</glyph>
<glyph name="__Kabashkir-cy" format="2">
  <advance width="247"/>
  <anchor x="232" y="705" name="_topleft"/>
  <anchor x="16" y="705" name="_topright"/>
  <outline>
    <contour>
      <point x="16" y="670" type="line"/>
      <point x="232" y="670" type="line"/>
      <point x="232" y="705" type="line"/>
      <point x="16" y="705" type="line"/>
    </contour>
  </outline>
</glyph>
<glyph name="__Zedescener-cy" format="2">
  <advance width="500"/>
  <anchor x="250" y="0" name="_bottom"/>
  <outline>
    <contour>
      <point x="232" y="-130" type="line"/>
      <point x="267" y="-130" type="line"/>
      <point x="267" y="22" type="line"/>
      <point x="232" y="22" type="line"/>
    </contour>
  </outline>
</glyph>
<glyph name="__bar.Obarred-cy" format="2">
  <advance width="622"/>
  <anchor x="311" y="353" name="_center"/>
  <outline>
    <contour>
      <point x="82" y="341" type="line"/>
      <point x="540" y="341" type="line"/>
      <point x="540" y="375" type="line"/>
      <point x="82" y="375" type="line"/>
    </contour>
  </outline>
</glyph>
<glyph name="__descender-cy.case" format="2">
  <advance width="40"/>
  <anchor x="6" y="0" name="_bottomright"/>
  <outline>
    <contour>
      <point x="89" y="-150" type="line"/>
      <point x="125" y="-150" type="line"/>
      <point x="125" y="35" type="line"/>
      <point x="6" y="35" type="line"/>
      <point x="6" y="0" type="line"/>
      <point x="89" y="0" type="line"/>
    </contour>
  </outline>
</glyph>
<glyph name="__descender-cy.case.mirror" format="2">
  <advance width="13"/>
  <anchor x="6" y="0" name="_bottomright"/>
  <outline>
    <contour>
      <point x="-35" y="-150" type="line"/>
      <point x="-35" y="0" type="line"/>
      <point x="15" y="0" type="line"/>
      <point x="15" y="35" type="line"/>
      <point x="-73" y="35" type="line"/>
      <point x="-73" y="-150" type="line"/>
    </contour>
  </outline>
</glyph>
<glyph name="__descender-cy.che" format="2">
  <advance width="23"/>
  <anchor x="6" y="0" name="_bottomright"/>
  <outline>
    <contour>
      <point x="-19" y="-130" type="line"/>
      <point x="-19" y="0" type="line"/>
      <point x="28" y="0" type="line"/>
      <point x="28" y="34" type="line"/>
      <point x="-53" y="34" type="line"/>
      <point x="-53" y="-130" type="line"/>
    </contour>
  </outline>
</glyph>
<glyph name="__tail-cy" format="2">
  <advance width="25"/>
  <anchor x="6" y="0" name="_bottomright"/>
  <outline>
    <contour>
      <point x="21" y="-130" type="line"/>
      <point x="56" y="-130" type="line"/>
      <point x="105" y="33" type="line"/>
      <point x="6" y="33" type="line"/>
      <point x="6" y="0" type="line"/>
      <point x="59" y="0" type="line"/>
    </contour>
  </outline>
</glyph>
<glyph name="_part.Qtail" format="2">
  <advance width="622"/>
  <anchor x="310" y="-8" name="_Qtail"/>
  <outline>
    <contour>
      <point x="472" y="-190" type="line"/>
      <point x="503" y="-173" type="line"/>
      <point x="447" y="-63" type="line" smooth="yes"/>
      <point x="417" y="-4"/>
      <point x="396" y="11"/>
      <point x="346" y="11" type="curve"/>
      <point x="310" y="-8" type="line"/>
      <point x="362" y="-8"/>
      <point x="391" y="-35"/>
      <point x="412" y="-75" type="curve" smooth="yes"/>
    </contour>
  </outline>
</glyph>
<glyph name="acutecomb_dotaccentcomb" format="2">
  <anchor x="0" y="484" name="_top"/>
  <outline>
    <contour>
      <point x="-17" y="549" type="line"/>
      <point x="14" y="549" type="line"/>
      <point x="115" y="749" type="line"/>
      <point x="68" y="749" type="line"/>
    </contour>
    <contour>
      <point x="-56" y="761" type="line"/>
      <point x="4" y="761" type="line"/>
      <point x="4" y="820" type="line"/>
      <point x="-56" y="820" type="line"/>
    </contour>
  </outline>
</glyph>
<glyph name="brevecomb-cy" format="2">
  <anchor x="0" y="484" name="_top"/>
  <outline>
    <contour>
      <point x="0" y="547" type="curve" smooth="yes"/>
      <point x="70" y="547"/>
      <point x="116" y="592"/>
      <point x="132" y="677" type="curve"/>
      <point x="104" y="685" type="line"/>
      <point x="92" y="616"/>
      <point x="56" y="580"/>
      <point x="0" y="580" type="curve" smooth="yes"/>
      <point x="-56" y="580"/>
      <point x="-92" y="616"/>
      <point x="-104" y="685" type="curve"/>
      <point x="-132" y="677" type="line"/>
      <point x="-116" y="592"/>
      <point x="-70" y="547"/>
    </contour>
  </outline>
</glyph>
<glyph name="breveinvertedcomb.case" format="2">
  <anchor x="0" y="705" name="_top"/>
  <anchor x="0" y="865" name="top"/>
  <outline>
    <contour>
      <point x="-89" y="760" type="line"/>
      <point x="-87" y="845"/>
      <point x="-58" y="882"/>
      <point x="0" y="882" type="curve" smooth="yes"/>
      <point x="58" y="882"/>
      <point x="87" y="845"/>
      <point x="89" y="760" type="curve"/>
      <point x="118" y="763" type="line"/>
      <point x="114" y="865"/>
      <point x="73" y="915"/>
      <point x="0" y="915" type="curve" smooth="yes"/>
      <point x="-73" y="915"/>
      <point x="-114" y="865"/>
      <point x="-118" y="763" type="curve"/>
    </contour>
  </outline>
</glyph>
<glyph name="caroncomb.alt.t" format="2">
  <anchor x="-10" y="705" name="_topright"/>
  <outline>
    <contour>
      <point x="-10" y="535" type="line"/>
      <point x="13" y="535" type="line"/>
      <point x="31" y="705" type="line"/>
      <point x="-10" y="705" type="line"/>
    </contour>
  </outline>
</glyph>
<glyph name="caroncomb.case" format="2">
  <anchor x="0" y="705" name="_top"/>
  <anchor x="0" y="865" name="top"/>
  <outline>
    <contour>
      <point x="-21" y="765" type="line"/>
      <point x="21" y="765" type="line"/>
      <point x="119" y="919" type="line"/>
      <point x="88" y="919" type="line"/>
      <point x="0" y="801" type="line"/>
      <point x="-88" y="919" type="line"/>
      <point x="-119" y="919" type="line"/>
    </contour>
  </outline>
</glyph>
<glyph name="caroncomb_dotaccentcomb" format="2">
  <anchor x="0" y="484" name="_top"/>
  <outline>
    <contour>
      <point x="-21" y="549" type="line"/>
      <point x="21" y="549" type="line"/>
      <point x="111" y="709" type="line"/>
      <point x="80" y="709" type="line"/>
      <point x="0" y="585" type="line"/>
      <point x="-80" y="709" type="line"/>
      <point x="-111" y="709" type="line"/>
    </contour>
    <contour>
      <point x="-30" y="761" type="line"/>
      <point x="30" y="761" type="line"/>
      <point x="30" y="820" type="line"/>
      <point x="-30" y="820" type="line"/>
    </contour>
  </outline>
</glyph>
<glyph name="circumflexcomb_acutecomb.case" format="2">
  <anchor x="0" y="705" name="_top"/>
  <outline>
    <contour>
      <point x="-111" y="765" type="line"/>
      <point x="-81" y="765" type="line"/>
      <point x="0" y="875" type="line"/>
      <point x="81" y="765" type="line"/>
      <point x="111" y="765" type="line"/>
      <point x="21" y="909" type="line"/>
      <point x="-21" y="909" type="line"/>
    </contour>
    <contour>
      <point x="67" y="864" type="line"/>
      <point x="98" y="864" type="line"/>
      <point x="185" y="1016" type="line"/>
      <point x="138" y="1016" type="line"/>
    </contour>
  </outline>
</glyph>
<glyph name="circumflexcomb_gravecomb.case" format="2">
  <anchor x="0" y="705" name="_top"/>
  <outline>
    <contour>
      <point x="-111" y="765" type="line"/>
      <point x="-81" y="765" type="line"/>
      <point x="0" y="875" type="line"/>
      <point x="81" y="765" type="line"/>
      <point x="111" y="765" type="line"/>
      <point x="21" y="909" type="line"/>
      <point x="-21" y="909" type="line"/>
    </contour>
    <contour>
      <point x="102" y="864" type="line"/>
      <point x="133" y="864" type="line"/>
      <point x="62" y="1016" type="line"/>
      <point x="15" y="1016" type="line"/>
    </contour>
  </outline>
</glyph>
<glyph name="circumflexcomb_hookabovecomb.case" format="2">
  <anchor x="0" y="705" name="_top"/>
  <outline>
    <contour>
      <point x="-111" y="765" type="line"/>
      <point x="-81" y="765" type="line"/>
      <point x="0" y="875" type="line"/>
      <point x="81" y="765" type="line"/>
      <point x="111" y="765" type="line"/>
      <point x="21" y="909" type="line"/>
      <point x="-21" y="909" type="line"/>
    </contour>
    <contour>
      <point x="70" y="864" type="curve"/>
      <point x="99" y="864" type="line"/>
      <point x="99" y="909"/>
      <point x="157" y="913"/>
      <point x="157" y="966" type="curve" smooth="yes"/>
      <point x="157" y="1001"/>
      <point x="129" y="1020"/>
      <point x="88" y="1020" type="curve" smooth="yes"/>
      <point x="62" y="1020"/>
      <point x="39" y="1011"/>
      <point x="24" y="1000" type="curve"/>
      <point x="32" y="975" type="line"/>
      <point x="47" y="984"/>
      <point x="64" y="991"/>
      <point x="82" y="991" type="curve" smooth="yes"/>
      <point x="110" y="991"/>
      <point x="124" y="980"/>
      <point x="124" y="963" type="curve" smooth="yes"/>
      <point x="124" y="928"/>
      <point x="70" y="916"/>
    </contour>
  </outline>
</glyph>
<glyph name="circumflexcomb_tildecomb.case" format="2">
  <anchor x="0" y="705" name="_top"/>
  <outline>
    <contour>
      <point x="-111" y="765" type="line"/>
      <point x="-81" y="765" type="line"/>
      <point x="0" y="857" type="line"/>
      <point x="81" y="765" type="line"/>
      <point x="111" y="765" type="line"/>
      <point x="21" y="887" type="line"/>
      <point x="-21" y="887" type="line"/>
    </contour>
    <contour>
      <point x="-92" y="921" type="line"/>
      <point x="-86" y="962"/>
      <point x="-75" y="979"/>
      <point x="-55" y="979" type="curve" smooth="yes"/>
      <point x="-37" y="979"/>
      <point x="-24" y="967"/>
      <point x="-9" y="954" type="curve" smooth="yes"/>
      <point x="8" y="939"/>
      <point x="26" y="923"/>
      <point x="54" y="923" type="curve" smooth="yes"/>
      <point x="91" y="923"/>
      <point x="114" y="953"/>
      <point x="119" y="1010" type="curve"/>
      <point x="92" y="1013" type="line"/>
      <point x="88" y="972"/>
      <point x="76" y="955"/>
      <point x="55" y="955" type="curve" smooth="yes"/>
      <point x="37" y="955"/>
      <point x="23" y="967"/>
      <point x="8" y="980" type="curve" smooth="yes"/>
      <point x="-9" y="995"/>
      <point x="-26" y="1011"/>
      <point x="-53" y="1011" type="curve" smooth="yes"/>
      <point x="-90" y="1011"/>
      <point x="-114" y="979"/>
      <point x="-119" y="924" type="curve"/>
    </contour>
  </outline>
</glyph>
<glyph name="circumflexcomb_tildecomb" format="2">
  <anchor x="0" y="484" name="_top"/>
  <outline>
    <contour>
      <point x="-111" y="549" type="line"/>
      <point x="-81" y="549" type="line"/>
      <point x="0" y="641" type="line"/>
      <point x="81" y="549" type="line"/>
      <point x="111" y="549" type="line"/>
      <point x="21" y="671" type="line"/>
      <point x="-21" y="671" type="line"/>
    </contour>
    <contour>
      <point x="-92" y="705" type="line"/>
      <point x="-86" y="746"/>
      <point x="-75" y="763"/>
      <point x="-55" y="763" type="curve" smooth="yes"/>
      <point x="-37" y="763"/>
      <point x="-24" y="751"/>
      <point x="-9" y="738" type="curve" smooth="yes"/>
      <point x="8" y="723"/>
      <point x="26" y="707"/>
      <point x="54" y="707" type="curve" smooth="yes"/>
      <point x="91" y="707"/>
      <point x="114" y="737"/>
      <point x="119" y="794" type="curve"/>
      <point x="92" y="797" type="line"/>
      <point x="88" y="756"/>
      <point x="76" y="739"/>
      <point x="55" y="739" type="curve" smooth="yes"/>
      <point x="37" y="739"/>
      <point x="23" y="751"/>
      <point x="8" y="764" type="curve" smooth="yes"/>
      <point x="-9" y="779"/>
      <point x="-26" y="795"/>
      <point x="-53" y="795" type="curve" smooth="yes"/>
      <point x="-90" y="795"/>
      <point x="-114" y="763"/>
      <point x="-119" y="708" type="curve"/>
    </contour>
  </outline>
</glyph>
<glyph name="commaturnedabovecomb.case" format="2">
  <anchor x="0" y="705" name="_top"/>
  <anchor x="0" y="865" name="top"/>
  <outline>
    <contour>
      <point x="-31" y="765" type="line"/>
      <point x="30" y="765" type="line"/>
      <point x="30" y="828" type="line"/>
      <point x="-7" y="828" type="line"/>
      <point x="2" y="820" type="line"/>
      <point x="2" y="859"/>
      <point x="9" y="882"/>
      <point x="30" y="908" type="curve"/>
      <point x="7" y="926" type="line"/>
      <point x="-19" y="896"/>
      <point x="-31" y="860"/>
      <point x="-31" y="817" type="curve" smooth="yes"/>
    </contour>
  </outline>
</glyph>
<glyph name="dotaccentcomb.case" format="2">
  <anchor x="0" y="705" name="_top"/>
  <anchor x="0" y="865" name="top"/>
  <outline>
    <contour>
      <point x="-30" y="822" type="line"/>
      <point x="30" y="822" type="line"/>
      <point x="30" y="881" type="line"/>
      <point x="-30" y="881" type="line"/>
    </contour>
  </outline>
</glyph>
<glyph name="dotaccentcomb_macroncomb.case" format="2">
  <anchor x="0" y="705" name="_top"/>
  <outline>
    <contour>
      <point x="-114" y="930" type="line"/>
      <point x="114" y="930" type="line"/>
      <point x="114" y="965" type="line"/>
      <point x="-114" y="965" type="line"/>
    </contour>
    <contour>
      <point x="-30" y="807" type="line"/>
      <point x="30" y="807" type="line"/>
      <point x="30" y="866" type="line"/>
      <point x="-30" y="866" type="line"/>
    </contour>
  </outline>
</glyph>
<glyph name="dotaccentcomb_macroncomb" format="2">
  <anchor x="0" y="484" name="_top"/>
  <outline>
    <contour>
      <point x="-114" y="706" type="line"/>
      <point x="114" y="706" type="line"/>
      <point x="114" y="741" type="line"/>
      <point x="-114" y="741" type="line"/>
    </contour>
    <contour>
      <point x="-30" y="583" type="line"/>
      <point x="30" y="583" type="line"/>
      <point x="30" y="642" type="line"/>
      <point x="-30" y="642" type="line"/>
    </contour>
  </outline>
</glyph>
<glyph name="five.tosf" format="2">
  <advance width="498"/>
  <outline>
    <contour>
      <point x="253" y="-188" type="curve" smooth="yes"/>
      <point x="370" y="-188"/>
      <point x="437" y="-107"/>
      <point x="437" y="27" type="curve" smooth="yes"/>
      <point x="437" y="156"/>
      <point x="375" y="229"/>
      <point x="270" y="229" type="curve" smooth="yes"/>
      <point x="204" y="229"/>
      <point x="156" y="199"/>
      <point x="126" y="136" type="curve"/>
      <point x="137" y="136" type="line"/>
      <point x="137" y="452" type="line"/>
      <point x="411" y="452" type="line"/>
      <point x="411" y="484" type="line"/>
      <point x="100" y="484" type="line"/>
      <point x="100" y="98" type="line"/>
      <point x="133" y="98" type="line"/>
      <point x="165" y="165"/>
      <point x="203" y="193"/>
      <point x="259" y="193" type="curve" smooth="yes"/>
      <point x="349" y="193"/>
      <point x="398" y="133"/>
      <point x="398" y="24" type="curve" smooth="yes"/>
      <point x="398" y="-90"/>
      <point x="347" y="-152"/>
      <point x="254" y="-152" type="curve" smooth="yes"/>
      <point x="194" y="-152"/>
      <point x="135" y="-126"/>
      <point x="91" y="-80" type="curve"/>
      <point x="75" y="-112" type="line"/>
      <point x="117" y="-160"/>
      <point x="185" y="-188"/>
    </contour>
  </outline>
</glyph>
<glyph name="four.dnom" format="2">
  <advance width="320"/>
  <outline>
    <contour>
      <point x="206" y="0" type="line"/>
      <point x="241" y="0" type="line"/>
      <point x="241" y="96" type="line"/>
      <point x="295" y="96" type="line"/>
      <point x="295" y="128" type="line"/>
      <point x="241" y="128" type="line"/>
      <point x="241" y="423" type="line"/>
      <point x="211" y="423" type="line"/>
      <point x="27" y="124" type="line"/>
      <point x="27" y="96" type="line"/>
      <point x="206" y="96" type="line"/>
    </contour>
    <contour>
      <point x="206" y="128" type="line"/>
      <point x="58" y="128" type="line"/>
      <point x="58" y="119" type="line"/>
      <point x="218" y="377" type="line"/>
      <point x="206" y="377" type="line"/>
    </contour>
  </outline>
</glyph>
<glyph name="four.tosf" format="2">
  <advance width="498"/>
  <outline>
    <contour>
      <point x="325" y="-180" type="line"/>
      <point x="363" y="-180" type="line"/>
      <point x="363" y="0" type="line"/>
      <point x="444" y="0" type="line"/>
      <point x="444" y="32" type="line"/>
      <point x="363" y="32" type="line"/>
      <point x="363" y="484" type="line"/>
      <point x="332" y="484" type="line"/>
      <point x="58" y="30" type="line"/>
      <point x="58" y="0" type="line"/>
      <point x="325" y="0" type="line"/>
    </contour>
    <contour>
      <point x="325" y="32" type="line"/>
      <point x="93" y="32" type="line"/>
      <point x="93" y="24" type="line"/>
      <point x="340" y="434" type="line"/>
      <point x="325" y="434" type="line"/>
    </contour>
  </outline>
</glyph>
<glyph name="horncomb.case" format="2">
  <anchor x="0" y="705" name="_topright"/>
  <outline>
    <contour>
      <point x="15" y="670" type="line"/>
      <point x="97" y="676"/>
      <point x="134" y="722"/>
      <point x="134" y="818" type="curve" smooth="yes"/>
      <point x="134" y="837" type="line"/>
      <point x="96" y="837" type="line"/>
      <point x="96" y="826" type="line" smooth="yes"/>
      <point x="96" y="736"/>
      <point x="73" y="707"/>
      <point x="0" y="705" type="curve"/>
      <point x="0" y="681" type="line"/>
    </contour>
  </outline>
</glyph>
<glyph name="nine.dnom" format="2">
  <advance width="320"/>
  <outline>
    <contour>
      <point x="138" y="-3" type="curve" smooth="yes"/>
      <point x="230" y="-3"/>
      <point x="281" y="76"/>
      <point x="281" y="221" type="curve" smooth="yes"/>
      <point x="281" y="358"/>
      <point x="238" y="427"/>
      <point x="152" y="427" type="curve" smooth="yes"/>
      <point x="77" y="427"/>
      <point x="32" y="376"/>
      <point x="32" y="291" type="curve" smooth="yes"/>
      <point x="32" y="210"/>
      <point x="75" y="159"/>
      <point x="143" y="159" type="curve" smooth="yes"/>
      <point x="208" y="159"/>
      <point x="250" y="204"/>
      <point x="251" y="275" type="curve"/>
      <point x="247" y="275" type="line"/>
      <point x="247" y="218" type="line" smooth="yes"/>
      <point x="247" y="94"/>
      <point x="209" y="30"/>
      <point x="136" y="30" type="curve" smooth="yes"/>
      <point x="100" y="30"/>
      <point x="70" y="45"/>
      <point x="47" y="71" type="curve"/>
      <point x="33" y="40" type="line"/>
      <point x="55" y="13"/>
      <point x="94" y="-3"/>
    </contour>
    <contour>
      <point x="149" y="191" type="curve" smooth="yes"/>
      <point x="97" y="191"/>
      <point x="67" y="228"/>
      <point x="67" y="292" type="curve" smooth="yes"/>
      <point x="67" y="357"/>
      <point x="98" y="395"/>
      <point x="150" y="395" type="curve" smooth="yes"/>
      <point x="203" y="395"/>
      <point x="234" y="357"/>
      <point x="234" y="293" type="curve" smooth="yes"/>
      <point x="234" y="229"/>
      <point x="202" y="191"/>
    </contour>
  </outline>
</glyph>
<glyph name="one.ss01" format="2">
  <advance width="498"/>
  <outline>
    <contour>
      <point x="280" y="0" type="line"/>
      <point x="318" y="0" type="line"/>
      <point x="318" y="705" type="line"/>
      <point x="283" y="705" type="line"/>
      <point x="123" y="597" type="line"/>
      <point x="141" y="568" type="line"/>
      <point x="298" y="672" type="line"/>
      <point x="280" y="672" type="line"/>
    </contour>
  </outline>
</glyph>
<glyph name="one.tosf" format="2">
  <advance width="498"/>
  <outline>
    <contour>
      <point x="123" y="0" type="line"/>
      <point x="415" y="0" type="line"/>
      <point x="415" y="32" type="line"/>
      <point x="292" y="32" type="line"/>
      <point x="292" y="484" type="line"/>
      <point x="257" y="484" type="line"/>
      <point x="115" y="388" type="line"/>
      <point x="132" y="361" type="line"/>
      <point x="271" y="453" type="line"/>
      <point x="254" y="453" type="line"/>
      <point x="254" y="32" type="line"/>
      <point x="123" y="32" type="line"/>
    </contour>
  </outline>
</glyph>
<glyph name="one.tosf.ss01" format="2">
  <advance width="498"/>
  <outline>
    <contour>
      <point x="254" y="0" type="line"/>
      <point x="292" y="0" type="line"/>
      <point x="292" y="484" type="line"/>
      <point x="257" y="484" type="line"/>
      <point x="103" y="380" type="line"/>
      <point x="120" y="353" type="line"/>
      <point x="270" y="453" type="line"/>
      <point x="254" y="453" type="line"/>
    </contour>
  </outline>
</glyph>
<glyph name="seven.tosf" format="2">
  <advance width="498"/>
  <outline>
    <contour>
      <point x="113" y="-181" type="line"/>
      <point x="155" y="-181" type="line"/>
      <point x="421" y="458" type="line"/>
      <point x="421" y="484" type="line"/>
      <point x="76" y="484" type="line"/>
      <point x="76" y="451" type="line"/>
      <point x="391" y="451" type="line"/>
      <point x="391" y="476" type="line"/>
    </contour>
  </outline>
</glyph>
<glyph name="slashlongcomb.case" format="2">
  <anchor x="2" y="353" name="_center"/>
  <outline>
    <contour>
      <point x="-165" y="-35" type="line"/>
      <point x="-130" y="37" type="line"/>
      <point x="-120" y="57" type="line"/>
      <point x="148" y="624" type="line"/>
      <point x="158" y="644" type="line"/>
      <point x="197" y="725" type="line"/>
      <point x="165" y="740" type="line"/>
      <point x="130" y="667" type="line"/>
      <point x="120" y="647" type="line"/>
      <point x="-148" y="81" type="line"/>
      <point x="-158" y="61" type="line"/>
      <point x="-197" y="-20" type="line"/>
    </contour>
  </outline>
</glyph>
<glyph name="slashshortcomb.case" format="2">
  <anchor x="0" y="385" name="_center"/>
  <outline>
    <contour>
      <point x="-123" y="281" type="line"/>
      <point x="142" y="464" type="line"/>
      <point x="123" y="492" type="line"/>
      <point x="-142" y="309" type="line"/>
    </contour>
  </outline>
</glyph>
<glyph name="tildecomb.case.O" format="2">
  <anchor x="0" y="705" name="_top"/>
  <anchor x="0" y="865" name="top"/>
  <outline>
    <contour>
      <point x="-150" y="792" type="line"/>
      <point x="-149" y="838"/>
      <point x="-128" y="869"/>
      <point x="-97" y="869" type="curve" smooth="yes"/>
      <point x="-74" y="869"/>
      <point x="-54" y="853"/>
      <point x="-32" y="836" type="curve" smooth="yes"/>
      <point x="-7" y="816"/>
      <point x="20" y="794"/>
      <point x="57" y="794" type="curve" smooth="yes"/>
      <point x="107" y="794"/>
      <point x="140" y="837"/>
      <point x="138" y="899" type="curve"/>
      <point x="109" y="901" type="line"/>
      <point x="109" y="855"/>
      <point x="88" y="824"/>
      <point x="57" y="824" type="curve" smooth="yes"/>
      <point x="35" y="824"/>
      <point x="15" y="840"/>
      <point x="-7" y="857" type="curve" smooth="yes"/>
      <point x="-32" y="877"/>
      <point x="-59" y="899"/>
      <point x="-96" y="899" type="curve" smooth="yes"/>
      <point x="-146" y="899"/>
      <point x="-180" y="854"/>
      <point x="-178" y="794" type="curve"/>
    </contour>
  </outline>
</glyph>
<glyph name="tildecomb.case" format="2">
  <anchor x="0" y="705" name="_top"/>
  <anchor x="0" y="865" name="top"/>
  <outline>
    <contour>
      <point x="-130" y="792" type="line"/>
      <point x="-129" y="838"/>
      <point x="-108" y="869"/>
      <point x="-77" y="869" type="curve" smooth="yes"/>
      <point x="-54" y="869"/>
      <point x="-34" y="853"/>
      <point x="-12" y="836" type="curve" smooth="yes"/>
      <point x="13" y="816"/>
      <point x="40" y="794"/>
      <point x="77" y="794" type="curve" smooth="yes"/>
      <point x="127" y="794"/>
      <point x="160" y="837"/>
      <point x="158" y="899" type="curve"/>
      <point x="129" y="901" type="line"/>
      <point x="129" y="855"/>
      <point x="108" y="824"/>
      <point x="77" y="824" type="curve" smooth="yes"/>
      <point x="55" y="824"/>
      <point x="35" y="840"/>
      <point x="13" y="857" type="curve" smooth="yes"/>
      <point x="-12" y="877"/>
      <point x="-39" y="899"/>
      <point x="-76" y="899" type="curve" smooth="yes"/>
      <point x="-126" y="899"/>
      <point x="-160" y="854"/>
      <point x="-158" y="794" type="curve"/>
    </contour>
  </outline>
</glyph>
<glyph name="tildecomb.o" format="2">
  <anchor x="0" y="484" name="_top"/>
  <anchor x="0" y="685" name="top"/>
  <outline>
    <contour>
      <point x="-130" y="593" type="line"/>
      <point x="-129" y="643"/>
      <point x="-114" y="670"/>
      <point x="-87" y="670" type="curve" smooth="yes"/>
      <point x="-66" y="670"/>
      <point x="-49" y="654"/>
      <point x="-31" y="637" type="curve" smooth="yes"/>
      <point x="-10" y="617"/>
      <point x="14" y="595"/>
      <point x="47" y="595" type="curve" smooth="yes"/>
      <point x="93" y="595"/>
      <point x="120" y="635"/>
      <point x="118" y="700" type="curve"/>
      <point x="89" y="702" type="line"/>
      <point x="89" y="653"/>
      <point x="74" y="625"/>
      <point x="48" y="625" type="curve" smooth="yes"/>
      <point x="28" y="625"/>
      <point x="11" y="641"/>
      <point x="-8" y="658" type="curve" smooth="yes"/>
      <point x="-29" y="678"/>
      <point x="-53" y="700"/>
      <point x="-86" y="700" type="curve" smooth="yes"/>
      <point x="-131" y="700"/>
      <point x="-160" y="658"/>
      <point x="-158" y="595" type="curve"/>
    </contour>
  </outline>
</glyph>
<glyph name="tildecomb_dieresiscomb.case" format="2">
  <anchor x="0" y="705" name="_top"/>
  <outline>
    <contour>
      <point x="54" y="768" type="curve" smooth="yes"/>
      <point x="91" y="768"/>
      <point x="114" y="798"/>
      <point x="119" y="855" type="curve"/>
      <point x="92" y="858" type="line"/>
      <point x="88" y="817"/>
      <point x="76" y="801"/>
      <point x="55" y="801" type="curve" smooth="yes"/>
      <point x="37" y="801"/>
      <point x="24" y="813"/>
      <point x="9" y="825" type="curve" smooth="yes"/>
      <point x="-7" y="840"/>
      <point x="-26" y="856"/>
      <point x="-53" y="856" type="curve" smooth="yes"/>
      <point x="-90" y="856"/>
      <point x="-114" y="824"/>
      <point x="-119" y="769" type="curve"/>
      <point x="-92" y="766" type="line"/>
      <point x="-86" y="807"/>
      <point x="-75" y="823"/>
      <point x="-55" y="823" type="curve" smooth="yes"/>
      <point x="-37" y="823"/>
      <point x="-24" y="811"/>
      <point x="-9" y="799" type="curve" smooth="yes"/>
      <point x="8" y="784"/>
      <point x="26" y="768"/>
    </contour>
    <contour>
      <point x="-93" y="912" type="line"/>
      <point x="-37" y="912" type="line"/>
      <point x="-37" y="967" type="line"/>
      <point x="-93" y="967" type="line"/>
    </contour>
    <contour>
      <point x="37" y="912" type="line"/>
      <point x="93" y="912" type="line"/>
      <point x="93" y="967" type="line"/>
      <point x="37" y="967" type="line"/>
    </contour>
  </outline>
</glyph>
<glyph name="two.dnom" format="2">
  <advance width="320"/>
  <outline>
    <contour>
      <point x="52" y="0" type="line"/>
      <point x="283" y="0" type="line"/>
      <point x="283" y="32" type="line"/>
      <point x="86" y="32" type="line"/>
      <point x="86" y="22" type="line"/>
      <point x="208" y="166" type="line" smooth="yes"/>
      <point x="247" y="212"/>
      <point x="268" y="265"/>
      <point x="268" y="317" type="curve" smooth="yes"/>
      <point x="268" y="387"/>
      <point x="228" y="427"/>
      <point x="158" y="427" type="curve" smooth="yes"/>
      <point x="111" y="427"/>
      <point x="66" y="409"/>
      <point x="39" y="380" type="curve"/>
      <point x="53" y="351" type="line"/>
      <point x="82" y="379"/>
      <point x="115" y="393"/>
      <point x="152" y="393" type="curve" smooth="yes"/>
      <point x="205" y="393"/>
      <point x="232" y="367"/>
      <point x="232" y="313" type="curve" smooth="yes"/>
      <point x="232" y="270"/>
      <point x="215" y="227"/>
      <point x="184" y="189" type="curve" smooth="yes"/>
      <point x="52" y="28" type="line"/>
    </contour>
  </outline>
</glyph>
